<?xml version="1.0" encoding="utf-8" standalone="no"?>
<!DOCTYPE svg PUBLIC "-//W3C//DTD SVG 1.1//EN"
  "http://www.w3.org/Graphics/SVG/1.1/DTD/svg11.dtd">
<svg xmlns:xlink="http://www.w3.org/1999/xlink" width="1000.0875pt" height="968.384896pt" viewBox="0 0 1000.0875 968.384896" xmlns="http://www.w3.org/2000/svg" version="1.1">
 <metadata>
  <rdf:RDF xmlns:dc="http://purl.org/dc/elements/1.1/" xmlns:cc="http://creativecommons.org/ns#" xmlns:rdf="http://www.w3.org/1999/02/22-rdf-syntax-ns#">
   <cc:Work>
    <dc:type rdf:resource="http://purl.org/dc/dcmitype/StillImage"/>
    <dc:date>2026-02-14T15:20:33.814615</dc:date>
    <dc:format>image/svg+xml</dc:format>
    <dc:creator>
     <cc:Agent>
      <dc:title>Matplotlib v3.10.8, https://matplotlib.org/</dc:title>
     </cc:Agent>
    </dc:creator>
   </cc:Work>
  </rdf:RDF>
 </metadata>
 <defs>
  <style type="text/css">*{stroke-linejoin: round; stroke-linecap: butt}</style>
 </defs>
 <g id="figure_1">
  <g id="patch_1">
   <path d="M 0 968.384896 
L 1000.0875 968.384896 
L 1000.0875 0 
L 0 0 
z
" style="fill: #ffffff"/>
  </g>
  <g id="axes_1">
   <g id="patch_2">
    <path d="M 136.8 376.363655 
L 500.713043 376.363655 
L 500.713043 14.798438 
L 136.8 14.798438 
z
" style="fill: #ffffff"/>
   </g>
   <g id="matplotlib.axis_1">
    <g id="xtick_1">
     <g id="line2d_1">
      <defs>
       <path id="mc17f6a7563" d="M 0 0 
L 0 3.5 
" style="stroke: #000000; stroke-width: 0.8"/>
      </defs>
      <g>
       <use xlink:href="#mc17f6a7563" x="136.8" y="376.363655" style="stroke: #000000; stroke-width: 0.8"/>
      </g>
     </g>
     <g id="text_1">
      <!-- Feb -->
      <g transform="translate(119.096875 405.06053) scale(0.2 -0.2)">
       <defs>
        <path id="DejaVuSans-46" d="M 628 4666 
L 3309 4666 
L 3309 4134 
L 1259 4134 
L 1259 2759 
L 3109 2759 
L 3109 2228 
L 1259 2228 
L 1259 0 
L 628 0 
L 628 4666 
z
" transform="scale(0.015625)"/>
        <path id="DejaVuSans-65" d="M 3597 1894 
L 3597 1613 
L 953 1613 
Q 991 1019 1311 708 
Q 1631 397 2203 397 
Q 2534 397 2845 478 
Q 3156 559 3463 722 
L 3463 178 
Q 3153 47 2828 -22 
Q 2503 -91 2169 -91 
Q 1331 -91 842 396 
Q 353 884 353 1716 
Q 353 2575 817 3079 
Q 1281 3584 2069 3584 
Q 2775 3584 3186 3129 
Q 3597 2675 3597 1894 
z
M 3022 2063 
Q 3016 2534 2758 2815 
Q 2500 3097 2075 3097 
Q 1594 3097 1305 2825 
Q 1016 2553 972 2059 
L 3022 2063 
z
" transform="scale(0.015625)"/>
        <path id="DejaVuSans-62" d="M 3116 1747 
Q 3116 2381 2855 2742 
Q 2594 3103 2138 3103 
Q 1681 3103 1420 2742 
Q 1159 2381 1159 1747 
Q 1159 1113 1420 752 
Q 1681 391 2138 391 
Q 2594 391 2855 752 
Q 3116 1113 3116 1747 
z
M 1159 2969 
Q 1341 3281 1617 3432 
Q 1894 3584 2278 3584 
Q 2916 3584 3314 3078 
Q 3713 2572 3713 1747 
Q 3713 922 3314 415 
Q 2916 -91 2278 -91 
Q 1894 -91 1617 61 
Q 1341 213 1159 525 
L 1159 0 
L 581 0 
L 581 4863 
L 1159 4863 
L 1159 2969 
z
" transform="scale(0.015625)"/>
       </defs>
       <use xlink:href="#DejaVuSans-46"/>
       <use xlink:href="#DejaVuSans-65" transform="translate(52.019531 0)"/>
       <use xlink:href="#DejaVuSans-62" transform="translate(113.542969 0)"/>
      </g>
     </g>
    </g>
    <g id="xtick_2">
     <g id="line2d_2">
      <g>
       <use xlink:href="#mc17f6a7563" x="309.504495" y="376.363655" style="stroke: #000000; stroke-width: 0.8"/>
      </g>
     </g>
     <g id="text_2">
      <!-- Mar -->
      <g transform="translate(290.637308 405.06053) scale(0.2 -0.2)">
       <defs>
        <path id="DejaVuSans-4d" d="M 628 4666 
L 1569 4666 
L 2759 1491 
L 3956 4666 
L 4897 4666 
L 4897 0 
L 4281 0 
L 4281 4097 
L 3078 897 
L 2444 897 
L 1241 4097 
L 1241 0 
L 628 0 
L 628 4666 
z
" transform="scale(0.015625)"/>
        <path id="DejaVuSans-61" d="M 2194 1759 
Q 1497 1759 1228 1600 
Q 959 1441 959 1056 
Q 959 750 1161 570 
Q 1363 391 1709 391 
Q 2188 391 2477 730 
Q 2766 1069 2766 1631 
L 2766 1759 
L 2194 1759 
z
M 3341 1997 
L 3341 0 
L 2766 0 
L 2766 531 
Q 2569 213 2275 61 
Q 1981 -91 1556 -91 
Q 1019 -91 701 211 
Q 384 513 384 1019 
Q 384 1609 779 1909 
Q 1175 2209 1959 2209 
L 2766 2209 
L 2766 2266 
Q 2766 2663 2505 2880 
Q 2244 3097 1772 3097 
Q 1472 3097 1187 3025 
Q 903 2953 641 2809 
L 641 3341 
Q 956 3463 1253 3523 
Q 1550 3584 1831 3584 
Q 2591 3584 2966 3190 
Q 3341 2797 3341 1997 
z
" transform="scale(0.015625)"/>
        <path id="DejaVuSans-72" d="M 2631 2963 
Q 2534 3019 2420 3045 
Q 2306 3072 2169 3072 
Q 1681 3072 1420 2755 
Q 1159 2438 1159 1844 
L 1159 0 
L 581 0 
L 581 3500 
L 1159 3500 
L 1159 2956 
Q 1341 3275 1631 3429 
Q 1922 3584 2338 3584 
Q 2397 3584 2469 3576 
Q 2541 3569 2628 3553 
L 2631 2963 
z
" transform="scale(0.015625)"/>
       </defs>
       <use xlink:href="#DejaVuSans-4d"/>
       <use xlink:href="#DejaVuSans-61" transform="translate(86.279297 0)"/>
       <use xlink:href="#DejaVuSans-72" transform="translate(147.558594 0)"/>
      </g>
     </g>
    </g>
    <g id="xtick_3">
     <g id="line2d_3">
      <g>
       <use xlink:href="#mc17f6a7563" x="500.713043" y="376.363655" style="stroke: #000000; stroke-width: 0.8"/>
      </g>
     </g>
     <g id="text_3">
      <!-- Apr -->
      <g transform="translate(483.413043 405.06053) scale(0.2 -0.2)">
       <defs>
        <path id="DejaVuSans-41" d="M 2188 4044 
L 1331 1722 
L 3047 1722 
L 2188 4044 
z
M 1831 4666 
L 2547 4666 
L 4325 0 
L 3669 0 
L 3244 1197 
L 1141 1197 
L 716 0 
L 50 0 
L 1831 4666 
z
" transform="scale(0.015625)"/>
        <path id="DejaVuSans-70" d="M 1159 525 
L 1159 -1331 
L 581 -1331 
L 581 3500 
L 1159 3500 
L 1159 2969 
Q 1341 3281 1617 3432 
Q 1894 3584 2278 3584 
Q 2916 3584 3314 3078 
Q 3713 2572 3713 1747 
Q 3713 922 3314 415 
Q 2916 -91 2278 -91 
Q 1894 -91 1617 61 
Q 1341 213 1159 525 
z
M 3116 1747 
Q 3116 2381 2855 2742 
Q 2594 3103 2138 3103 
Q 1681 3103 1420 2742 
Q 1159 2381 1159 1747 
Q 1159 1113 1420 752 
Q 1681 391 2138 391 
Q 2594 391 2855 752 
Q 3116 1113 3116 1747 
z
" transform="scale(0.015625)"/>
       </defs>
       <use xlink:href="#DejaVuSans-41"/>
       <use xlink:href="#DejaVuSans-70" transform="translate(68.408203 0)"/>
       <use xlink:href="#DejaVuSans-72" transform="translate(131.884766 0)"/>
      </g>
     </g>
    </g>
    <g id="text_4">
     <!-- Time -->
     <g transform="translate(294.289334 434.41678) scale(0.2 -0.2)">
      <defs>
       <path id="DejaVuSans-54" d="M -19 4666 
L 3928 4666 
L 3928 4134 
L 2272 4134 
L 2272 0 
L 1638 0 
L 1638 4134 
L -19 4134 
L -19 4666 
z
" transform="scale(0.015625)"/>
       <path id="DejaVuSans-69" d="M 603 3500 
L 1178 3500 
L 1178 0 
L 603 0 
L 603 3500 
z
M 603 4863 
L 1178 4863 
L 1178 4134 
L 603 4134 
L 603 4863 
z
" transform="scale(0.015625)"/>
       <path id="DejaVuSans-6d" d="M 3328 2828 
Q 3544 3216 3844 3400 
Q 4144 3584 4550 3584 
Q 5097 3584 5394 3201 
Q 5691 2819 5691 2113 
L 5691 0 
L 5113 0 
L 5113 2094 
Q 5113 2597 4934 2840 
Q 4756 3084 4391 3084 
Q 3944 3084 3684 2787 
Q 3425 2491 3425 1978 
L 3425 0 
L 2847 0 
L 2847 2094 
Q 2847 2600 2669 2842 
Q 2491 3084 2119 3084 
Q 1678 3084 1418 2786 
Q 1159 2488 1159 1978 
L 1159 0 
L 581 0 
L 581 3500 
L 1159 3500 
L 1159 2956 
Q 1356 3278 1631 3431 
Q 1906 3584 2284 3584 
Q 2666 3584 2933 3390 
Q 3200 3197 3328 2828 
z
" transform="scale(0.015625)"/>
      </defs>
      <use xlink:href="#DejaVuSans-54"/>
      <use xlink:href="#DejaVuSans-69" transform="translate(57.958984 0)"/>
      <use xlink:href="#DejaVuSans-6d" transform="translate(85.742188 0)"/>
      <use xlink:href="#DejaVuSans-65" transform="translate(183.154297 0)"/>
     </g>
    </g>
   </g>
   <g id="matplotlib.axis_2">
    <g id="ytick_1">
     <g id="line2d_4">
      <defs>
       <path id="md82febaf39" d="M 0 0 
L -3.5 0 
" style="stroke: #000000; stroke-width: 0.8"/>
      </defs>
      <g>
       <use xlink:href="#md82febaf39" x="136.8" y="376.363655" style="stroke: #000000; stroke-width: 0.8"/>
      </g>
     </g>
     <g id="text_5">
      <!-- 0 -->
      <g transform="translate(110.575 383.962092) scale(0.2 -0.2)">
       <defs>
        <path id="DejaVuSans-30" d="M 2034 4250 
Q 1547 4250 1301 3770 
Q 1056 3291 1056 2328 
Q 1056 1369 1301 889 
Q 1547 409 2034 409 
Q 2525 409 2770 889 
Q 3016 1369 3016 2328 
Q 3016 3291 2770 3770 
Q 2525 4250 2034 4250 
z
M 2034 4750 
Q 2819 4750 3233 4129 
Q 3647 3509 3647 2328 
Q 3647 1150 3233 529 
Q 2819 -91 2034 -91 
Q 1250 -91 836 529 
Q 422 1150 422 2328 
Q 422 3509 836 4129 
Q 1250 4750 2034 4750 
z
" transform="scale(0.015625)"/>
       </defs>
       <use xlink:href="#DejaVuSans-30"/>
      </g>
     </g>
    </g>
    <g id="ytick_2">
     <g id="line2d_5">
      <g>
       <use xlink:href="#md82febaf39" x="136.8" y="324.711481" style="stroke: #000000; stroke-width: 0.8"/>
      </g>
     </g>
     <g id="text_6">
      <!-- 1000 -->
      <g transform="translate(72.4 332.309918) scale(0.2 -0.2)">
       <defs>
        <path id="DejaVuSans-31" d="M 794 531 
L 1825 531 
L 1825 4091 
L 703 3866 
L 703 4441 
L 1819 4666 
L 2450 4666 
L 2450 531 
L 3481 531 
L 3481 0 
L 794 0 
L 794 531 
z
" transform="scale(0.015625)"/>
       </defs>
       <use xlink:href="#DejaVuSans-31"/>
       <use xlink:href="#DejaVuSans-30" transform="translate(63.623047 0)"/>
       <use xlink:href="#DejaVuSans-30" transform="translate(127.246094 0)"/>
       <use xlink:href="#DejaVuSans-30" transform="translate(190.869141 0)"/>
      </g>
     </g>
    </g>
    <g id="ytick_3">
     <g id="line2d_6">
      <g>
       <use xlink:href="#md82febaf39" x="136.8" y="273.059307" style="stroke: #000000; stroke-width: 0.8"/>
      </g>
     </g>
     <g id="text_7">
      <!-- 2000 -->
      <g transform="translate(72.4 280.657745) scale(0.2 -0.2)">
       <defs>
        <path id="DejaVuSans-32" d="M 1228 531 
L 3431 531 
L 3431 0 
L 469 0 
L 469 531 
Q 828 903 1448 1529 
Q 2069 2156 2228 2338 
Q 2531 2678 2651 2914 
Q 2772 3150 2772 3378 
Q 2772 3750 2511 3984 
Q 2250 4219 1831 4219 
Q 1534 4219 1204 4116 
Q 875 4013 500 3803 
L 500 4441 
Q 881 4594 1212 4672 
Q 1544 4750 1819 4750 
Q 2544 4750 2975 4387 
Q 3406 4025 3406 3419 
Q 3406 3131 3298 2873 
Q 3191 2616 2906 2266 
Q 2828 2175 2409 1742 
Q 1991 1309 1228 531 
z
" transform="scale(0.015625)"/>
       </defs>
       <use xlink:href="#DejaVuSans-32"/>
       <use xlink:href="#DejaVuSans-30" transform="translate(63.623047 0)"/>
       <use xlink:href="#DejaVuSans-30" transform="translate(127.246094 0)"/>
       <use xlink:href="#DejaVuSans-30" transform="translate(190.869141 0)"/>
      </g>
     </g>
    </g>
    <g id="ytick_4">
     <g id="line2d_7">
      <g>
       <use xlink:href="#md82febaf39" x="136.8" y="221.407133" style="stroke: #000000; stroke-width: 0.8"/>
      </g>
     </g>
     <g id="text_8">
      <!-- 3000 -->
      <g transform="translate(72.4 229.005571) scale(0.2 -0.2)">
       <defs>
        <path id="DejaVuSans-33" d="M 2597 2516 
Q 3050 2419 3304 2112 
Q 3559 1806 3559 1356 
Q 3559 666 3084 287 
Q 2609 -91 1734 -91 
Q 1441 -91 1130 -33 
Q 819 25 488 141 
L 488 750 
Q 750 597 1062 519 
Q 1375 441 1716 441 
Q 2309 441 2620 675 
Q 2931 909 2931 1356 
Q 2931 1769 2642 2001 
Q 2353 2234 1838 2234 
L 1294 2234 
L 1294 2753 
L 1863 2753 
Q 2328 2753 2575 2939 
Q 2822 3125 2822 3475 
Q 2822 3834 2567 4026 
Q 2313 4219 1838 4219 
Q 1578 4219 1281 4162 
Q 984 4106 628 3988 
L 628 4550 
Q 988 4650 1302 4700 
Q 1616 4750 1894 4750 
Q 2613 4750 3031 4423 
Q 3450 4097 3450 3541 
Q 3450 3153 3228 2886 
Q 3006 2619 2597 2516 
z
" transform="scale(0.015625)"/>
       </defs>
       <use xlink:href="#DejaVuSans-33"/>
       <use xlink:href="#DejaVuSans-30" transform="translate(63.623047 0)"/>
       <use xlink:href="#DejaVuSans-30" transform="translate(127.246094 0)"/>
       <use xlink:href="#DejaVuSans-30" transform="translate(190.869141 0)"/>
      </g>
     </g>
    </g>
    <g id="ytick_5">
     <g id="line2d_8">
      <g>
       <use xlink:href="#md82febaf39" x="136.8" y="169.754959" style="stroke: #000000; stroke-width: 0.8"/>
      </g>
     </g>
     <g id="text_9">
      <!-- 4000 -->
      <g transform="translate(72.4 177.353397) scale(0.2 -0.2)">
       <defs>
        <path id="DejaVuSans-34" d="M 2419 4116 
L 825 1625 
L 2419 1625 
L 2419 4116 
z
M 2253 4666 
L 3047 4666 
L 3047 1625 
L 3713 1625 
L 3713 1100 
L 3047 1100 
L 3047 0 
L 2419 0 
L 2419 1100 
L 313 1100 
L 313 1709 
L 2253 4666 
z
" transform="scale(0.015625)"/>
       </defs>
       <use xlink:href="#DejaVuSans-34"/>
       <use xlink:href="#DejaVuSans-30" transform="translate(63.623047 0)"/>
       <use xlink:href="#DejaVuSans-30" transform="translate(127.246094 0)"/>
       <use xlink:href="#DejaVuSans-30" transform="translate(190.869141 0)"/>
      </g>
     </g>
    </g>
    <g id="ytick_6">
     <g id="line2d_9">
      <g>
       <use xlink:href="#md82febaf39" x="136.8" y="118.102785" style="stroke: #000000; stroke-width: 0.8"/>
      </g>
     </g>
     <g id="text_10">
      <!-- 5000 -->
      <g transform="translate(72.4 125.701223) scale(0.2 -0.2)">
       <defs>
        <path id="DejaVuSans-35" d="M 691 4666 
L 3169 4666 
L 3169 4134 
L 1269 4134 
L 1269 2991 
Q 1406 3038 1543 3061 
Q 1681 3084 1819 3084 
Q 2600 3084 3056 2656 
Q 3513 2228 3513 1497 
Q 3513 744 3044 326 
Q 2575 -91 1722 -91 
Q 1428 -91 1123 -41 
Q 819 9 494 109 
L 494 744 
Q 775 591 1075 516 
Q 1375 441 1709 441 
Q 2250 441 2565 725 
Q 2881 1009 2881 1497 
Q 2881 1984 2565 2268 
Q 2250 2553 1709 2553 
Q 1456 2553 1204 2497 
Q 953 2441 691 2322 
L 691 4666 
z
" transform="scale(0.015625)"/>
       </defs>
       <use xlink:href="#DejaVuSans-35"/>
       <use xlink:href="#DejaVuSans-30" transform="translate(63.623047 0)"/>
       <use xlink:href="#DejaVuSans-30" transform="translate(127.246094 0)"/>
       <use xlink:href="#DejaVuSans-30" transform="translate(190.869141 0)"/>
      </g>
     </g>
    </g>
    <g id="ytick_7">
     <g id="line2d_10">
      <g>
       <use xlink:href="#md82febaf39" x="136.8" y="66.450611" style="stroke: #000000; stroke-width: 0.8"/>
      </g>
     </g>
     <g id="text_11">
      <!-- 6000 -->
      <g transform="translate(72.4 74.049049) scale(0.2 -0.2)">
       <defs>
        <path id="DejaVuSans-36" d="M 2113 2584 
Q 1688 2584 1439 2293 
Q 1191 2003 1191 1497 
Q 1191 994 1439 701 
Q 1688 409 2113 409 
Q 2538 409 2786 701 
Q 3034 994 3034 1497 
Q 3034 2003 2786 2293 
Q 2538 2584 2113 2584 
z
M 3366 4563 
L 3366 3988 
Q 3128 4100 2886 4159 
Q 2644 4219 2406 4219 
Q 1781 4219 1451 3797 
Q 1122 3375 1075 2522 
Q 1259 2794 1537 2939 
Q 1816 3084 2150 3084 
Q 2853 3084 3261 2657 
Q 3669 2231 3669 1497 
Q 3669 778 3244 343 
Q 2819 -91 2113 -91 
Q 1303 -91 875 529 
Q 447 1150 447 2328 
Q 447 3434 972 4092 
Q 1497 4750 2381 4750 
Q 2619 4750 2861 4703 
Q 3103 4656 3366 4563 
z
" transform="scale(0.015625)"/>
       </defs>
       <use xlink:href="#DejaVuSans-36"/>
       <use xlink:href="#DejaVuSans-30" transform="translate(63.623047 0)"/>
       <use xlink:href="#DejaVuSans-30" transform="translate(127.246094 0)"/>
       <use xlink:href="#DejaVuSans-30" transform="translate(190.869141 0)"/>
      </g>
     </g>
    </g>
    <g id="ytick_8">
     <g id="line2d_11">
      <g>
       <use xlink:href="#md82febaf39" x="136.8" y="14.798438" style="stroke: #000000; stroke-width: 0.8"/>
      </g>
     </g>
     <g id="text_12">
      <!-- 7000 -->
      <g transform="translate(72.4 22.396875) scale(0.2 -0.2)">
       <defs>
        <path id="DejaVuSans-37" d="M 525 4666 
L 3525 4666 
L 3525 4397 
L 1831 0 
L 1172 0 
L 2766 4134 
L 525 4134 
L 525 4666 
z
" transform="scale(0.015625)"/>
       </defs>
       <use xlink:href="#DejaVuSans-37"/>
       <use xlink:href="#DejaVuSans-30" transform="translate(63.623047 0)"/>
       <use xlink:href="#DejaVuSans-30" transform="translate(127.246094 0)"/>
       <use xlink:href="#DejaVuSans-30" transform="translate(190.869141 0)"/>
      </g>
     </g>
    </g>
    <g id="text_13">
     <!-- Count -->
     <g transform="translate(58.240625 225.277921) rotate(-90) scale(0.2 -0.2)">
      <defs>
       <path id="DejaVuSans-43" d="M 4122 4306 
L 4122 3641 
Q 3803 3938 3442 4084 
Q 3081 4231 2675 4231 
Q 1875 4231 1450 3742 
Q 1025 3253 1025 2328 
Q 1025 1406 1450 917 
Q 1875 428 2675 428 
Q 3081 428 3442 575 
Q 3803 722 4122 1019 
L 4122 359 
Q 3791 134 3420 21 
Q 3050 -91 2638 -91 
Q 1578 -91 968 557 
Q 359 1206 359 2328 
Q 359 3453 968 4101 
Q 1578 4750 2638 4750 
Q 3056 4750 3426 4639 
Q 3797 4528 4122 4306 
z
" transform="scale(0.015625)"/>
       <path id="DejaVuSans-6f" d="M 1959 3097 
Q 1497 3097 1228 2736 
Q 959 2375 959 1747 
Q 959 1119 1226 758 
Q 1494 397 1959 397 
Q 2419 397 2687 759 
Q 2956 1122 2956 1747 
Q 2956 2369 2687 2733 
Q 2419 3097 1959 3097 
z
M 1959 3584 
Q 2709 3584 3137 3096 
Q 3566 2609 3566 1747 
Q 3566 888 3137 398 
Q 2709 -91 1959 -91 
Q 1206 -91 779 398 
Q 353 888 353 1747 
Q 353 2609 779 3096 
Q 1206 3584 1959 3584 
z
" transform="scale(0.015625)"/>
       <path id="DejaVuSans-75" d="M 544 1381 
L 544 3500 
L 1119 3500 
L 1119 1403 
Q 1119 906 1312 657 
Q 1506 409 1894 409 
Q 2359 409 2629 706 
Q 2900 1003 2900 1516 
L 2900 3500 
L 3475 3500 
L 3475 0 
L 2900 0 
L 2900 538 
Q 2691 219 2414 64 
Q 2138 -91 1772 -91 
Q 1169 -91 856 284 
Q 544 659 544 1381 
z
M 1991 3584 
L 1991 3584 
z
" transform="scale(0.015625)"/>
       <path id="DejaVuSans-6e" d="M 3513 2113 
L 3513 0 
L 2938 0 
L 2938 2094 
Q 2938 2591 2744 2837 
Q 2550 3084 2163 3084 
Q 1697 3084 1428 2787 
Q 1159 2491 1159 1978 
L 1159 0 
L 581 0 
L 581 3500 
L 1159 3500 
L 1159 2956 
Q 1366 3272 1645 3428 
Q 1925 3584 2291 3584 
Q 2894 3584 3203 3211 
Q 3513 2838 3513 2113 
z
" transform="scale(0.015625)"/>
       <path id="DejaVuSans-74" d="M 1172 4494 
L 1172 3500 
L 2356 3500 
L 2356 3053 
L 1172 3053 
L 1172 1153 
Q 1172 725 1289 603 
Q 1406 481 1766 481 
L 2356 481 
L 2356 0 
L 1766 0 
Q 1100 0 847 248 
Q 594 497 594 1153 
L 594 3053 
L 172 3053 
L 172 3500 
L 594 3500 
L 594 4494 
L 1172 4494 
z
" transform="scale(0.015625)"/>
      </defs>
      <use xlink:href="#DejaVuSans-43"/>
      <use xlink:href="#DejaVuSans-6f" transform="translate(69.824219 0)"/>
      <use xlink:href="#DejaVuSans-75" transform="translate(131.005859 0)"/>
      <use xlink:href="#DejaVuSans-6e" transform="translate(194.384766 0)"/>
      <use xlink:href="#DejaVuSans-74" transform="translate(257.763672 0)"/>
     </g>
    </g>
   </g>
   <g id="line2d_12">
    <path d="M 166.052378 354.61809 
L 166.466889 354.566438 
L 166.619379 354.463133 
L 170.206256 354.359829 
L 170.66735 354.204872 
L 173.015742 354.101568 
L 173.469139 353.998264 
L 176.893832 353.894959 
L 178.678773 353.585046 
L 178.951567 353.326785 
L 179.402106 353.275133 
L 179.47499 353.120177 
L 179.940978 353.068524 
L 181.050959 353.016872 
L 184.428219 352.552003 
L 184.678169 352.293742 
L 184.853959 352.24209 
L 185.108186 264.949916 
L 185.339753 227.966959 
L 185.684262 211.59322 
L 185.967552 205.033394 
L 186.101243 203.070611 
L 186.396706 200.694611 
L 187.854731 196.045916 
L 189.127794 188.091481 
L 189.260816 187.678264 
L 190.176982 182.874611 
L 190.926272 177.037916 
L 191.399484 173.112351 
L 192.039597 169.909916 
L 192.274494 169.393394 
L 192.598459 169.031829 
L 193.789514 168.205394 
L 194.51757 167.740524 
L 195.042658 166.862438 
L 195.28566 166.552524 
L 196.573348 163.35009 
L 197.109653 161.232351 
L 197.587566 159.631133 
L 198.063249 158.081568 
L 198.244721 157.874959 
L 198.448632 157.461742 
L 198.814722 157.203481 
L 200.676766 156.94522 
L 201.18572 156.377046 
L 201.600821 156.067133 
L 202.270597 155.03409 
L 202.528092 154.620872 
L 203.294295 152.968003 
L 203.727391 152.296524 
L 203.917694 152.19322 
L 204.208229 151.573394 
L 204.635841 150.901916 
L 206.346126 150.850264 
L 207.235972 150.385394 
L 208.232727 149.713916 
L 209.788322 148.009394 
L 210.130997 147.44122 
L 210.740164 147.079655 
L 212.90654 146.408177 
L 213.129367 146.201568 
L 213.383246 146.149916 
L 213.825217 145.891655 
L 214.356676 145.840003 
L 214.955095 145.426785 
L 215.413553 144.755307 
L 215.819559 144.600351 
L 216.191202 144.187133 
L 216.483558 144.135481 
L 216.806145 143.773916 
L 216.937231 143.670611 
L 219.392338 143.15409 
L 220.068344 142.68922 
L 220.568138 142.482611 
L 220.925016 142.017742 
L 220.925016 142.017742 
" clip-path="url(#p8f010e9c47)" style="fill: none; stroke: #005953; stroke-width: 2; stroke-linecap: square"/>
   </g>
   <g id="line2d_13">
    <path d="M 166.052378 375.433916 
L 166.619379 375.330611 
L 166.94182 375.227307 
L 170.206256 375.227307 
L 170.457753 373.522785 
L 172.015099 373.522785 
L 172.359846 372.541394 
L 173.015742 372.541394 
L 173.151736 372.283133 
L 178.678773 372.283133 
L 178.909382 370.940177 
L 183.063831 370.836872 
L 183.565858 370.06209 
L 183.887323 369.958785 
L 184.428219 369.907133 
L 184.678169 369.700524 
L 185.073159 369.59722 
L 185.321662 369.59722 
L 185.435319 369.338959 
L 185.684262 369.029046 
L 185.851484 368.150959 
L 187.12944 368.150959 
L 187.52204 367.892698 
L 187.854731 367.841046 
L 188.350107 366.394785 
L 188.628586 365.516698 
L 188.88562 365.413394 
L 189.260816 364.225394 
L 189.678046 363.347307 
L 190.176982 356.477568 
L 191.241474 332.04609 
L 191.399484 331.271307 
L 191.829009 325.382959 
L 192.039597 324.091655 
L 192.274494 323.368524 
L 193.366943 323.368524 
L 193.789514 321.35409 
L 194.06847 312.728177 
L 194.51757 312.728177 
L 194.795616 311.591829 
L 195.042658 311.591829 
L 195.28566 309.680698 
L 196.241534 307.201394 
L 196.573348 305.806785 
L 196.850996 304.825394 
L 197.109653 304.825394 
L 197.387315 302.759307 
L 197.587566 287.263655 
L 197.821544 286.488872 
L 198.448632 285.610785 
L 199.529735 285.610785 
L 199.950868 285.042611 
L 201.18572 285.042611 
L 201.600821 283.493046 
L 202.027339 282.769916 
L 202.270597 282.614959 
L 202.528092 282.614959 
L 202.797489 281.272003 
L 203.048463 281.168698 
L 203.563437 279.722438 
L 203.727391 273.989046 
L 204.208229 272.801046 
L 206.607345 272.801046 
L 206.739802 271.406438 
L 207.491247 271.096524 
L 207.895768 270.631655 
L 208.519356 270.011829 
L 208.781762 270.011829 
L 209.07662 269.08209 
L 209.326639 268.772177 
L 209.664423 267.997394 
L 209.788322 267.997394 
L 209.999462 262.935481 
L 210.130997 262.67722 
L 210.409421 262.67722 
L 210.546881 262.109046 
L 210.740164 261.902438 
L 211.073306 261.799133 
L 212.743815 261.799133 
L 212.90654 261.127655 
L 213.383246 260.714438 
L 213.635904 260.662785 
L 213.825217 260.404524 
L 214.017506 260.352872 
L 214.777194 259.319829 
L 214.955095 259.216524 
L 215.198288 258.545046 
L 215.591196 258.080177 
L 215.819559 257.976872 
L 216.191202 257.357046 
L 216.340985 254.102959 
L 216.937231 253.534785 
L 217.218041 253.431481 
L 218.976088 253.431481 
L 219.109182 252.914959 
L 219.267587 252.914959 
L 219.609466 252.605046 
L 220.068344 252.605046 
L 220.568138 251.881916 
L 220.925016 251.881916 
L 220.925016 251.881916 
" clip-path="url(#p8f010e9c47)" style="fill: none; stroke: #69a3a2; stroke-width: 2; stroke-linecap: square"/>
   </g>
   <g id="LineCollection_1">
    <path clip-path="url(#p8f010e9c47)" style="fill: none; stroke: #d3d3d3; stroke-width: 0.5"/>
    <path clip-path="url(#p8f010e9c47)" style="fill: none; stroke: #d3d3d3; stroke-width: 0.5"/>
    <path clip-path="url(#p8f010e9c47)" style="fill: none; stroke: #d3d3d3; stroke-width: 0.5"/>
    <path clip-path="url(#p8f010e9c47)" style="fill: none; stroke: #d3d3d3; stroke-width: 0.5"/>
    <path clip-path="url(#p8f010e9c47)" style="fill: none; stroke: #d3d3d3; stroke-width: 0.5"/>
    <path clip-path="url(#p8f010e9c47)" style="fill: none; stroke: #d3d3d3; stroke-width: 0.5"/>
    <path clip-path="url(#p8f010e9c47)" style="fill: none; stroke: #d3d3d3; stroke-width: 0.5"/>
    <path clip-path="url(#p8f010e9c47)" style="fill: none; stroke: #d3d3d3; stroke-width: 0.5"/>
    <path clip-path="url(#p8f010e9c47)" style="fill: none; stroke: #d3d3d3; stroke-width: 0.5"/>
    <path clip-path="url(#p8f010e9c47)" style="fill: none; stroke: #d3d3d3; stroke-width: 0.5"/>
    <path clip-path="url(#p8f010e9c47)" style="fill: none; stroke: #d3d3d3; stroke-width: 0.5"/>
    <path clip-path="url(#p8f010e9c47)" style="fill: none; stroke: #d3d3d3; stroke-width: 0.5"/>
    <path clip-path="url(#p8f010e9c47)" style="fill: none; stroke: #d3d3d3; stroke-width: 0.5"/>
    <path clip-path="url(#p8f010e9c47)" style="fill: none; stroke: #d3d3d3; stroke-width: 0.5"/>
    <path clip-path="url(#p8f010e9c47)" style="fill: none; stroke: #d3d3d3; stroke-width: 0.5"/>
    <path clip-path="url(#p8f010e9c47)" style="fill: none; stroke: #d3d3d3; stroke-width: 0.5"/>
    <path clip-path="url(#p8f010e9c47)" style="fill: none; stroke: #d3d3d3; stroke-width: 0.5"/>
    <path clip-path="url(#p8f010e9c47)" style="fill: none; stroke: #d3d3d3; stroke-width: 0.5"/>
    <path clip-path="url(#p8f010e9c47)" style="fill: none; stroke: #d3d3d3; stroke-width: 0.5"/>
    <path clip-path="url(#p8f010e9c47)" style="fill: none; stroke: #d3d3d3; stroke-width: 0.5"/>
    <path clip-path="url(#p8f010e9c47)" style="fill: none; stroke: #d3d3d3; stroke-width: 0.5"/>
    <path clip-path="url(#p8f010e9c47)" style="fill: none; stroke: #d3d3d3; stroke-width: 0.5"/>
    <path clip-path="url(#p8f010e9c47)" style="fill: none; stroke: #d3d3d3; stroke-width: 0.5"/>
    <path clip-path="url(#p8f010e9c47)" style="fill: none; stroke: #d3d3d3; stroke-width: 0.5"/>
    <path clip-path="url(#p8f010e9c47)" style="fill: none; stroke: #d3d3d3; stroke-width: 0.5"/>
    <path clip-path="url(#p8f010e9c47)" style="fill: none; stroke: #d3d3d3; stroke-width: 0.5"/>
    <path clip-path="url(#p8f010e9c47)" style="fill: none; stroke: #d3d3d3; stroke-width: 0.5"/>
    <path clip-path="url(#p8f010e9c47)" style="fill: none; stroke: #d3d3d3; stroke-width: 0.5"/>
    <path clip-path="url(#p8f010e9c47)" style="fill: none; stroke: #d3d3d3; stroke-width: 0.5"/>
    <path clip-path="url(#p8f010e9c47)" style="fill: none; stroke: #d3d3d3; stroke-width: 0.5"/>
    <path clip-path="url(#p8f010e9c47)" style="fill: none; stroke: #d3d3d3; stroke-width: 0.5"/>
    <path clip-path="url(#p8f010e9c47)" style="fill: none; stroke: #d3d3d3; stroke-width: 0.5"/>
    <path clip-path="url(#p8f010e9c47)" style="fill: none; stroke: #d3d3d3; stroke-width: 0.5"/>
    <path clip-path="url(#p8f010e9c47)" style="fill: none; stroke: #d3d3d3; stroke-width: 0.5"/>
    <path clip-path="url(#p8f010e9c47)" style="fill: none; stroke: #d3d3d3; stroke-width: 0.5"/>
    <path clip-path="url(#p8f010e9c47)" style="fill: none; stroke: #d3d3d3; stroke-width: 0.5"/>
    <path clip-path="url(#p8f010e9c47)" style="fill: none; stroke: #d3d3d3; stroke-width: 0.5"/>
    <path clip-path="url(#p8f010e9c47)" style="fill: none; stroke: #d3d3d3; stroke-width: 0.5"/>
    <path clip-path="url(#p8f010e9c47)" style="fill: none; stroke: #d3d3d3; stroke-width: 0.5"/>
    <path clip-path="url(#p8f010e9c47)" style="fill: none; stroke: #d3d3d3; stroke-width: 0.5"/>
    <path clip-path="url(#p8f010e9c47)" style="fill: none; stroke: #d3d3d3; stroke-width: 0.5"/>
    <path clip-path="url(#p8f010e9c47)" style="fill: none; stroke: #d3d3d3; stroke-width: 0.5"/>
    <path clip-path="url(#p8f010e9c47)" style="fill: none; stroke: #d3d3d3; stroke-width: 0.5"/>
    <path clip-path="url(#p8f010e9c47)" style="fill: none; stroke: #d3d3d3; stroke-width: 0.5"/>
    <path clip-path="url(#p8f010e9c47)" style="fill: none; stroke: #d3d3d3; stroke-width: 0.5"/>
    <path clip-path="url(#p8f010e9c47)" style="fill: none; stroke: #d3d3d3; stroke-width: 0.5"/>
    <path clip-path="url(#p8f010e9c47)" style="fill: none; stroke: #d3d3d3; stroke-width: 0.5"/>
    <path clip-path="url(#p8f010e9c47)" style="fill: none; stroke: #d3d3d3; stroke-width: 0.5"/>
    <path clip-path="url(#p8f010e9c47)" style="fill: none; stroke: #d3d3d3; stroke-width: 0.5"/>
    <path clip-path="url(#p8f010e9c47)" style="fill: none; stroke: #d3d3d3; stroke-width: 0.5"/>
   </g>
   <g id="patch_3">
    <path d="M 136.8 376.363655 
L 136.8 14.798438 
" style="fill: none; stroke: #000000; stroke-width: 0.8; stroke-linejoin: miter; stroke-linecap: square"/>
   </g>
   <g id="patch_4">
    <path d="M 500.713043 376.363655 
L 500.713043 14.798438 
" style="fill: none; stroke: #000000; stroke-width: 0.8; stroke-linejoin: miter; stroke-linecap: square"/>
   </g>
   <g id="patch_5">
    <path d="M 136.8 376.363655 
L 500.713043 376.363655 
" style="fill: none; stroke: #000000; stroke-width: 0.8; stroke-linejoin: miter; stroke-linecap: square"/>
   </g>
   <g id="patch_6">
    <path d="M 136.8 14.798438 
L 500.713043 14.798438 
" style="fill: none; stroke: #000000; stroke-width: 0.8; stroke-linejoin: miter; stroke-linecap: square"/>
   </g>
   <g id="text_14">
    <!-- 4490 total regs, out of which 2410 paid at least partially. -->
    <g transform="translate(138.619565 374.555829) scale(0.066667 -0.066667)">
     <defs>
      <path id="DejaVuSans-39" d="M 703 97 
L 703 672 
Q 941 559 1184 500 
Q 1428 441 1663 441 
Q 2288 441 2617 861 
Q 2947 1281 2994 2138 
Q 2813 1869 2534 1725 
Q 2256 1581 1919 1581 
Q 1219 1581 811 2004 
Q 403 2428 403 3163 
Q 403 3881 828 4315 
Q 1253 4750 1959 4750 
Q 2769 4750 3195 4129 
Q 3622 3509 3622 2328 
Q 3622 1225 3098 567 
Q 2575 -91 1691 -91 
Q 1453 -91 1209 -44 
Q 966 3 703 97 
z
M 1959 2075 
Q 2384 2075 2632 2365 
Q 2881 2656 2881 3163 
Q 2881 3666 2632 3958 
Q 2384 4250 1959 4250 
Q 1534 4250 1286 3958 
Q 1038 3666 1038 3163 
Q 1038 2656 1286 2365 
Q 1534 2075 1959 2075 
z
" transform="scale(0.015625)"/>
      <path id="DejaVuSans-20" transform="scale(0.015625)"/>
      <path id="DejaVuSans-6c" d="M 603 4863 
L 1178 4863 
L 1178 0 
L 603 0 
L 603 4863 
z
" transform="scale(0.015625)"/>
      <path id="DejaVuSans-67" d="M 2906 1791 
Q 2906 2416 2648 2759 
Q 2391 3103 1925 3103 
Q 1463 3103 1205 2759 
Q 947 2416 947 1791 
Q 947 1169 1205 825 
Q 1463 481 1925 481 
Q 2391 481 2648 825 
Q 2906 1169 2906 1791 
z
M 3481 434 
Q 3481 -459 3084 -895 
Q 2688 -1331 1869 -1331 
Q 1566 -1331 1297 -1286 
Q 1028 -1241 775 -1147 
L 775 -588 
Q 1028 -725 1275 -790 
Q 1522 -856 1778 -856 
Q 2344 -856 2625 -561 
Q 2906 -266 2906 331 
L 2906 616 
Q 2728 306 2450 153 
Q 2172 0 1784 0 
Q 1141 0 747 490 
Q 353 981 353 1791 
Q 353 2603 747 3093 
Q 1141 3584 1784 3584 
Q 2172 3584 2450 3431 
Q 2728 3278 2906 2969 
L 2906 3500 
L 3481 3500 
L 3481 434 
z
" transform="scale(0.015625)"/>
      <path id="DejaVuSans-73" d="M 2834 3397 
L 2834 2853 
Q 2591 2978 2328 3040 
Q 2066 3103 1784 3103 
Q 1356 3103 1142 2972 
Q 928 2841 928 2578 
Q 928 2378 1081 2264 
Q 1234 2150 1697 2047 
L 1894 2003 
Q 2506 1872 2764 1633 
Q 3022 1394 3022 966 
Q 3022 478 2636 193 
Q 2250 -91 1575 -91 
Q 1294 -91 989 -36 
Q 684 19 347 128 
L 347 722 
Q 666 556 975 473 
Q 1284 391 1588 391 
Q 1994 391 2212 530 
Q 2431 669 2431 922 
Q 2431 1156 2273 1281 
Q 2116 1406 1581 1522 
L 1381 1569 
Q 847 1681 609 1914 
Q 372 2147 372 2553 
Q 372 3047 722 3315 
Q 1072 3584 1716 3584 
Q 2034 3584 2315 3537 
Q 2597 3491 2834 3397 
z
" transform="scale(0.015625)"/>
      <path id="DejaVuSans-2c" d="M 750 794 
L 1409 794 
L 1409 256 
L 897 -744 
L 494 -744 
L 750 256 
L 750 794 
z
" transform="scale(0.015625)"/>
      <path id="DejaVuSans-66" d="M 2375 4863 
L 2375 4384 
L 1825 4384 
Q 1516 4384 1395 4259 
Q 1275 4134 1275 3809 
L 1275 3500 
L 2222 3500 
L 2222 3053 
L 1275 3053 
L 1275 0 
L 697 0 
L 697 3053 
L 147 3053 
L 147 3500 
L 697 3500 
L 697 3744 
Q 697 4328 969 4595 
Q 1241 4863 1831 4863 
L 2375 4863 
z
" transform="scale(0.015625)"/>
      <path id="DejaVuSans-77" d="M 269 3500 
L 844 3500 
L 1563 769 
L 2278 3500 
L 2956 3500 
L 3675 769 
L 4391 3500 
L 4966 3500 
L 4050 0 
L 3372 0 
L 2619 2869 
L 1863 0 
L 1184 0 
L 269 3500 
z
" transform="scale(0.015625)"/>
      <path id="DejaVuSans-68" d="M 3513 2113 
L 3513 0 
L 2938 0 
L 2938 2094 
Q 2938 2591 2744 2837 
Q 2550 3084 2163 3084 
Q 1697 3084 1428 2787 
Q 1159 2491 1159 1978 
L 1159 0 
L 581 0 
L 581 4863 
L 1159 4863 
L 1159 2956 
Q 1366 3272 1645 3428 
Q 1925 3584 2291 3584 
Q 2894 3584 3203 3211 
Q 3513 2838 3513 2113 
z
" transform="scale(0.015625)"/>
      <path id="DejaVuSans-63" d="M 3122 3366 
L 3122 2828 
Q 2878 2963 2633 3030 
Q 2388 3097 2138 3097 
Q 1578 3097 1268 2742 
Q 959 2388 959 1747 
Q 959 1106 1268 751 
Q 1578 397 2138 397 
Q 2388 397 2633 464 
Q 2878 531 3122 666 
L 3122 134 
Q 2881 22 2623 -34 
Q 2366 -91 2075 -91 
Q 1284 -91 818 406 
Q 353 903 353 1747 
Q 353 2603 823 3093 
Q 1294 3584 2113 3584 
Q 2378 3584 2631 3529 
Q 2884 3475 3122 3366 
z
" transform="scale(0.015625)"/>
      <path id="DejaVuSans-64" d="M 2906 2969 
L 2906 4863 
L 3481 4863 
L 3481 0 
L 2906 0 
L 2906 525 
Q 2725 213 2448 61 
Q 2172 -91 1784 -91 
Q 1150 -91 751 415 
Q 353 922 353 1747 
Q 353 2572 751 3078 
Q 1150 3584 1784 3584 
Q 2172 3584 2448 3432 
Q 2725 3281 2906 2969 
z
M 947 1747 
Q 947 1113 1208 752 
Q 1469 391 1925 391 
Q 2381 391 2643 752 
Q 2906 1113 2906 1747 
Q 2906 2381 2643 2742 
Q 2381 3103 1925 3103 
Q 1469 3103 1208 2742 
Q 947 2381 947 1747 
z
" transform="scale(0.015625)"/>
      <path id="DejaVuSans-79" d="M 2059 -325 
Q 1816 -950 1584 -1140 
Q 1353 -1331 966 -1331 
L 506 -1331 
L 506 -850 
L 844 -850 
Q 1081 -850 1212 -737 
Q 1344 -625 1503 -206 
L 1606 56 
L 191 3500 
L 800 3500 
L 1894 763 
L 2988 3500 
L 3597 3500 
L 2059 -325 
z
" transform="scale(0.015625)"/>
      <path id="DejaVuSans-2e" d="M 684 794 
L 1344 794 
L 1344 0 
L 684 0 
L 684 794 
z
" transform="scale(0.015625)"/>
     </defs>
     <use xlink:href="#DejaVuSans-34"/>
     <use xlink:href="#DejaVuSans-34" transform="translate(63.623047 0)"/>
     <use xlink:href="#DejaVuSans-39" transform="translate(127.246094 0)"/>
     <use xlink:href="#DejaVuSans-30" transform="translate(190.869141 0)"/>
     <use xlink:href="#DejaVuSans-20" transform="translate(254.492188 0)"/>
     <use xlink:href="#DejaVuSans-74" transform="translate(286.279297 0)"/>
     <use xlink:href="#DejaVuSans-6f" transform="translate(325.488281 0)"/>
     <use xlink:href="#DejaVuSans-74" transform="translate(386.669922 0)"/>
     <use xlink:href="#DejaVuSans-61" transform="translate(425.878906 0)"/>
     <use xlink:href="#DejaVuSans-6c" transform="translate(487.158203 0)"/>
     <use xlink:href="#DejaVuSans-20" transform="translate(514.941406 0)"/>
     <use xlink:href="#DejaVuSans-72" transform="translate(546.728516 0)"/>
     <use xlink:href="#DejaVuSans-65" transform="translate(585.591797 0)"/>
     <use xlink:href="#DejaVuSans-67" transform="translate(647.115234 0)"/>
     <use xlink:href="#DejaVuSans-73" transform="translate(710.591797 0)"/>
     <use xlink:href="#DejaVuSans-2c" transform="translate(762.691406 0)"/>
     <use xlink:href="#DejaVuSans-20" transform="translate(794.478516 0)"/>
     <use xlink:href="#DejaVuSans-6f" transform="translate(826.265625 0)"/>
     <use xlink:href="#DejaVuSans-75" transform="translate(887.447266 0)"/>
     <use xlink:href="#DejaVuSans-74" transform="translate(950.826172 0)"/>
     <use xlink:href="#DejaVuSans-20" transform="translate(990.035156 0)"/>
     <use xlink:href="#DejaVuSans-6f" transform="translate(1021.822266 0)"/>
     <use xlink:href="#DejaVuSans-66" transform="translate(1083.003906 0)"/>
     <use xlink:href="#DejaVuSans-20" transform="translate(1118.208984 0)"/>
     <use xlink:href="#DejaVuSans-77" transform="translate(1149.996094 0)"/>
     <use xlink:href="#DejaVuSans-68" transform="translate(1231.783203 0)"/>
     <use xlink:href="#DejaVuSans-69" transform="translate(1295.162109 0)"/>
     <use xlink:href="#DejaVuSans-63" transform="translate(1322.945312 0)"/>
     <use xlink:href="#DejaVuSans-68" transform="translate(1377.925781 0)"/>
     <use xlink:href="#DejaVuSans-20" transform="translate(1441.304688 0)"/>
     <use xlink:href="#DejaVuSans-32" transform="translate(1473.091797 0)"/>
     <use xlink:href="#DejaVuSans-34" transform="translate(1536.714844 0)"/>
     <use xlink:href="#DejaVuSans-31" transform="translate(1600.337891 0)"/>
     <use xlink:href="#DejaVuSans-30" transform="translate(1663.960938 0)"/>
     <use xlink:href="#DejaVuSans-20" transform="translate(1727.583984 0)"/>
     <use xlink:href="#DejaVuSans-70" transform="translate(1759.371094 0)"/>
     <use xlink:href="#DejaVuSans-61" transform="translate(1822.847656 0)"/>
     <use xlink:href="#DejaVuSans-69" transform="translate(1884.126953 0)"/>
     <use xlink:href="#DejaVuSans-64" transform="translate(1911.910156 0)"/>
     <use xlink:href="#DejaVuSans-20" transform="translate(1975.386719 0)"/>
     <use xlink:href="#DejaVuSans-61" transform="translate(2007.173828 0)"/>
     <use xlink:href="#DejaVuSans-74" transform="translate(2068.453125 0)"/>
     <use xlink:href="#DejaVuSans-20" transform="translate(2107.662109 0)"/>
     <use xlink:href="#DejaVuSans-6c" transform="translate(2139.449219 0)"/>
     <use xlink:href="#DejaVuSans-65" transform="translate(2167.232422 0)"/>
     <use xlink:href="#DejaVuSans-61" transform="translate(2228.755859 0)"/>
     <use xlink:href="#DejaVuSans-73" transform="translate(2290.035156 0)"/>
     <use xlink:href="#DejaVuSans-74" transform="translate(2342.134766 0)"/>
     <use xlink:href="#DejaVuSans-20" transform="translate(2381.34375 0)"/>
     <use xlink:href="#DejaVuSans-70" transform="translate(2413.130859 0)"/>
     <use xlink:href="#DejaVuSans-61" transform="translate(2476.607422 0)"/>
     <use xlink:href="#DejaVuSans-72" transform="translate(2537.886719 0)"/>
     <use xlink:href="#DejaVuSans-74" transform="translate(2579 0)"/>
     <use xlink:href="#DejaVuSans-69" transform="translate(2618.208984 0)"/>
     <use xlink:href="#DejaVuSans-61" transform="translate(2645.992188 0)"/>
     <use xlink:href="#DejaVuSans-6c" transform="translate(2707.271484 0)"/>
     <use xlink:href="#DejaVuSans-6c" transform="translate(2735.054688 0)"/>
     <use xlink:href="#DejaVuSans-79" transform="translate(2762.837891 0)"/>
     <use xlink:href="#DejaVuSans-2e" transform="translate(2807.767578 0)"/>
    </g>
   </g>
   <g id="legend_1">
    <g id="line2d_14">
     <path d="M 178.42449 34.446094 
L 193.42449 34.446094 
L 208.42449 34.446094 
" style="fill: none; stroke: #005953; stroke-width: 2; stroke-linecap: square"/>
    </g>
    <g id="text_15">
     <!-- Total -->
     <g transform="translate(220.42449 39.696094) scale(0.15 -0.15)">
      <use xlink:href="#DejaVuSans-54"/>
      <use xlink:href="#DejaVuSans-6f" transform="translate(44.083984 0)"/>
      <use xlink:href="#DejaVuSans-74" transform="translate(105.265625 0)"/>
      <use xlink:href="#DejaVuSans-61" transform="translate(144.474609 0)"/>
      <use xlink:href="#DejaVuSans-6c" transform="translate(205.753906 0)"/>
     </g>
    </g>
    <g id="line2d_15">
     <path d="M 285.454178 34.446094 
L 300.454178 34.446094 
L 315.454178 34.446094 
" style="fill: none; stroke: #69a3a2; stroke-width: 2; stroke-linecap: square"/>
    </g>
    <g id="text_16">
     <!-- Paid (incl. partial) -->
     <g transform="translate(327.454178 39.696094) scale(0.15 -0.15)">
      <defs>
       <path id="DejaVuSans-50" d="M 1259 4147 
L 1259 2394 
L 2053 2394 
Q 2494 2394 2734 2622 
Q 2975 2850 2975 3272 
Q 2975 3691 2734 3919 
Q 2494 4147 2053 4147 
L 1259 4147 
z
M 628 4666 
L 2053 4666 
Q 2838 4666 3239 4311 
Q 3641 3956 3641 3272 
Q 3641 2581 3239 2228 
Q 2838 1875 2053 1875 
L 1259 1875 
L 1259 0 
L 628 0 
L 628 4666 
z
" transform="scale(0.015625)"/>
       <path id="DejaVuSans-28" d="M 1984 4856 
Q 1566 4138 1362 3434 
Q 1159 2731 1159 2009 
Q 1159 1288 1364 580 
Q 1569 -128 1984 -844 
L 1484 -844 
Q 1016 -109 783 600 
Q 550 1309 550 2009 
Q 550 2706 781 3412 
Q 1013 4119 1484 4856 
L 1984 4856 
z
" transform="scale(0.015625)"/>
       <path id="DejaVuSans-29" d="M 513 4856 
L 1013 4856 
Q 1481 4119 1714 3412 
Q 1947 2706 1947 2009 
Q 1947 1309 1714 600 
Q 1481 -109 1013 -844 
L 513 -844 
Q 928 -128 1133 580 
Q 1338 1288 1338 2009 
Q 1338 2731 1133 3434 
Q 928 4138 513 4856 
z
" transform="scale(0.015625)"/>
      </defs>
      <use xlink:href="#DejaVuSans-50"/>
      <use xlink:href="#DejaVuSans-61" transform="translate(55.802734 0)"/>
      <use xlink:href="#DejaVuSans-69" transform="translate(117.082031 0)"/>
      <use xlink:href="#DejaVuSans-64" transform="translate(144.865234 0)"/>
      <use xlink:href="#DejaVuSans-20" transform="translate(208.341797 0)"/>
      <use xlink:href="#DejaVuSans-28" transform="translate(240.128906 0)"/>
      <use xlink:href="#DejaVuSans-69" transform="translate(279.142578 0)"/>
      <use xlink:href="#DejaVuSans-6e" transform="translate(306.925781 0)"/>
      <use xlink:href="#DejaVuSans-63" transform="translate(370.304688 0)"/>
      <use xlink:href="#DejaVuSans-6c" transform="translate(425.285156 0)"/>
      <use xlink:href="#DejaVuSans-2e" transform="translate(453.068359 0)"/>
      <use xlink:href="#DejaVuSans-20" transform="translate(484.855469 0)"/>
      <use xlink:href="#DejaVuSans-70" transform="translate(516.642578 0)"/>
      <use xlink:href="#DejaVuSans-61" transform="translate(580.119141 0)"/>
      <use xlink:href="#DejaVuSans-72" transform="translate(641.398438 0)"/>
      <use xlink:href="#DejaVuSans-74" transform="translate(682.511719 0)"/>
      <use xlink:href="#DejaVuSans-69" transform="translate(721.720703 0)"/>
      <use xlink:href="#DejaVuSans-61" transform="translate(749.503906 0)"/>
      <use xlink:href="#DejaVuSans-6c" transform="translate(810.783203 0)"/>
      <use xlink:href="#DejaVuSans-29" transform="translate(838.566406 0)"/>
     </g>
    </g>
   </g>
  </g>
  <g id="axes_2">
   <g id="patch_7">
    <path d="M 609.886957 376.363655 
L 973.8 376.363655 
L 973.8 14.798438 
L 609.886957 14.798438 
z
" style="fill: #ffffff"/>
   </g>
   <g id="patch_8">
    <path d="M 609.886957 304.050611 
L 868.75962 304.050611 
L 868.75962 251.459307 
L 609.886957 251.459307 
z
" clip-path="url(#pe7d72167b7)" style="fill: #e6efee"/>
   </g>
   <g id="patch_9">
    <path d="M 868.75962 304.050611 
L 882.781214 304.050611 
L 882.781214 251.459307 
L 868.75962 251.459307 
z
" clip-path="url(#pe7d72167b7)" style="fill: #a2c5c4"/>
   </g>
   <g id="patch_10">
    <path d="M 882.781214 304.050611 
L 934.571957 304.050611 
L 934.571957 251.459307 
L 882.781214 251.459307 
z
" clip-path="url(#pe7d72167b7)" style="fill: #69a3a2"/>
   </g>
   <g id="patch_11">
    <path d="M 934.571957 304.050611 
L 973.8 304.050611 
L 973.8 251.459307 
L 934.571957 251.459307 
z
" clip-path="url(#pe7d72167b7)" style="fill: #005953"/>
   </g>
   <g id="patch_12">
    <path d="M 609.886957 238.311481 
L 842.063478 238.311481 
L 842.063478 185.720177 
L 609.886957 185.720177 
z
" clip-path="url(#pe7d72167b7)" style="fill: #e6efee"/>
   </g>
   <g id="patch_13">
    <path d="M 842.063478 238.311481 
L 914.482174 238.311481 
L 914.482174 185.720177 
L 842.063478 185.720177 
z
" clip-path="url(#pe7d72167b7)" style="fill: #69a3a2"/>
   </g>
   <g id="patch_14">
    <path d="M 914.482174 238.311481 
L 973.8 238.311481 
L 973.8 185.720177 
L 914.482174 185.720177 
z
" clip-path="url(#pe7d72167b7)" style="fill: #005953"/>
   </g>
   <g id="patch_15">
    <path d="M 609.886957 172.572351 
L 875.543478 172.572351 
L 875.543478 119.981046 
L 609.886957 119.981046 
z
" clip-path="url(#pe7d72167b7)" style="fill: #e6efee"/>
   </g>
   <g id="patch_16">
    <path d="M 875.543478 172.572351 
L 934.861304 172.572351 
L 934.861304 119.981046 
L 875.543478 119.981046 
z
" clip-path="url(#pe7d72167b7)" style="fill: #69a3a2"/>
   </g>
   <g id="patch_17">
    <path d="M 934.861304 172.572351 
L 973.436087 172.572351 
L 973.436087 119.981046 
L 934.861304 119.981046 
z
" clip-path="url(#pe7d72167b7)" style="fill: #005953"/>
   </g>
   <g id="matplotlib.axis_3">
    <g id="xtick_4">
     <g id="line2d_16">
      <g>
       <use xlink:href="#mc17f6a7563" x="609.886957" y="376.363655" style="stroke: #000000; stroke-width: 0.8"/>
      </g>
     </g>
     <g id="text_17">
      <!-- 0 -->
      <g transform="translate(603.524457 405.06053) scale(0.2 -0.2)">
       <use xlink:href="#DejaVuSans-30"/>
      </g>
     </g>
    </g>
    <g id="xtick_5">
     <g id="line2d_17">
      <g>
       <use xlink:href="#mc17f6a7563" x="682.669565" y="376.363655" style="stroke: #000000; stroke-width: 0.8"/>
      </g>
     </g>
     <g id="text_18">
      <!-- 20 -->
      <g transform="translate(669.944565 405.06053) scale(0.2 -0.2)">
       <use xlink:href="#DejaVuSans-32"/>
       <use xlink:href="#DejaVuSans-30" transform="translate(63.623047 0)"/>
      </g>
     </g>
    </g>
    <g id="xtick_6">
     <g id="line2d_18">
      <g>
       <use xlink:href="#mc17f6a7563" x="755.452174" y="376.363655" style="stroke: #000000; stroke-width: 0.8"/>
      </g>
     </g>
     <g id="text_19">
      <!-- 40 -->
      <g transform="translate(742.727174 405.06053) scale(0.2 -0.2)">
       <use xlink:href="#DejaVuSans-34"/>
       <use xlink:href="#DejaVuSans-30" transform="translate(63.623047 0)"/>
      </g>
     </g>
    </g>
    <g id="xtick_7">
     <g id="line2d_19">
      <g>
       <use xlink:href="#mc17f6a7563" x="828.234783" y="376.363655" style="stroke: #000000; stroke-width: 0.8"/>
      </g>
     </g>
     <g id="text_20">
      <!-- 60 -->
      <g transform="translate(815.509783 405.06053) scale(0.2 -0.2)">
       <use xlink:href="#DejaVuSans-36"/>
       <use xlink:href="#DejaVuSans-30" transform="translate(63.623047 0)"/>
      </g>
     </g>
    </g>
    <g id="xtick_8">
     <g id="line2d_20">
      <g>
       <use xlink:href="#mc17f6a7563" x="901.017391" y="376.363655" style="stroke: #000000; stroke-width: 0.8"/>
      </g>
     </g>
     <g id="text_21">
      <!-- 80 -->
      <g transform="translate(888.292391 405.06053) scale(0.2 -0.2)">
       <defs>
        <path id="DejaVuSans-38" d="M 2034 2216 
Q 1584 2216 1326 1975 
Q 1069 1734 1069 1313 
Q 1069 891 1326 650 
Q 1584 409 2034 409 
Q 2484 409 2743 651 
Q 3003 894 3003 1313 
Q 3003 1734 2745 1975 
Q 2488 2216 2034 2216 
z
M 1403 2484 
Q 997 2584 770 2862 
Q 544 3141 544 3541 
Q 544 4100 942 4425 
Q 1341 4750 2034 4750 
Q 2731 4750 3128 4425 
Q 3525 4100 3525 3541 
Q 3525 3141 3298 2862 
Q 3072 2584 2669 2484 
Q 3125 2378 3379 2068 
Q 3634 1759 3634 1313 
Q 3634 634 3220 271 
Q 2806 -91 2034 -91 
Q 1263 -91 848 271 
Q 434 634 434 1313 
Q 434 1759 690 2068 
Q 947 2378 1403 2484 
z
M 1172 3481 
Q 1172 3119 1398 2916 
Q 1625 2713 2034 2713 
Q 2441 2713 2670 2916 
Q 2900 3119 2900 3481 
Q 2900 3844 2670 4047 
Q 2441 4250 2034 4250 
Q 1625 4250 1398 4047 
Q 1172 3844 1172 3481 
z
" transform="scale(0.015625)"/>
       </defs>
       <use xlink:href="#DejaVuSans-38"/>
       <use xlink:href="#DejaVuSans-30" transform="translate(63.623047 0)"/>
      </g>
     </g>
    </g>
    <g id="xtick_9">
     <g id="line2d_21">
      <g>
       <use xlink:href="#mc17f6a7563" x="973.8" y="376.363655" style="stroke: #000000; stroke-width: 0.8"/>
      </g>
     </g>
     <g id="text_22">
      <!-- 100 -->
      <g transform="translate(954.7125 405.06053) scale(0.2 -0.2)">
       <use xlink:href="#DejaVuSans-31"/>
       <use xlink:href="#DejaVuSans-30" transform="translate(63.623047 0)"/>
       <use xlink:href="#DejaVuSans-30" transform="translate(127.246094 0)"/>
      </g>
     </g>
    </g>
    <g id="text_23">
     <!-- Fraction [%] -->
     <g transform="translate(731.441916 434.41678) scale(0.2 -0.2)">
      <defs>
       <path id="DejaVuSans-5b" d="M 550 4863 
L 1875 4863 
L 1875 4416 
L 1125 4416 
L 1125 -397 
L 1875 -397 
L 1875 -844 
L 550 -844 
L 550 4863 
z
" transform="scale(0.015625)"/>
       <path id="DejaVuSans-25" d="M 4653 2053 
Q 4381 2053 4226 1822 
Q 4072 1591 4072 1178 
Q 4072 772 4226 539 
Q 4381 306 4653 306 
Q 4919 306 5073 539 
Q 5228 772 5228 1178 
Q 5228 1588 5073 1820 
Q 4919 2053 4653 2053 
z
M 4653 2450 
Q 5147 2450 5437 2106 
Q 5728 1763 5728 1178 
Q 5728 594 5436 251 
Q 5144 -91 4653 -91 
Q 4153 -91 3862 251 
Q 3572 594 3572 1178 
Q 3572 1766 3864 2108 
Q 4156 2450 4653 2450 
z
M 1428 4353 
Q 1159 4353 1004 4120 
Q 850 3888 850 3481 
Q 850 3069 1003 2837 
Q 1156 2606 1428 2606 
Q 1700 2606 1854 2837 
Q 2009 3069 2009 3481 
Q 2009 3884 1853 4118 
Q 1697 4353 1428 4353 
z
M 4250 4750 
L 4750 4750 
L 1831 -91 
L 1331 -91 
L 4250 4750 
z
M 1428 4750 
Q 1922 4750 2215 4408 
Q 2509 4066 2509 3481 
Q 2509 2891 2217 2550 
Q 1925 2209 1428 2209 
Q 931 2209 642 2551 
Q 353 2894 353 3481 
Q 353 4063 643 4406 
Q 934 4750 1428 4750 
z
" transform="scale(0.015625)"/>
       <path id="DejaVuSans-5d" d="M 1947 4863 
L 1947 -844 
L 622 -844 
L 622 -397 
L 1369 -397 
L 1369 4416 
L 622 4416 
L 622 4863 
L 1947 4863 
z
" transform="scale(0.015625)"/>
      </defs>
      <use xlink:href="#DejaVuSans-46"/>
      <use xlink:href="#DejaVuSans-72" transform="translate(50.269531 0)"/>
      <use xlink:href="#DejaVuSans-61" transform="translate(91.382812 0)"/>
      <use xlink:href="#DejaVuSans-63" transform="translate(152.662109 0)"/>
      <use xlink:href="#DejaVuSans-74" transform="translate(207.642578 0)"/>
      <use xlink:href="#DejaVuSans-69" transform="translate(246.851562 0)"/>
      <use xlink:href="#DejaVuSans-6f" transform="translate(274.634766 0)"/>
      <use xlink:href="#DejaVuSans-6e" transform="translate(335.816406 0)"/>
      <use xlink:href="#DejaVuSans-20" transform="translate(399.195312 0)"/>
      <use xlink:href="#DejaVuSans-5b" transform="translate(430.982422 0)"/>
      <use xlink:href="#DejaVuSans-25" transform="translate(469.996094 0)"/>
      <use xlink:href="#DejaVuSans-5d" transform="translate(565.015625 0)"/>
     </g>
    </g>
   </g>
   <g id="matplotlib.axis_4">
    <g id="ytick_9">
     <g id="line2d_22">
      <g>
       <use xlink:href="#md82febaf39" x="609.886957" y="277.754959" style="stroke: #000000; stroke-width: 0.8"/>
      </g>
     </g>
     <g id="text_24">
      <!-- 2026 -->
      <g transform="translate(545.486957 285.353397) scale(0.2 -0.2)">
       <use xlink:href="#DejaVuSans-32"/>
       <use xlink:href="#DejaVuSans-30" transform="translate(63.623047 0)"/>
       <use xlink:href="#DejaVuSans-32" transform="translate(127.246094 0)"/>
       <use xlink:href="#DejaVuSans-36" transform="translate(190.869141 0)"/>
      </g>
     </g>
    </g>
    <g id="ytick_10">
     <g id="line2d_23">
      <g>
       <use xlink:href="#md82febaf39" x="609.886957" y="212.015829" style="stroke: #000000; stroke-width: 0.8"/>
      </g>
     </g>
     <g id="text_25">
      <!-- 2025 -->
      <g transform="translate(545.486957 219.614266) scale(0.2 -0.2)">
       <use xlink:href="#DejaVuSans-32"/>
       <use xlink:href="#DejaVuSans-30" transform="translate(63.623047 0)"/>
       <use xlink:href="#DejaVuSans-32" transform="translate(127.246094 0)"/>
       <use xlink:href="#DejaVuSans-35" transform="translate(190.869141 0)"/>
      </g>
     </g>
    </g>
    <g id="ytick_11">
     <g id="line2d_24">
      <g>
       <use xlink:href="#md82febaf39" x="609.886957" y="146.276698" style="stroke: #000000; stroke-width: 0.8"/>
      </g>
     </g>
     <g id="text_26">
      <!-- 2024 -->
      <g transform="translate(545.486957 153.875136) scale(0.2 -0.2)">
       <use xlink:href="#DejaVuSans-32"/>
       <use xlink:href="#DejaVuSans-30" transform="translate(63.623047 0)"/>
       <use xlink:href="#DejaVuSans-32" transform="translate(127.246094 0)"/>
       <use xlink:href="#DejaVuSans-34" transform="translate(190.869141 0)"/>
      </g>
     </g>
    </g>
   </g>
   <g id="patch_18">
    <path d="M 609.886957 376.363655 
L 609.886957 14.798438 
" style="fill: none; stroke: #000000; stroke-width: 0.8; stroke-linejoin: miter; stroke-linecap: square"/>
   </g>
   <g id="patch_19">
    <path d="M 973.8 376.363655 
L 973.8 14.798438 
" style="fill: none; stroke: #000000; stroke-width: 0.8; stroke-linejoin: miter; stroke-linecap: square"/>
   </g>
   <g id="patch_20">
    <path d="M 609.886957 376.363655 
L 973.8 376.363655 
" style="fill: none; stroke: #000000; stroke-width: 0.8; stroke-linejoin: miter; stroke-linecap: square"/>
   </g>
   <g id="patch_21">
    <path d="M 609.886957 14.798438 
L 973.8 14.798438 
" style="fill: none; stroke: #000000; stroke-width: 0.8; stroke-linejoin: miter; stroke-linecap: square"/>
   </g>
   <g id="text_27">
    <!-- 3194 total regs (3194 normal, 173 contributors, 639 sponsors, 484 supersponsors). -->
    <g transform="translate(611.706522 374.555829) scale(0.066667 -0.066667)">
     <use xlink:href="#DejaVuSans-33"/>
     <use xlink:href="#DejaVuSans-31" transform="translate(63.623047 0)"/>
     <use xlink:href="#DejaVuSans-39" transform="translate(127.246094 0)"/>
     <use xlink:href="#DejaVuSans-34" transform="translate(190.869141 0)"/>
     <use xlink:href="#DejaVuSans-20" transform="translate(254.492188 0)"/>
     <use xlink:href="#DejaVuSans-74" transform="translate(286.279297 0)"/>
     <use xlink:href="#DejaVuSans-6f" transform="translate(325.488281 0)"/>
     <use xlink:href="#DejaVuSans-74" transform="translate(386.669922 0)"/>
     <use xlink:href="#DejaVuSans-61" transform="translate(425.878906 0)"/>
     <use xlink:href="#DejaVuSans-6c" transform="translate(487.158203 0)"/>
     <use xlink:href="#DejaVuSans-20" transform="translate(514.941406 0)"/>
     <use xlink:href="#DejaVuSans-72" transform="translate(546.728516 0)"/>
     <use xlink:href="#DejaVuSans-65" transform="translate(585.591797 0)"/>
     <use xlink:href="#DejaVuSans-67" transform="translate(647.115234 0)"/>
     <use xlink:href="#DejaVuSans-73" transform="translate(710.591797 0)"/>
     <use xlink:href="#DejaVuSans-20" transform="translate(762.691406 0)"/>
     <use xlink:href="#DejaVuSans-28" transform="translate(794.478516 0)"/>
     <use xlink:href="#DejaVuSans-33" transform="translate(833.492188 0)"/>
     <use xlink:href="#DejaVuSans-31" transform="translate(897.115234 0)"/>
     <use xlink:href="#DejaVuSans-39" transform="translate(960.738281 0)"/>
     <use xlink:href="#DejaVuSans-34" transform="translate(1024.361328 0)"/>
     <use xlink:href="#DejaVuSans-20" transform="translate(1087.984375 0)"/>
     <use xlink:href="#DejaVuSans-6e" transform="translate(1119.771484 0)"/>
     <use xlink:href="#DejaVuSans-6f" transform="translate(1183.150391 0)"/>
     <use xlink:href="#DejaVuSans-72" transform="translate(1244.332031 0)"/>
     <use xlink:href="#DejaVuSans-6d" transform="translate(1283.695312 0)"/>
     <use xlink:href="#DejaVuSans-61" transform="translate(1381.107422 0)"/>
     <use xlink:href="#DejaVuSans-6c" transform="translate(1442.386719 0)"/>
     <use xlink:href="#DejaVuSans-2c" transform="translate(1470.169922 0)"/>
     <use xlink:href="#DejaVuSans-20" transform="translate(1501.957031 0)"/>
     <use xlink:href="#DejaVuSans-31" transform="translate(1533.744141 0)"/>
     <use xlink:href="#DejaVuSans-37" transform="translate(1597.367188 0)"/>
     <use xlink:href="#DejaVuSans-33" transform="translate(1660.990234 0)"/>
     <use xlink:href="#DejaVuSans-20" transform="translate(1724.613281 0)"/>
     <use xlink:href="#DejaVuSans-63" transform="translate(1756.400391 0)"/>
     <use xlink:href="#DejaVuSans-6f" transform="translate(1811.380859 0)"/>
     <use xlink:href="#DejaVuSans-6e" transform="translate(1872.5625 0)"/>
     <use xlink:href="#DejaVuSans-74" transform="translate(1935.941406 0)"/>
     <use xlink:href="#DejaVuSans-72" transform="translate(1975.150391 0)"/>
     <use xlink:href="#DejaVuSans-69" transform="translate(2016.263672 0)"/>
     <use xlink:href="#DejaVuSans-62" transform="translate(2044.046875 0)"/>
     <use xlink:href="#DejaVuSans-75" transform="translate(2107.523438 0)"/>
     <use xlink:href="#DejaVuSans-74" transform="translate(2170.902344 0)"/>
     <use xlink:href="#DejaVuSans-6f" transform="translate(2210.111328 0)"/>
     <use xlink:href="#DejaVuSans-72" transform="translate(2271.292969 0)"/>
     <use xlink:href="#DejaVuSans-73" transform="translate(2312.40625 0)"/>
     <use xlink:href="#DejaVuSans-2c" transform="translate(2364.505859 0)"/>
     <use xlink:href="#DejaVuSans-20" transform="translate(2396.292969 0)"/>
     <use xlink:href="#DejaVuSans-36" transform="translate(2428.080078 0)"/>
     <use xlink:href="#DejaVuSans-33" transform="translate(2491.703125 0)"/>
     <use xlink:href="#DejaVuSans-39" transform="translate(2555.326172 0)"/>
     <use xlink:href="#DejaVuSans-20" transform="translate(2618.949219 0)"/>
     <use xlink:href="#DejaVuSans-73" transform="translate(2650.736328 0)"/>
     <use xlink:href="#DejaVuSans-70" transform="translate(2702.835938 0)"/>
     <use xlink:href="#DejaVuSans-6f" transform="translate(2766.3125 0)"/>
     <use xlink:href="#DejaVuSans-6e" transform="translate(2827.494141 0)"/>
     <use xlink:href="#DejaVuSans-73" transform="translate(2890.873047 0)"/>
     <use xlink:href="#DejaVuSans-6f" transform="translate(2942.972656 0)"/>
     <use xlink:href="#DejaVuSans-72" transform="translate(3004.154297 0)"/>
     <use xlink:href="#DejaVuSans-73" transform="translate(3045.267578 0)"/>
     <use xlink:href="#DejaVuSans-2c" transform="translate(3097.367188 0)"/>
     <use xlink:href="#DejaVuSans-20" transform="translate(3129.154297 0)"/>
     <use xlink:href="#DejaVuSans-34" transform="translate(3160.941406 0)"/>
     <use xlink:href="#DejaVuSans-38" transform="translate(3224.564453 0)"/>
     <use xlink:href="#DejaVuSans-34" transform="translate(3288.1875 0)"/>
     <use xlink:href="#DejaVuSans-20" transform="translate(3351.810547 0)"/>
     <use xlink:href="#DejaVuSans-73" transform="translate(3383.597656 0)"/>
     <use xlink:href="#DejaVuSans-75" transform="translate(3435.697266 0)"/>
     <use xlink:href="#DejaVuSans-70" transform="translate(3499.076172 0)"/>
     <use xlink:href="#DejaVuSans-65" transform="translate(3562.552734 0)"/>
     <use xlink:href="#DejaVuSans-72" transform="translate(3624.076172 0)"/>
     <use xlink:href="#DejaVuSans-73" transform="translate(3665.189453 0)"/>
     <use xlink:href="#DejaVuSans-70" transform="translate(3717.289062 0)"/>
     <use xlink:href="#DejaVuSans-6f" transform="translate(3780.765625 0)"/>
     <use xlink:href="#DejaVuSans-6e" transform="translate(3841.947266 0)"/>
     <use xlink:href="#DejaVuSans-73" transform="translate(3905.326172 0)"/>
     <use xlink:href="#DejaVuSans-6f" transform="translate(3957.425781 0)"/>
     <use xlink:href="#DejaVuSans-72" transform="translate(4018.607422 0)"/>
     <use xlink:href="#DejaVuSans-73" transform="translate(4059.720703 0)"/>
     <use xlink:href="#DejaVuSans-29" transform="translate(4111.820312 0)"/>
     <use xlink:href="#DejaVuSans-2e" transform="translate(4150.833984 0)"/>
    </g>
   </g>
   <g id="legend_2">
    <g id="patch_22">
     <path d="M 640.466525 39.696094 
L 670.466525 39.696094 
L 670.466525 29.196094 
L 640.466525 29.196094 
z
" style="fill: #e6efee"/>
    </g>
    <g id="text_28">
     <!-- Normal -->
     <g transform="translate(682.466525 39.696094) scale(0.15 -0.15)">
      <defs>
       <path id="DejaVuSans-4e" d="M 628 4666 
L 1478 4666 
L 3547 763 
L 3547 4666 
L 4159 4666 
L 4159 0 
L 3309 0 
L 1241 3903 
L 1241 0 
L 628 0 
L 628 4666 
z
" transform="scale(0.015625)"/>
      </defs>
      <use xlink:href="#DejaVuSans-4e"/>
      <use xlink:href="#DejaVuSans-6f" transform="translate(74.804688 0)"/>
      <use xlink:href="#DejaVuSans-72" transform="translate(135.986328 0)"/>
      <use xlink:href="#DejaVuSans-6d" transform="translate(175.349609 0)"/>
      <use xlink:href="#DejaVuSans-61" transform="translate(272.761719 0)"/>
      <use xlink:href="#DejaVuSans-6c" transform="translate(334.041016 0)"/>
     </g>
    </g>
    <g id="patch_23">
     <path d="M 640.466525 61.713281 
L 670.466525 61.713281 
L 670.466525 51.213281 
L 640.466525 51.213281 
z
" style="fill: #a2c5c4"/>
    </g>
    <g id="text_29">
     <!-- Contributor -->
     <g transform="translate(682.466525 61.713281) scale(0.15 -0.15)">
      <use xlink:href="#DejaVuSans-43"/>
      <use xlink:href="#DejaVuSans-6f" transform="translate(69.824219 0)"/>
      <use xlink:href="#DejaVuSans-6e" transform="translate(131.005859 0)"/>
      <use xlink:href="#DejaVuSans-74" transform="translate(194.384766 0)"/>
      <use xlink:href="#DejaVuSans-72" transform="translate(233.59375 0)"/>
      <use xlink:href="#DejaVuSans-69" transform="translate(274.707031 0)"/>
      <use xlink:href="#DejaVuSans-62" transform="translate(302.490234 0)"/>
      <use xlink:href="#DejaVuSans-75" transform="translate(365.966797 0)"/>
      <use xlink:href="#DejaVuSans-74" transform="translate(429.345703 0)"/>
      <use xlink:href="#DejaVuSans-6f" transform="translate(468.554688 0)"/>
      <use xlink:href="#DejaVuSans-72" transform="translate(529.736328 0)"/>
     </g>
    </g>
    <g id="patch_24">
     <path d="M 798.093088 39.696094 
L 828.093088 39.696094 
L 828.093088 29.196094 
L 798.093088 29.196094 
z
" style="fill: #69a3a2"/>
    </g>
    <g id="text_30">
     <!-- Sponsor -->
     <g transform="translate(840.093088 39.696094) scale(0.15 -0.15)">
      <defs>
       <path id="DejaVuSans-53" d="M 3425 4513 
L 3425 3897 
Q 3066 4069 2747 4153 
Q 2428 4238 2131 4238 
Q 1616 4238 1336 4038 
Q 1056 3838 1056 3469 
Q 1056 3159 1242 3001 
Q 1428 2844 1947 2747 
L 2328 2669 
Q 3034 2534 3370 2195 
Q 3706 1856 3706 1288 
Q 3706 609 3251 259 
Q 2797 -91 1919 -91 
Q 1588 -91 1214 -16 
Q 841 59 441 206 
L 441 856 
Q 825 641 1194 531 
Q 1563 422 1919 422 
Q 2459 422 2753 634 
Q 3047 847 3047 1241 
Q 3047 1584 2836 1778 
Q 2625 1972 2144 2069 
L 1759 2144 
Q 1053 2284 737 2584 
Q 422 2884 422 3419 
Q 422 4038 858 4394 
Q 1294 4750 2059 4750 
Q 2388 4750 2728 4690 
Q 3069 4631 3425 4513 
z
" transform="scale(0.015625)"/>
      </defs>
      <use xlink:href="#DejaVuSans-53"/>
      <use xlink:href="#DejaVuSans-70" transform="translate(63.476562 0)"/>
      <use xlink:href="#DejaVuSans-6f" transform="translate(126.953125 0)"/>
      <use xlink:href="#DejaVuSans-6e" transform="translate(188.134766 0)"/>
      <use xlink:href="#DejaVuSans-73" transform="translate(251.513672 0)"/>
      <use xlink:href="#DejaVuSans-6f" transform="translate(303.613281 0)"/>
      <use xlink:href="#DejaVuSans-72" transform="translate(364.794922 0)"/>
     </g>
    </g>
    <g id="patch_25">
     <path d="M 798.093088 61.713281 
L 828.093088 61.713281 
L 828.093088 51.213281 
L 798.093088 51.213281 
z
" style="fill: #005953"/>
    </g>
    <g id="text_31">
     <!-- Supersponsor -->
     <g transform="translate(840.093088 61.713281) scale(0.15 -0.15)">
      <use xlink:href="#DejaVuSans-53"/>
      <use xlink:href="#DejaVuSans-75" transform="translate(63.476562 0)"/>
      <use xlink:href="#DejaVuSans-70" transform="translate(126.855469 0)"/>
      <use xlink:href="#DejaVuSans-65" transform="translate(190.332031 0)"/>
      <use xlink:href="#DejaVuSans-72" transform="translate(251.855469 0)"/>
      <use xlink:href="#DejaVuSans-73" transform="translate(292.96875 0)"/>
      <use xlink:href="#DejaVuSans-70" transform="translate(345.068359 0)"/>
      <use xlink:href="#DejaVuSans-6f" transform="translate(408.544922 0)"/>
      <use xlink:href="#DejaVuSans-6e" transform="translate(469.726562 0)"/>
      <use xlink:href="#DejaVuSans-73" transform="translate(533.105469 0)"/>
      <use xlink:href="#DejaVuSans-6f" transform="translate(585.205078 0)"/>
      <use xlink:href="#DejaVuSans-72" transform="translate(646.386719 0)"/>
     </g>
    </g>
   </g>
  </g>
  <g id="axes_3">
   <g id="patch_26">
    <path d="M 136.8 846.398438 
L 500.713043 846.398438 
L 500.713043 484.83322 
L 136.8 484.83322 
z
" style="fill: #ffffff"/>
   </g>
   <g id="matplotlib.axis_5">
    <g id="xtick_10">
     <g id="line2d_25">
      <g>
       <use xlink:href="#mc17f6a7563" x="143.93555" y="846.398438" style="stroke: #000000; stroke-width: 0.8"/>
      </g>
     </g>
     <g id="text_32">
      <!-- 0 -->
      <g transform="translate(137.57305 875.095313) scale(0.2 -0.2)">
       <use xlink:href="#DejaVuSans-30"/>
      </g>
     </g>
    </g>
    <g id="xtick_11">
     <g id="line2d_26">
      <g>
       <use xlink:href="#mc17f6a7563" x="215.291049" y="846.398438" style="stroke: #000000; stroke-width: 0.8"/>
      </g>
     </g>
     <g id="text_33">
      <!-- 50 -->
      <g transform="translate(202.566049 875.095313) scale(0.2 -0.2)">
       <use xlink:href="#DejaVuSans-35"/>
       <use xlink:href="#DejaVuSans-30" transform="translate(63.623047 0)"/>
      </g>
     </g>
    </g>
    <g id="xtick_12">
     <g id="line2d_27">
      <g>
       <use xlink:href="#mc17f6a7563" x="286.646547" y="846.398438" style="stroke: #000000; stroke-width: 0.8"/>
      </g>
     </g>
     <g id="text_34">
      <!-- 100 -->
      <g transform="translate(267.559047 875.095313) scale(0.2 -0.2)">
       <use xlink:href="#DejaVuSans-31"/>
       <use xlink:href="#DejaVuSans-30" transform="translate(63.623047 0)"/>
       <use xlink:href="#DejaVuSans-30" transform="translate(127.246094 0)"/>
      </g>
     </g>
    </g>
    <g id="xtick_13">
     <g id="line2d_28">
      <g>
       <use xlink:href="#mc17f6a7563" x="358.002046" y="846.398438" style="stroke: #000000; stroke-width: 0.8"/>
      </g>
     </g>
     <g id="text_35">
      <!-- 150 -->
      <g transform="translate(338.914546 875.095313) scale(0.2 -0.2)">
       <use xlink:href="#DejaVuSans-31"/>
       <use xlink:href="#DejaVuSans-35" transform="translate(63.623047 0)"/>
       <use xlink:href="#DejaVuSans-30" transform="translate(127.246094 0)"/>
      </g>
     </g>
    </g>
    <g id="xtick_14">
     <g id="line2d_29">
      <g>
       <use xlink:href="#mc17f6a7563" x="429.357545" y="846.398438" style="stroke: #000000; stroke-width: 0.8"/>
      </g>
     </g>
     <g id="text_36">
      <!-- 200 -->
      <g transform="translate(410.270045 875.095313) scale(0.2 -0.2)">
       <use xlink:href="#DejaVuSans-32"/>
       <use xlink:href="#DejaVuSans-30" transform="translate(63.623047 0)"/>
       <use xlink:href="#DejaVuSans-30" transform="translate(127.246094 0)"/>
      </g>
     </g>
    </g>
    <g id="xtick_15">
     <g id="line2d_30">
      <g>
       <use xlink:href="#mc17f6a7563" x="500.713043" y="846.398438" style="stroke: #000000; stroke-width: 0.8"/>
      </g>
     </g>
     <g id="text_37">
      <!-- 250 -->
      <g transform="translate(481.625543 875.095313) scale(0.2 -0.2)">
       <use xlink:href="#DejaVuSans-32"/>
       <use xlink:href="#DejaVuSans-35" transform="translate(63.623047 0)"/>
       <use xlink:href="#DejaVuSans-30" transform="translate(127.246094 0)"/>
      </g>
     </g>
    </g>
    <g id="text_38">
     <!-- Day After Reg Opening -->
     <g transform="translate(204.292459 904.451563) scale(0.2 -0.2)">
      <defs>
       <path id="DejaVuSans-44" d="M 1259 4147 
L 1259 519 
L 2022 519 
Q 2988 519 3436 956 
Q 3884 1394 3884 2338 
Q 3884 3275 3436 3711 
Q 2988 4147 2022 4147 
L 1259 4147 
z
M 628 4666 
L 1925 4666 
Q 3281 4666 3915 4102 
Q 4550 3538 4550 2338 
Q 4550 1131 3912 565 
Q 3275 0 1925 0 
L 628 0 
L 628 4666 
z
" transform="scale(0.015625)"/>
       <path id="DejaVuSans-52" d="M 2841 2188 
Q 3044 2119 3236 1894 
Q 3428 1669 3622 1275 
L 4263 0 
L 3584 0 
L 2988 1197 
Q 2756 1666 2539 1819 
Q 2322 1972 1947 1972 
L 1259 1972 
L 1259 0 
L 628 0 
L 628 4666 
L 2053 4666 
Q 2853 4666 3247 4331 
Q 3641 3997 3641 3322 
Q 3641 2881 3436 2590 
Q 3231 2300 2841 2188 
z
M 1259 4147 
L 1259 2491 
L 2053 2491 
Q 2509 2491 2742 2702 
Q 2975 2913 2975 3322 
Q 2975 3731 2742 3939 
Q 2509 4147 2053 4147 
L 1259 4147 
z
" transform="scale(0.015625)"/>
       <path id="DejaVuSans-4f" d="M 2522 4238 
Q 1834 4238 1429 3725 
Q 1025 3213 1025 2328 
Q 1025 1447 1429 934 
Q 1834 422 2522 422 
Q 3209 422 3611 934 
Q 4013 1447 4013 2328 
Q 4013 3213 3611 3725 
Q 3209 4238 2522 4238 
z
M 2522 4750 
Q 3503 4750 4090 4092 
Q 4678 3434 4678 2328 
Q 4678 1225 4090 567 
Q 3503 -91 2522 -91 
Q 1538 -91 948 565 
Q 359 1222 359 2328 
Q 359 3434 948 4092 
Q 1538 4750 2522 4750 
z
" transform="scale(0.015625)"/>
      </defs>
      <use xlink:href="#DejaVuSans-44"/>
      <use xlink:href="#DejaVuSans-61" transform="translate(77.001953 0)"/>
      <use xlink:href="#DejaVuSans-79" transform="translate(138.28125 0)"/>
      <use xlink:href="#DejaVuSans-20" transform="translate(197.460938 0)"/>
      <use xlink:href="#DejaVuSans-41" transform="translate(229.248047 0)"/>
      <use xlink:href="#DejaVuSans-66" transform="translate(294.03125 0)"/>
      <use xlink:href="#DejaVuSans-74" transform="translate(327.486328 0)"/>
      <use xlink:href="#DejaVuSans-65" transform="translate(366.695312 0)"/>
      <use xlink:href="#DejaVuSans-72" transform="translate(428.21875 0)"/>
      <use xlink:href="#DejaVuSans-20" transform="translate(469.332031 0)"/>
      <use xlink:href="#DejaVuSans-52" transform="translate(501.119141 0)"/>
      <use xlink:href="#DejaVuSans-65" transform="translate(566.101562 0)"/>
      <use xlink:href="#DejaVuSans-67" transform="translate(627.625 0)"/>
      <use xlink:href="#DejaVuSans-20" transform="translate(691.101562 0)"/>
      <use xlink:href="#DejaVuSans-4f" transform="translate(722.888672 0)"/>
      <use xlink:href="#DejaVuSans-70" transform="translate(801.599609 0)"/>
      <use xlink:href="#DejaVuSans-65" transform="translate(865.076172 0)"/>
      <use xlink:href="#DejaVuSans-6e" transform="translate(926.599609 0)"/>
      <use xlink:href="#DejaVuSans-69" transform="translate(989.978516 0)"/>
      <use xlink:href="#DejaVuSans-6e" transform="translate(1017.761719 0)"/>
      <use xlink:href="#DejaVuSans-67" transform="translate(1081.140625 0)"/>
     </g>
    </g>
   </g>
   <g id="matplotlib.axis_6">
    <g id="ytick_12">
     <g id="line2d_31">
      <g>
       <use xlink:href="#md82febaf39" x="136.8" y="846.398438" style="stroke: #000000; stroke-width: 0.8"/>
      </g>
     </g>
     <g id="text_39">
      <!-- 0 -->
      <g transform="translate(110.575 853.996875) scale(0.2 -0.2)">
       <use xlink:href="#DejaVuSans-30"/>
      </g>
     </g>
    </g>
    <g id="ytick_13">
     <g id="line2d_32">
      <g>
       <use xlink:href="#md82febaf39" x="136.8" y="801.202785" style="stroke: #000000; stroke-width: 0.8"/>
      </g>
     </g>
     <g id="text_40">
      <!-- 1000 -->
      <g transform="translate(72.4 808.801223) scale(0.2 -0.2)">
       <use xlink:href="#DejaVuSans-31"/>
       <use xlink:href="#DejaVuSans-30" transform="translate(63.623047 0)"/>
       <use xlink:href="#DejaVuSans-30" transform="translate(127.246094 0)"/>
       <use xlink:href="#DejaVuSans-30" transform="translate(190.869141 0)"/>
      </g>
     </g>
    </g>
    <g id="ytick_14">
     <g id="line2d_33">
      <g>
       <use xlink:href="#md82febaf39" x="136.8" y="756.007133" style="stroke: #000000; stroke-width: 0.8"/>
      </g>
     </g>
     <g id="text_41">
      <!-- 2000 -->
      <g transform="translate(72.4 763.605571) scale(0.2 -0.2)">
       <use xlink:href="#DejaVuSans-32"/>
       <use xlink:href="#DejaVuSans-30" transform="translate(63.623047 0)"/>
       <use xlink:href="#DejaVuSans-30" transform="translate(127.246094 0)"/>
       <use xlink:href="#DejaVuSans-30" transform="translate(190.869141 0)"/>
      </g>
     </g>
    </g>
    <g id="ytick_15">
     <g id="line2d_34">
      <g>
       <use xlink:href="#md82febaf39" x="136.8" y="710.811481" style="stroke: #000000; stroke-width: 0.8"/>
      </g>
     </g>
     <g id="text_42">
      <!-- 3000 -->
      <g transform="translate(72.4 718.409918) scale(0.2 -0.2)">
       <use xlink:href="#DejaVuSans-33"/>
       <use xlink:href="#DejaVuSans-30" transform="translate(63.623047 0)"/>
       <use xlink:href="#DejaVuSans-30" transform="translate(127.246094 0)"/>
       <use xlink:href="#DejaVuSans-30" transform="translate(190.869141 0)"/>
      </g>
     </g>
    </g>
    <g id="ytick_16">
     <g id="line2d_35">
      <g>
       <use xlink:href="#md82febaf39" x="136.8" y="665.615829" style="stroke: #000000; stroke-width: 0.8"/>
      </g>
     </g>
     <g id="text_43">
      <!-- 4000 -->
      <g transform="translate(72.4 673.214266) scale(0.2 -0.2)">
       <use xlink:href="#DejaVuSans-34"/>
       <use xlink:href="#DejaVuSans-30" transform="translate(63.623047 0)"/>
       <use xlink:href="#DejaVuSans-30" transform="translate(127.246094 0)"/>
       <use xlink:href="#DejaVuSans-30" transform="translate(190.869141 0)"/>
      </g>
     </g>
    </g>
    <g id="ytick_17">
     <g id="line2d_36">
      <g>
       <use xlink:href="#md82febaf39" x="136.8" y="620.420177" style="stroke: #000000; stroke-width: 0.8"/>
      </g>
     </g>
     <g id="text_44">
      <!-- 5000 -->
      <g transform="translate(72.4 628.018614) scale(0.2 -0.2)">
       <use xlink:href="#DejaVuSans-35"/>
       <use xlink:href="#DejaVuSans-30" transform="translate(63.623047 0)"/>
       <use xlink:href="#DejaVuSans-30" transform="translate(127.246094 0)"/>
       <use xlink:href="#DejaVuSans-30" transform="translate(190.869141 0)"/>
      </g>
     </g>
    </g>
    <g id="ytick_18">
     <g id="line2d_37">
      <g>
       <use xlink:href="#md82febaf39" x="136.8" y="575.224524" style="stroke: #000000; stroke-width: 0.8"/>
      </g>
     </g>
     <g id="text_45">
      <!-- 6000 -->
      <g transform="translate(72.4 582.822962) scale(0.2 -0.2)">
       <use xlink:href="#DejaVuSans-36"/>
       <use xlink:href="#DejaVuSans-30" transform="translate(63.623047 0)"/>
       <use xlink:href="#DejaVuSans-30" transform="translate(127.246094 0)"/>
       <use xlink:href="#DejaVuSans-30" transform="translate(190.869141 0)"/>
      </g>
     </g>
    </g>
    <g id="ytick_19">
     <g id="line2d_38">
      <g>
       <use xlink:href="#md82febaf39" x="136.8" y="530.028872" style="stroke: #000000; stroke-width: 0.8"/>
      </g>
     </g>
     <g id="text_46">
      <!-- 7000 -->
      <g transform="translate(72.4 537.62731) scale(0.2 -0.2)">
       <use xlink:href="#DejaVuSans-37"/>
       <use xlink:href="#DejaVuSans-30" transform="translate(63.623047 0)"/>
       <use xlink:href="#DejaVuSans-30" transform="translate(127.246094 0)"/>
       <use xlink:href="#DejaVuSans-30" transform="translate(190.869141 0)"/>
      </g>
     </g>
    </g>
    <g id="ytick_20">
     <g id="line2d_39">
      <g>
       <use xlink:href="#md82febaf39" x="136.8" y="484.83322" style="stroke: #000000; stroke-width: 0.8"/>
      </g>
     </g>
     <g id="text_47">
      <!-- 8000 -->
      <g transform="translate(72.4 492.431658) scale(0.2 -0.2)">
       <use xlink:href="#DejaVuSans-38"/>
       <use xlink:href="#DejaVuSans-30" transform="translate(63.623047 0)"/>
       <use xlink:href="#DejaVuSans-30" transform="translate(127.246094 0)"/>
       <use xlink:href="#DejaVuSans-30" transform="translate(190.869141 0)"/>
      </g>
     </g>
    </g>
    <g id="text_48">
     <!-- Total Regs -->
     <g transform="translate(58.240625 716.356454) rotate(-90) scale(0.2 -0.2)">
      <use xlink:href="#DejaVuSans-54"/>
      <use xlink:href="#DejaVuSans-6f" transform="translate(44.083984 0)"/>
      <use xlink:href="#DejaVuSans-74" transform="translate(105.265625 0)"/>
      <use xlink:href="#DejaVuSans-61" transform="translate(144.474609 0)"/>
      <use xlink:href="#DejaVuSans-6c" transform="translate(205.753906 0)"/>
      <use xlink:href="#DejaVuSans-20" transform="translate(233.537109 0)"/>
      <use xlink:href="#DejaVuSans-52" transform="translate(265.324219 0)"/>
      <use xlink:href="#DejaVuSans-65" transform="translate(330.306641 0)"/>
      <use xlink:href="#DejaVuSans-67" transform="translate(391.830078 0)"/>
      <use xlink:href="#DejaVuSans-73" transform="translate(455.306641 0)"/>
     </g>
    </g>
   </g>
   <g id="line2d_40">
    <path d="M 96.840921 846.217655 
L 98.268031 846.217655 
L 99.695141 832.613764 
L 101.122251 830.98672 
L 105.403581 829.992416 
L 119.67468 829.540459 
L 121.10179 829.359677 
L 122.5289 829.359677 
L 123.95601 829.133698 
L 128.23734 828.952916 
L 132.51867 828.952916 
L 133.94578 828.772133 
L 135.37289 828.320177 
L 136.8 828.139394 
L 142.50844 827.86822 
L 143.93555 752.843438 
L 145.36266 733.318916 
L 146.78977 728.211807 
L 148.21688 724.912524 
L 151.0711 720.935307 
L 152.49821 718.404351 
L 153.92532 716.460938 
L 156.77954 711.308633 
L 159.63376 703.534981 
L 161.06087 700.235698 
L 163.91509 694.676633 
L 166.769309 689.976285 
L 168.196419 687.85209 
L 169.623529 686.49622 
L 171.050639 684.869177 
L 173.904859 680.756372 
L 176.759079 675.920438 
L 178.186189 674.609764 
L 179.613299 672.395177 
L 181.040409 667.06209 
L 182.467519 661.186655 
L 183.894629 658.474916 
L 185.321739 657.073851 
L 186.748849 664.937894 
L 188.175959 663.536829 
L 189.603069 662.723307 
L 192.457289 661.774198 
L 193.884399 660.82509 
L 198.165729 658.74609 
L 203.874169 656.169938 
L 205.301279 654.904459 
L 206.728389 656.757481 
L 208.155499 656.305524 
L 209.582609 655.672785 
L 212.436829 654.859264 
L 213.863939 653.774568 
L 215.291049 653.322611 
L 216.718159 655.085242 
L 218.145269 654.723677 
L 219.572379 654.181329 
L 222.426598 653.54859 
L 223.853708 653.051438 
L 225.280818 652.373503 
L 226.707928 652.554285 
L 228.135038 652.102329 
L 229.562148 651.379198 
L 230.989258 651.017633 
L 232.416368 650.384894 
L 235.270588 649.480981 
L 236.697698 649.797351 
L 239.551918 648.893438 
L 240.979028 648.170307 
L 243.833248 646.99522 
L 245.260358 646.317285 
L 246.687468 646.633655 
L 249.541688 645.368177 
L 250.968798 644.554655 
L 253.823018 643.424764 
L 255.250128 642.611242 
L 256.677238 642.385264 
L 259.531458 641.164981 
L 260.958568 640.713024 
L 262.385678 639.944698 
L 263.812788 639.537938 
L 265.239898 638.99559 
L 266.667008 640.803416 
L 268.094118 640.03509 
L 269.521228 639.040785 
L 270.948338 638.543633 
L 272.375448 637.865698 
L 273.802558 637.006981 
L 276.656777 635.831894 
L 278.083887 635.379938 
L 279.510997 634.656807 
L 280.938107 634.159655 
L 282.365217 633.391329 
L 283.792327 632.848981 
L 285.219437 632.125851 
L 286.646547 632.397024 
L 292.354987 629.775677 
L 293.782097 628.781372 
L 295.209207 628.013046 
L 296.636317 627.109133 
L 298.063427 625.708068 
L 299.490537 624.939742 
L 300.917647 624.623372 
L 302.344757 624.035829 
L 303.771867 622.860742 
L 306.626087 621.278894 
L 308.053197 620.691351 
L 309.480307 619.335481 
L 310.907417 618.250785 
L 313.761637 613.912003 
L 315.188747 612.375351 
L 316.615857 612.420546 
L 328.032737 609.844394 
L 332.314066 608.398133 
L 336.595396 607.087459 
L 338.022506 606.228742 
L 345.158056 602.974655 
L 346.585166 602.703481 
L 348.012276 601.709177 
L 349.439386 600.895655 
L 350.866496 599.946546 
L 353.720716 599.268611 
L 355.147826 599.539785 
L 356.574936 598.861851 
L 358.002046 598.590677 
L 359.429156 597.777155 
L 360.856266 597.370394 
L 362.283376 596.782851 
L 363.710486 596.37609 
L 365.137596 595.517372 
L 366.564706 595.426981 
L 367.991816 594.884633 
L 370.846036 593.347981 
L 372.273146 592.715242 
L 375.127366 591.766133 
L 377.981586 589.913111 
L 379.408696 589.235177 
L 380.835806 588.014894 
L 382.262916 587.246568 
L 383.690026 586.839807 
L 385.117136 585.438742 
L 387.971355 582.998177 
L 389.398465 582.184655 
L 392.252685 580.873981 
L 395.106905 578.840177 
L 396.534015 577.936264 
L 397.961125 576.580394 
L 399.388235 575.540894 
L 402.242455 573.823459 
L 405.096675 571.563677 
L 406.523785 570.885742 
L 407.950895 569.665459 
L 409.378005 568.219198 
L 412.232225 566.23059 
L 413.659335 565.959416 
L 415.086445 565.462264 
L 416.513555 564.377568 
L 417.940665 562.298568 
L 419.367775 561.394655 
L 422.221995 558.366546 
L 423.649105 557.327046 
L 427.930435 552.445916 
L 429.357545 549.28222 
L 430.784655 546.706068 
L 432.211765 544.536677 
L 433.638875 543.04522 
L 435.065985 543.04522 
L 435.065985 543.04522 
" clip-path="url(#p1b501e9ae0)" style="fill: none; stroke: #69a3a2; stroke-width: 2; stroke-linecap: square"/>
   </g>
   <g id="line2d_41">
    <path d="M 138.22711 836.410198 
L 139.65422 835.280307 
L 141.08133 833.653264 
L 142.50844 772.458351 
L 143.93555 760.526698 
L 145.36266 756.233111 
L 146.78977 752.888633 
L 148.21688 749.950916 
L 151.0711 746.470851 
L 152.49821 744.346655 
L 153.92532 742.810003 
L 155.35243 741.454133 
L 156.77954 739.058764 
L 158.20665 737.205742 
L 162.48798 733.499698 
L 163.91509 732.686177 
L 165.342199 732.008242 
L 166.769309 730.968742 
L 168.196419 729.567677 
L 169.623529 727.850242 
L 171.050639 726.901133 
L 173.904859 724.144198 
L 175.331969 723.285481 
L 176.759079 721.432459 
L 179.613299 715.737807 
L 181.040409 710.811481 
L 182.467519 702.811851 
L 183.894629 701.455981 
L 186.748849 699.422177 
L 188.175959 703.44459 
L 191.030179 701.817546 
L 192.457289 701.320394 
L 193.884399 700.642459 
L 195.311509 699.602959 
L 196.738619 699.151003 
L 198.165729 699.467372 
L 201.019949 698.292285 
L 203.874169 697.840329 
L 206.728389 696.620046 
L 208.155499 696.846024 
L 209.582609 696.755633 
L 213.863939 695.942111 
L 215.291049 695.354568 
L 216.718159 694.902611 
L 218.145269 696.303677 
L 220.999488 695.264177 
L 223.853708 694.541046 
L 226.707928 693.320764 
L 228.135038 692.462046 
L 229.562148 692.507242 
L 230.989258 692.236068 
L 233.843478 691.377351 
L 235.270588 691.106177 
L 236.697698 690.428242 
L 238.124808 690.699416 
L 239.551918 690.337851 
L 240.979028 690.157068 
L 243.833248 689.433938 
L 245.260358 688.710807 
L 248.114578 688.530024 
L 252.395908 687.85209 
L 253.823018 687.309742 
L 255.250128 686.993372 
L 256.677238 686.81259 
L 258.104348 686.993372 
L 259.531458 686.270242 
L 262.385678 685.501916 
L 266.667008 684.643198 
L 268.094118 685.140351 
L 269.521228 684.914372 
L 272.375448 684.055655 
L 273.802558 683.332524 
L 275.229668 682.744981 
L 276.656777 682.383416 
L 278.083887 681.841068 
L 279.510997 680.891959 
L 282.365217 680.123633 
L 283.792327 679.807264 
L 285.219437 679.671677 
L 286.646547 679.174524 
L 288.073657 679.174524 
L 289.500767 678.586981 
L 292.354987 678.135024 
L 295.209207 677.502285 
L 296.636317 676.914742 
L 298.063427 676.191611 
L 302.344757 674.519372 
L 305.198977 673.073111 
L 306.626087 671.762438 
L 308.053197 670.768133 
L 309.480307 670.090198 
L 310.907417 669.14109 
L 313.761637 662.452133 
L 315.188747 661.86459 
L 316.615857 661.412633 
L 318.042967 661.277046 
L 323.751407 660.237546 
L 325.178517 660.056764 
L 326.605627 659.46922 
L 328.032737 659.46922 
L 329.459847 659.062459 
L 330.886957 658.881677 
L 332.314066 658.248938 
L 333.741176 657.796981 
L 339.449616 657.119046 
L 340.876726 657.028655 
L 342.303836 656.712285 
L 343.730946 656.215133 
L 346.585166 655.537198 
L 348.012276 655.808372 
L 349.439386 655.266024 
L 350.866496 654.58809 
L 352.293606 654.542894 
L 355.147826 653.638981 
L 358.002046 653.096633 
L 359.429156 652.463894 
L 360.856266 651.46959 
L 365.137596 649.661764 
L 370.846036 647.582764 
L 372.273146 647.085611 
L 375.127366 646.452872 
L 376.554476 645.820133 
L 377.981586 645.413372 
L 379.408696 645.23259 
L 380.835806 644.871024 
L 382.262916 644.283481 
L 385.117136 643.695938 
L 386.544246 643.15359 
L 387.971355 643.695938 
L 390.825575 642.746829 
L 395.106905 642.159285 
L 396.534015 641.662133 
L 397.961125 641.436155 
L 399.388235 640.441851 
L 400.815345 639.763916 
L 402.242455 639.402351 
L 403.669565 638.724416 
L 406.523785 637.684916 
L 407.950895 636.781003 
L 410.805115 635.87709 
L 412.232225 635.425133 
L 413.659335 634.792394 
L 415.086445 634.476024 
L 416.513555 633.888481 
L 417.940665 633.48172 
L 419.367775 633.210546 
L 420.794885 632.577807 
L 422.221995 632.125851 
L 423.649105 631.493111 
L 425.076215 631.176742 
L 426.503325 630.453611 
L 427.930435 629.866068 
L 429.357545 628.60059 
L 432.211765 627.877459 
L 433.638875 627.289916 
L 435.065985 627.063938 
L 436.493095 626.657177 
L 437.920205 626.431198 
L 439.347315 626.069633 
L 440.774425 625.256111 
L 443.628645 623.945438 
L 446.482864 621.776046 
L 447.909974 621.233698 
L 452.191304 618.160394 
L 455.045524 617.16609 
L 457.899744 615.900611 
L 459.326854 615.403459 
L 460.753964 614.589938 
L 462.181074 613.595633 
L 463.608184 612.962894 
L 466.462404 610.883894 
L 467.889514 609.844394 
L 469.316624 608.126959 
L 470.743734 605.053655 
L 473.597954 601.212024 
L 475.025064 599.268611 
L 476.452174 599.268611 
L 477.879284 600.669677 
L 479.306394 600.669677 
L 479.306394 600.669677 
" clip-path="url(#p1b501e9ae0)" style="fill: none; stroke: #a2c5c4; stroke-width: 2; stroke-linecap: square"/>
   </g>
   <g id="LineCollection_2">
    <path d="M 417.940665 846.398438 
L 417.940665 394.441916 
" clip-path="url(#p1b501e9ae0)" style="fill: none; stroke-dasharray: 1.5,2.475; stroke-dashoffset: 0; stroke: #808080; stroke-width: 1.5"/>
   </g>
   <g id="patch_27">
    <path d="M 136.8 846.398438 
L 136.8 484.83322 
" style="fill: none; stroke: #000000; stroke-width: 0.8; stroke-linejoin: miter; stroke-linecap: square"/>
   </g>
   <g id="patch_28">
    <path d="M 500.713043 846.398438 
L 500.713043 484.83322 
" style="fill: none; stroke: #000000; stroke-width: 0.8; stroke-linejoin: miter; stroke-linecap: square"/>
   </g>
   <g id="patch_29">
    <path d="M 136.8 846.398438 
L 500.713043 846.398438 
" style="fill: none; stroke: #000000; stroke-width: 0.8; stroke-linejoin: miter; stroke-linecap: square"/>
   </g>
   <g id="patch_30">
    <path d="M 136.8 484.83322 
L 500.713043 484.83322 
" style="fill: none; stroke: #000000; stroke-width: 0.8; stroke-linejoin: miter; stroke-linecap: square"/>
   </g>
   <g id="text_49">
    <!-- Last update 2026-02-14 15:20:01 (UTC). -->
    <g transform="translate(5.4 955.519688) scale(0.066667 -0.066667)">
     <defs>
      <path id="DejaVuSans-4c" d="M 628 4666 
L 1259 4666 
L 1259 531 
L 3531 531 
L 3531 0 
L 628 0 
L 628 4666 
z
" transform="scale(0.015625)"/>
      <path id="DejaVuSans-2d" d="M 313 2009 
L 1997 2009 
L 1997 1497 
L 313 1497 
L 313 2009 
z
" transform="scale(0.015625)"/>
      <path id="DejaVuSans-3a" d="M 750 794 
L 1409 794 
L 1409 0 
L 750 0 
L 750 794 
z
M 750 3309 
L 1409 3309 
L 1409 2516 
L 750 2516 
L 750 3309 
z
" transform="scale(0.015625)"/>
      <path id="DejaVuSans-55" d="M 556 4666 
L 1191 4666 
L 1191 1831 
Q 1191 1081 1462 751 
Q 1734 422 2344 422 
Q 2950 422 3222 751 
Q 3494 1081 3494 1831 
L 3494 4666 
L 4128 4666 
L 4128 1753 
Q 4128 841 3676 375 
Q 3225 -91 2344 -91 
Q 1459 -91 1007 375 
Q 556 841 556 1753 
L 556 4666 
z
" transform="scale(0.015625)"/>
     </defs>
     <use xlink:href="#DejaVuSans-4c"/>
     <use xlink:href="#DejaVuSans-61" transform="translate(55.712891 0)"/>
     <use xlink:href="#DejaVuSans-73" transform="translate(116.992188 0)"/>
     <use xlink:href="#DejaVuSans-74" transform="translate(169.091797 0)"/>
     <use xlink:href="#DejaVuSans-20" transform="translate(208.300781 0)"/>
     <use xlink:href="#DejaVuSans-75" transform="translate(240.087891 0)"/>
     <use xlink:href="#DejaVuSans-70" transform="translate(303.466797 0)"/>
     <use xlink:href="#DejaVuSans-64" transform="translate(366.943359 0)"/>
     <use xlink:href="#DejaVuSans-61" transform="translate(430.419922 0)"/>
     <use xlink:href="#DejaVuSans-74" transform="translate(491.699219 0)"/>
     <use xlink:href="#DejaVuSans-65" transform="translate(530.908203 0)"/>
     <use xlink:href="#DejaVuSans-20" transform="translate(592.431641 0)"/>
     <use xlink:href="#DejaVuSans-32" transform="translate(624.21875 0)"/>
     <use xlink:href="#DejaVuSans-30" transform="translate(687.841797 0)"/>
     <use xlink:href="#DejaVuSans-32" transform="translate(751.464844 0)"/>
     <use xlink:href="#DejaVuSans-36" transform="translate(815.087891 0)"/>
     <use xlink:href="#DejaVuSans-2d" transform="translate(878.710938 0)"/>
     <use xlink:href="#DejaVuSans-30" transform="translate(914.794922 0)"/>
     <use xlink:href="#DejaVuSans-32" transform="translate(978.417969 0)"/>
     <use xlink:href="#DejaVuSans-2d" transform="translate(1042.041016 0)"/>
     <use xlink:href="#DejaVuSans-31" transform="translate(1078.125 0)"/>
     <use xlink:href="#DejaVuSans-34" transform="translate(1141.748047 0)"/>
     <use xlink:href="#DejaVuSans-20" transform="translate(1205.371094 0)"/>
     <use xlink:href="#DejaVuSans-31" transform="translate(1237.158203 0)"/>
     <use xlink:href="#DejaVuSans-35" transform="translate(1300.78125 0)"/>
     <use xlink:href="#DejaVuSans-3a" transform="translate(1364.404297 0)"/>
     <use xlink:href="#DejaVuSans-32" transform="translate(1398.095703 0)"/>
     <use xlink:href="#DejaVuSans-30" transform="translate(1461.71875 0)"/>
     <use xlink:href="#DejaVuSans-3a" transform="translate(1525.341797 0)"/>
     <use xlink:href="#DejaVuSans-30" transform="translate(1559.033203 0)"/>
     <use xlink:href="#DejaVuSans-31" transform="translate(1622.65625 0)"/>
     <use xlink:href="#DejaVuSans-20" transform="translate(1686.279297 0)"/>
     <use xlink:href="#DejaVuSans-28" transform="translate(1718.066406 0)"/>
     <use xlink:href="#DejaVuSans-55" transform="translate(1757.080078 0)"/>
     <use xlink:href="#DejaVuSans-54" transform="translate(1830.273438 0)"/>
     <use xlink:href="#DejaVuSans-43" transform="translate(1885.482422 0)"/>
     <use xlink:href="#DejaVuSans-29" transform="translate(1955.306641 0)"/>
     <use xlink:href="#DejaVuSans-2e" transform="translate(1994.320312 0)"/>
    </g>
    <!-- For questions, contact @GermanCoyote. -->
    <g transform="translate(5.4 962.984896) scale(0.066667 -0.066667)">
     <defs>
      <path id="DejaVuSans-71" d="M 947 1747 
Q 947 1113 1208 752 
Q 1469 391 1925 391 
Q 2381 391 2643 752 
Q 2906 1113 2906 1747 
Q 2906 2381 2643 2742 
Q 2381 3103 1925 3103 
Q 1469 3103 1208 2742 
Q 947 2381 947 1747 
z
M 2906 525 
Q 2725 213 2448 61 
Q 2172 -91 1784 -91 
Q 1150 -91 751 415 
Q 353 922 353 1747 
Q 353 2572 751 3078 
Q 1150 3584 1784 3584 
Q 2172 3584 2448 3432 
Q 2725 3281 2906 2969 
L 2906 3500 
L 3481 3500 
L 3481 -1331 
L 2906 -1331 
L 2906 525 
z
" transform="scale(0.015625)"/>
      <path id="DejaVuSans-40" d="M 2381 1678 
Q 2381 1231 2603 976 
Q 2825 722 3213 722 
Q 3597 722 3817 978 
Q 4038 1234 4038 1678 
Q 4038 2116 3813 2373 
Q 3588 2631 3206 2631 
Q 2828 2631 2604 2375 
Q 2381 2119 2381 1678 
z
M 4084 744 
Q 3897 503 3655 389 
Q 3413 275 3091 275 
Q 2553 275 2217 664 
Q 1881 1053 1881 1678 
Q 1881 2303 2218 2693 
Q 2556 3084 3091 3084 
Q 3413 3084 3656 2967 
Q 3900 2850 4084 2613 
L 4084 3022 
L 4531 3022 
L 4531 722 
Q 4988 791 5245 1139 
Q 5503 1488 5503 2041 
Q 5503 2375 5404 2669 
Q 5306 2963 5106 3213 
Q 4781 3622 4314 3839 
Q 3847 4056 3297 4056 
Q 2913 4056 2559 3954 
Q 2206 3853 1906 3653 
Q 1416 3334 1139 2817 
Q 863 2300 863 1697 
Q 863 1200 1042 765 
Q 1222 331 1563 0 
Q 1891 -325 2322 -495 
Q 2753 -666 3244 -666 
Q 3647 -666 4036 -530 
Q 4425 -394 4750 -141 
L 5031 -488 
Q 4641 -791 4180 -952 
Q 3719 -1113 3244 -1113 
Q 2666 -1113 2153 -908 
Q 1641 -703 1241 -313 
Q 841 78 631 592 
Q 422 1106 422 1697 
Q 422 2266 634 2781 
Q 847 3297 1241 3688 
Q 1644 4084 2172 4295 
Q 2700 4506 3291 4506 
Q 3953 4506 4520 4234 
Q 5088 3963 5472 3463 
Q 5706 3156 5829 2797 
Q 5953 2438 5953 2053 
Q 5953 1231 5456 756 
Q 4959 281 4084 263 
L 4084 744 
z
" transform="scale(0.015625)"/>
      <path id="DejaVuSans-47" d="M 3809 666 
L 3809 1919 
L 2778 1919 
L 2778 2438 
L 4434 2438 
L 4434 434 
Q 4069 175 3628 42 
Q 3188 -91 2688 -91 
Q 1594 -91 976 548 
Q 359 1188 359 2328 
Q 359 3472 976 4111 
Q 1594 4750 2688 4750 
Q 3144 4750 3555 4637 
Q 3966 4525 4313 4306 
L 4313 3634 
Q 3963 3931 3569 4081 
Q 3175 4231 2741 4231 
Q 1884 4231 1454 3753 
Q 1025 3275 1025 2328 
Q 1025 1384 1454 906 
Q 1884 428 2741 428 
Q 3075 428 3337 486 
Q 3600 544 3809 666 
z
" transform="scale(0.015625)"/>
     </defs>
     <use xlink:href="#DejaVuSans-46"/>
     <use xlink:href="#DejaVuSans-6f" transform="translate(53.894531 0)"/>
     <use xlink:href="#DejaVuSans-72" transform="translate(115.076172 0)"/>
     <use xlink:href="#DejaVuSans-20" transform="translate(156.189453 0)"/>
     <use xlink:href="#DejaVuSans-71" transform="translate(187.976562 0)"/>
     <use xlink:href="#DejaVuSans-75" transform="translate(251.453125 0)"/>
     <use xlink:href="#DejaVuSans-65" transform="translate(314.832031 0)"/>
     <use xlink:href="#DejaVuSans-73" transform="translate(376.355469 0)"/>
     <use xlink:href="#DejaVuSans-74" transform="translate(428.455078 0)"/>
     <use xlink:href="#DejaVuSans-69" transform="translate(467.664062 0)"/>
     <use xlink:href="#DejaVuSans-6f" transform="translate(495.447266 0)"/>
     <use xlink:href="#DejaVuSans-6e" transform="translate(556.628906 0)"/>
     <use xlink:href="#DejaVuSans-73" transform="translate(620.007812 0)"/>
     <use xlink:href="#DejaVuSans-2c" transform="translate(672.107422 0)"/>
     <use xlink:href="#DejaVuSans-20" transform="translate(703.894531 0)"/>
     <use xlink:href="#DejaVuSans-63" transform="translate(735.681641 0)"/>
     <use xlink:href="#DejaVuSans-6f" transform="translate(790.662109 0)"/>
     <use xlink:href="#DejaVuSans-6e" transform="translate(851.84375 0)"/>
     <use xlink:href="#DejaVuSans-74" transform="translate(915.222656 0)"/>
     <use xlink:href="#DejaVuSans-61" transform="translate(954.431641 0)"/>
     <use xlink:href="#DejaVuSans-63" transform="translate(1015.710938 0)"/>
     <use xlink:href="#DejaVuSans-74" transform="translate(1070.691406 0)"/>
     <use xlink:href="#DejaVuSans-20" transform="translate(1109.900391 0)"/>
     <use xlink:href="#DejaVuSans-40" transform="translate(1141.6875 0)"/>
     <use xlink:href="#DejaVuSans-47" transform="translate(1241.6875 0)"/>
     <use xlink:href="#DejaVuSans-65" transform="translate(1319.177734 0)"/>
     <use xlink:href="#DejaVuSans-72" transform="translate(1380.701172 0)"/>
     <use xlink:href="#DejaVuSans-6d" transform="translate(1420.064453 0)"/>
     <use xlink:href="#DejaVuSans-61" transform="translate(1517.476562 0)"/>
     <use xlink:href="#DejaVuSans-6e" transform="translate(1578.755859 0)"/>
     <use xlink:href="#DejaVuSans-43" transform="translate(1642.134766 0)"/>
     <use xlink:href="#DejaVuSans-6f" transform="translate(1711.958984 0)"/>
     <use xlink:href="#DejaVuSans-79" transform="translate(1773.140625 0)"/>
     <use xlink:href="#DejaVuSans-6f" transform="translate(1832.320312 0)"/>
     <use xlink:href="#DejaVuSans-74" transform="translate(1893.501953 0)"/>
     <use xlink:href="#DejaVuSans-65" transform="translate(1932.710938 0)"/>
     <use xlink:href="#DejaVuSans-2e" transform="translate(1994.234375 0)"/>
    </g>
   </g>
   <g id="legend_3">
    <g id="line2d_42">
     <path d="M 239.583475 758.477344 
L 254.583475 758.477344 
L 269.583475 758.477344 
" style="fill: none; stroke: #005953; stroke-width: 2; stroke-linecap: square"/>
    </g>
    <g id="text_50">
     <!-- 2026 -->
     <g transform="translate(281.583475 763.727344) scale(0.15 -0.15)">
      <use xlink:href="#DejaVuSans-32"/>
      <use xlink:href="#DejaVuSans-30" transform="translate(63.623047 0)"/>
      <use xlink:href="#DejaVuSans-32" transform="translate(127.246094 0)"/>
      <use xlink:href="#DejaVuSans-36" transform="translate(190.869141 0)"/>
     </g>
    </g>
    <g id="line2d_43">
     <path d="M 239.583475 780.494531 
L 254.583475 780.494531 
L 269.583475 780.494531 
" style="fill: none; stroke: #69a3a2; stroke-width: 2; stroke-linecap: square"/>
    </g>
    <g id="text_51">
     <!-- 2025 -->
     <g transform="translate(281.583475 785.744531) scale(0.15 -0.15)">
      <use xlink:href="#DejaVuSans-32"/>
      <use xlink:href="#DejaVuSans-30" transform="translate(63.623047 0)"/>
      <use xlink:href="#DejaVuSans-32" transform="translate(127.246094 0)"/>
      <use xlink:href="#DejaVuSans-35" transform="translate(190.869141 0)"/>
     </g>
    </g>
    <g id="line2d_44">
     <path d="M 239.583475 802.511719 
L 254.583475 802.511719 
L 269.583475 802.511719 
" style="fill: none; stroke: #a2c5c4; stroke-width: 2; stroke-linecap: square"/>
    </g>
    <g id="text_52">
     <!-- 2024 -->
     <g transform="translate(281.583475 807.761719) scale(0.15 -0.15)">
      <use xlink:href="#DejaVuSans-32"/>
      <use xlink:href="#DejaVuSans-30" transform="translate(63.623047 0)"/>
      <use xlink:href="#DejaVuSans-32" transform="translate(127.246094 0)"/>
      <use xlink:href="#DejaVuSans-34" transform="translate(190.869141 0)"/>
     </g>
    </g>
    <g id="line2d_45">
     <path d="M 239.583475 824.528906 
L 269.583475 824.528906 
" style="fill: none; stroke-dasharray: 1.5,2.475; stroke-dashoffset: 0; stroke: #808080; stroke-width: 1.5"/>
    </g>
    <g id="text_53">
     <!-- EF 2026 Begins -->
     <g transform="translate(281.583475 829.778906) scale(0.15 -0.15)">
      <defs>
       <path id="DejaVuSans-45" d="M 628 4666 
L 3578 4666 
L 3578 4134 
L 1259 4134 
L 1259 2753 
L 3481 2753 
L 3481 2222 
L 1259 2222 
L 1259 531 
L 3634 531 
L 3634 0 
L 628 0 
L 628 4666 
z
" transform="scale(0.015625)"/>
       <path id="DejaVuSans-42" d="M 1259 2228 
L 1259 519 
L 2272 519 
Q 2781 519 3026 730 
Q 3272 941 3272 1375 
Q 3272 1813 3026 2020 
Q 2781 2228 2272 2228 
L 1259 2228 
z
M 1259 4147 
L 1259 2741 
L 2194 2741 
Q 2656 2741 2882 2914 
Q 3109 3088 3109 3444 
Q 3109 3797 2882 3972 
Q 2656 4147 2194 4147 
L 1259 4147 
z
M 628 4666 
L 2241 4666 
Q 2963 4666 3353 4366 
Q 3744 4066 3744 3513 
Q 3744 3084 3544 2831 
Q 3344 2578 2956 2516 
Q 3422 2416 3680 2098 
Q 3938 1781 3938 1306 
Q 3938 681 3513 340 
Q 3088 0 2303 0 
L 628 0 
L 628 4666 
z
" transform="scale(0.015625)"/>
      </defs>
      <use xlink:href="#DejaVuSans-45"/>
      <use xlink:href="#DejaVuSans-46" transform="translate(63.183594 0)"/>
      <use xlink:href="#DejaVuSans-20" transform="translate(120.703125 0)"/>
      <use xlink:href="#DejaVuSans-32" transform="translate(152.490234 0)"/>
      <use xlink:href="#DejaVuSans-30" transform="translate(216.113281 0)"/>
      <use xlink:href="#DejaVuSans-32" transform="translate(279.736328 0)"/>
      <use xlink:href="#DejaVuSans-36" transform="translate(343.359375 0)"/>
      <use xlink:href="#DejaVuSans-20" transform="translate(406.982422 0)"/>
      <use xlink:href="#DejaVuSans-42" transform="translate(438.769531 0)"/>
      <use xlink:href="#DejaVuSans-65" transform="translate(507.373047 0)"/>
      <use xlink:href="#DejaVuSans-67" transform="translate(568.896484 0)"/>
      <use xlink:href="#DejaVuSans-69" transform="translate(632.373047 0)"/>
      <use xlink:href="#DejaVuSans-6e" transform="translate(660.15625 0)"/>
      <use xlink:href="#DejaVuSans-73" transform="translate(723.535156 0)"/>
     </g>
    </g>
   </g>
   <g id="line2d_46">
    <path d="M 138.22711 827.14509 
L 139.65422 826.82872 
L 141.08133 826.015198 
L 142.50844 694.767024 
L 143.93555 665.299459 
L 145.36266 654.859264 
L 146.78977 649.119416 
L 148.21688 645.774938 
L 149.64399 642.792024 
L 151.0711 641.345764 
" clip-path="url(#p1b501e9ae0)" style="fill: none; stroke: #005953; stroke-width: 2; stroke-linecap: square"/>
   </g>
  </g>
 </g>
 <defs>
  <clipPath id="p8f010e9c47">
   <rect x="136.8" y="14.798438" width="363.913043" height="361.565217"/>
  </clipPath>
  <clipPath id="pe7d72167b7">
   <rect x="609.886957" y="14.798438" width="363.913043" height="361.565217"/>
  </clipPath>
  <clipPath id="p1b501e9ae0">
   <rect x="136.8" y="484.83322" width="363.913043" height="361.565217"/>
  </clipPath>
 </defs>
</svg>
