<?xml version="1.0" encoding="utf-8" standalone="no"?>
<!DOCTYPE svg PUBLIC "-//W3C//DTD SVG 1.1//EN"
  "http://www.w3.org/Graphics/SVG/1.1/DTD/svg11.dtd">
<svg xmlns:xlink="http://www.w3.org/1999/xlink" width="1006.45pt" height="968.384896pt" viewBox="0 0 1006.45 968.384896" xmlns="http://www.w3.org/2000/svg" version="1.1">
 <metadata>
  <rdf:RDF xmlns:dc="http://purl.org/dc/elements/1.1/" xmlns:cc="http://creativecommons.org/ns#" xmlns:rdf="http://www.w3.org/1999/02/22-rdf-syntax-ns#">
   <cc:Work>
    <dc:type rdf:resource="http://purl.org/dc/dcmitype/StillImage"/>
    <dc:date>2026-02-09T09:40:13.756376</dc:date>
    <dc:format>image/svg+xml</dc:format>
    <dc:creator>
     <cc:Agent>
      <dc:title>Matplotlib v3.10.8, https://matplotlib.org/</dc:title>
     </cc:Agent>
    </dc:creator>
   </cc:Work>
  </rdf:RDF>
 </metadata>
 <defs>
  <style type="text/css">*{stroke-linejoin: round; stroke-linecap: butt}</style>
 </defs>
 <g id="figure_1">
  <g id="patch_1">
   <path d="M 0 968.384896 
L 1006.45 968.384896 
L 1006.45 0 
L 0 0 
z
" style="fill: #ffffff"/>
  </g>
  <g id="axes_1">
   <g id="patch_2">
    <path d="M 136.8 376.363655 
L 500.713043 376.363655 
L 500.713043 14.798438 
L 136.8 14.798438 
z
" style="fill: #ffffff"/>
   </g>
   <g id="matplotlib.axis_1">
    <g id="xtick_1">
     <g id="line2d_1">
      <defs>
       <path id="m09063f4682" d="M 0 0 
L 0 3.5 
" style="stroke: #000000; stroke-width: 0.8"/>
      </defs>
      <g>
       <use xlink:href="#m09063f4682" x="136.8" y="376.363655" style="stroke: #000000; stroke-width: 0.8"/>
      </g>
     </g>
     <g id="text_1">
      <!-- Feb -->
      <g transform="translate(119.096875 405.06053) scale(0.2 -0.2)">
       <defs>
        <path id="DejaVuSans-46" d="M 628 4666 
L 3309 4666 
L 3309 4134 
L 1259 4134 
L 1259 2759 
L 3109 2759 
L 3109 2228 
L 1259 2228 
L 1259 0 
L 628 0 
L 628 4666 
z
" transform="scale(0.015625)"/>
        <path id="DejaVuSans-65" d="M 3597 1894 
L 3597 1613 
L 953 1613 
Q 991 1019 1311 708 
Q 1631 397 2203 397 
Q 2534 397 2845 478 
Q 3156 559 3463 722 
L 3463 178 
Q 3153 47 2828 -22 
Q 2503 -91 2169 -91 
Q 1331 -91 842 396 
Q 353 884 353 1716 
Q 353 2575 817 3079 
Q 1281 3584 2069 3584 
Q 2775 3584 3186 3129 
Q 3597 2675 3597 1894 
z
M 3022 2063 
Q 3016 2534 2758 2815 
Q 2500 3097 2075 3097 
Q 1594 3097 1305 2825 
Q 1016 2553 972 2059 
L 3022 2063 
z
" transform="scale(0.015625)"/>
        <path id="DejaVuSans-62" d="M 3116 1747 
Q 3116 2381 2855 2742 
Q 2594 3103 2138 3103 
Q 1681 3103 1420 2742 
Q 1159 2381 1159 1747 
Q 1159 1113 1420 752 
Q 1681 391 2138 391 
Q 2594 391 2855 752 
Q 3116 1113 3116 1747 
z
M 1159 2969 
Q 1341 3281 1617 3432 
Q 1894 3584 2278 3584 
Q 2916 3584 3314 3078 
Q 3713 2572 3713 1747 
Q 3713 922 3314 415 
Q 2916 -91 2278 -91 
Q 1894 -91 1617 61 
Q 1341 213 1159 525 
L 1159 0 
L 581 0 
L 581 4863 
L 1159 4863 
L 1159 2969 
z
" transform="scale(0.015625)"/>
       </defs>
       <use xlink:href="#DejaVuSans-46"/>
       <use xlink:href="#DejaVuSans-65" transform="translate(52.019531 0)"/>
       <use xlink:href="#DejaVuSans-62" transform="translate(113.542969 0)"/>
      </g>
     </g>
    </g>
    <g id="xtick_2">
     <g id="line2d_2">
      <g>
       <use xlink:href="#m09063f4682" x="500.713043" y="376.363655" style="stroke: #000000; stroke-width: 0.8"/>
      </g>
     </g>
     <g id="text_2">
      <!-- Mar -->
      <g transform="translate(481.845856 405.06053) scale(0.2 -0.2)">
       <defs>
        <path id="DejaVuSans-4d" d="M 628 4666 
L 1569 4666 
L 2759 1491 
L 3956 4666 
L 4897 4666 
L 4897 0 
L 4281 0 
L 4281 4097 
L 3078 897 
L 2444 897 
L 1241 4097 
L 1241 0 
L 628 0 
L 628 4666 
z
" transform="scale(0.015625)"/>
        <path id="DejaVuSans-61" d="M 2194 1759 
Q 1497 1759 1228 1600 
Q 959 1441 959 1056 
Q 959 750 1161 570 
Q 1363 391 1709 391 
Q 2188 391 2477 730 
Q 2766 1069 2766 1631 
L 2766 1759 
L 2194 1759 
z
M 3341 1997 
L 3341 0 
L 2766 0 
L 2766 531 
Q 2569 213 2275 61 
Q 1981 -91 1556 -91 
Q 1019 -91 701 211 
Q 384 513 384 1019 
Q 384 1609 779 1909 
Q 1175 2209 1959 2209 
L 2766 2209 
L 2766 2266 
Q 2766 2663 2505 2880 
Q 2244 3097 1772 3097 
Q 1472 3097 1187 3025 
Q 903 2953 641 2809 
L 641 3341 
Q 956 3463 1253 3523 
Q 1550 3584 1831 3584 
Q 2591 3584 2966 3190 
Q 3341 2797 3341 1997 
z
" transform="scale(0.015625)"/>
        <path id="DejaVuSans-72" d="M 2631 2963 
Q 2534 3019 2420 3045 
Q 2306 3072 2169 3072 
Q 1681 3072 1420 2755 
Q 1159 2438 1159 1844 
L 1159 0 
L 581 0 
L 581 3500 
L 1159 3500 
L 1159 2956 
Q 1341 3275 1631 3429 
Q 1922 3584 2338 3584 
Q 2397 3584 2469 3576 
Q 2541 3569 2628 3553 
L 2631 2963 
z
" transform="scale(0.015625)"/>
       </defs>
       <use xlink:href="#DejaVuSans-4d"/>
       <use xlink:href="#DejaVuSans-61" transform="translate(86.279297 0)"/>
       <use xlink:href="#DejaVuSans-72" transform="translate(147.558594 0)"/>
      </g>
     </g>
    </g>
    <g id="text_3">
     <!-- Time -->
     <g transform="translate(294.289334 434.41678) scale(0.2 -0.2)">
      <defs>
       <path id="DejaVuSans-54" d="M -19 4666 
L 3928 4666 
L 3928 4134 
L 2272 4134 
L 2272 0 
L 1638 0 
L 1638 4134 
L -19 4134 
L -19 4666 
z
" transform="scale(0.015625)"/>
       <path id="DejaVuSans-69" d="M 603 3500 
L 1178 3500 
L 1178 0 
L 603 0 
L 603 3500 
z
M 603 4863 
L 1178 4863 
L 1178 4134 
L 603 4134 
L 603 4863 
z
" transform="scale(0.015625)"/>
       <path id="DejaVuSans-6d" d="M 3328 2828 
Q 3544 3216 3844 3400 
Q 4144 3584 4550 3584 
Q 5097 3584 5394 3201 
Q 5691 2819 5691 2113 
L 5691 0 
L 5113 0 
L 5113 2094 
Q 5113 2597 4934 2840 
Q 4756 3084 4391 3084 
Q 3944 3084 3684 2787 
Q 3425 2491 3425 1978 
L 3425 0 
L 2847 0 
L 2847 2094 
Q 2847 2600 2669 2842 
Q 2491 3084 2119 3084 
Q 1678 3084 1418 2786 
Q 1159 2488 1159 1978 
L 1159 0 
L 581 0 
L 581 3500 
L 1159 3500 
L 1159 2956 
Q 1356 3278 1631 3431 
Q 1906 3584 2284 3584 
Q 2666 3584 2933 3390 
Q 3200 3197 3328 2828 
z
" transform="scale(0.015625)"/>
      </defs>
      <use xlink:href="#DejaVuSans-54"/>
      <use xlink:href="#DejaVuSans-69" transform="translate(57.958984 0)"/>
      <use xlink:href="#DejaVuSans-6d" transform="translate(85.742188 0)"/>
      <use xlink:href="#DejaVuSans-65" transform="translate(183.154297 0)"/>
     </g>
    </g>
   </g>
   <g id="matplotlib.axis_2">
    <g id="ytick_1">
     <g id="line2d_3">
      <defs>
       <path id="m74c9e37581" d="M 0 0 
L -3.5 0 
" style="stroke: #000000; stroke-width: 0.8"/>
      </defs>
      <g>
       <use xlink:href="#m74c9e37581" x="136.8" y="376.363655" style="stroke: #000000; stroke-width: 0.8"/>
      </g>
     </g>
     <g id="text_4">
      <!-- 0 -->
      <g transform="translate(110.575 383.962092) scale(0.2 -0.2)">
       <defs>
        <path id="DejaVuSans-30" d="M 2034 4250 
Q 1547 4250 1301 3770 
Q 1056 3291 1056 2328 
Q 1056 1369 1301 889 
Q 1547 409 2034 409 
Q 2525 409 2770 889 
Q 3016 1369 3016 2328 
Q 3016 3291 2770 3770 
Q 2525 4250 2034 4250 
z
M 2034 4750 
Q 2819 4750 3233 4129 
Q 3647 3509 3647 2328 
Q 3647 1150 3233 529 
Q 2819 -91 2034 -91 
Q 1250 -91 836 529 
Q 422 1150 422 2328 
Q 422 3509 836 4129 
Q 1250 4750 2034 4750 
z
" transform="scale(0.015625)"/>
       </defs>
       <use xlink:href="#DejaVuSans-30"/>
      </g>
     </g>
    </g>
    <g id="ytick_2">
     <g id="line2d_4">
      <g>
       <use xlink:href="#m74c9e37581" x="136.8" y="304.050611" style="stroke: #000000; stroke-width: 0.8"/>
      </g>
     </g>
     <g id="text_5">
      <!-- 1000 -->
      <g transform="translate(72.4 311.649049) scale(0.2 -0.2)">
       <defs>
        <path id="DejaVuSans-31" d="M 794 531 
L 1825 531 
L 1825 4091 
L 703 3866 
L 703 4441 
L 1819 4666 
L 2450 4666 
L 2450 531 
L 3481 531 
L 3481 0 
L 794 0 
L 794 531 
z
" transform="scale(0.015625)"/>
       </defs>
       <use xlink:href="#DejaVuSans-31"/>
       <use xlink:href="#DejaVuSans-30" transform="translate(63.623047 0)"/>
       <use xlink:href="#DejaVuSans-30" transform="translate(127.246094 0)"/>
       <use xlink:href="#DejaVuSans-30" transform="translate(190.869141 0)"/>
      </g>
     </g>
    </g>
    <g id="ytick_3">
     <g id="line2d_5">
      <g>
       <use xlink:href="#m74c9e37581" x="136.8" y="231.737568" style="stroke: #000000; stroke-width: 0.8"/>
      </g>
     </g>
     <g id="text_6">
      <!-- 2000 -->
      <g transform="translate(72.4 239.336005) scale(0.2 -0.2)">
       <defs>
        <path id="DejaVuSans-32" d="M 1228 531 
L 3431 531 
L 3431 0 
L 469 0 
L 469 531 
Q 828 903 1448 1529 
Q 2069 2156 2228 2338 
Q 2531 2678 2651 2914 
Q 2772 3150 2772 3378 
Q 2772 3750 2511 3984 
Q 2250 4219 1831 4219 
Q 1534 4219 1204 4116 
Q 875 4013 500 3803 
L 500 4441 
Q 881 4594 1212 4672 
Q 1544 4750 1819 4750 
Q 2544 4750 2975 4387 
Q 3406 4025 3406 3419 
Q 3406 3131 3298 2873 
Q 3191 2616 2906 2266 
Q 2828 2175 2409 1742 
Q 1991 1309 1228 531 
z
" transform="scale(0.015625)"/>
       </defs>
       <use xlink:href="#DejaVuSans-32"/>
       <use xlink:href="#DejaVuSans-30" transform="translate(63.623047 0)"/>
       <use xlink:href="#DejaVuSans-30" transform="translate(127.246094 0)"/>
       <use xlink:href="#DejaVuSans-30" transform="translate(190.869141 0)"/>
      </g>
     </g>
    </g>
    <g id="ytick_4">
     <g id="line2d_6">
      <g>
       <use xlink:href="#m74c9e37581" x="136.8" y="159.424524" style="stroke: #000000; stroke-width: 0.8"/>
      </g>
     </g>
     <g id="text_7">
      <!-- 3000 -->
      <g transform="translate(72.4 167.022962) scale(0.2 -0.2)">
       <defs>
        <path id="DejaVuSans-33" d="M 2597 2516 
Q 3050 2419 3304 2112 
Q 3559 1806 3559 1356 
Q 3559 666 3084 287 
Q 2609 -91 1734 -91 
Q 1441 -91 1130 -33 
Q 819 25 488 141 
L 488 750 
Q 750 597 1062 519 
Q 1375 441 1716 441 
Q 2309 441 2620 675 
Q 2931 909 2931 1356 
Q 2931 1769 2642 2001 
Q 2353 2234 1838 2234 
L 1294 2234 
L 1294 2753 
L 1863 2753 
Q 2328 2753 2575 2939 
Q 2822 3125 2822 3475 
Q 2822 3834 2567 4026 
Q 2313 4219 1838 4219 
Q 1578 4219 1281 4162 
Q 984 4106 628 3988 
L 628 4550 
Q 988 4650 1302 4700 
Q 1616 4750 1894 4750 
Q 2613 4750 3031 4423 
Q 3450 4097 3450 3541 
Q 3450 3153 3228 2886 
Q 3006 2619 2597 2516 
z
" transform="scale(0.015625)"/>
       </defs>
       <use xlink:href="#DejaVuSans-33"/>
       <use xlink:href="#DejaVuSans-30" transform="translate(63.623047 0)"/>
       <use xlink:href="#DejaVuSans-30" transform="translate(127.246094 0)"/>
       <use xlink:href="#DejaVuSans-30" transform="translate(190.869141 0)"/>
      </g>
     </g>
    </g>
    <g id="ytick_5">
     <g id="line2d_7">
      <g>
       <use xlink:href="#m74c9e37581" x="136.8" y="87.111481" style="stroke: #000000; stroke-width: 0.8"/>
      </g>
     </g>
     <g id="text_8">
      <!-- 4000 -->
      <g transform="translate(72.4 94.709918) scale(0.2 -0.2)">
       <defs>
        <path id="DejaVuSans-34" d="M 2419 4116 
L 825 1625 
L 2419 1625 
L 2419 4116 
z
M 2253 4666 
L 3047 4666 
L 3047 1625 
L 3713 1625 
L 3713 1100 
L 3047 1100 
L 3047 0 
L 2419 0 
L 2419 1100 
L 313 1100 
L 313 1709 
L 2253 4666 
z
" transform="scale(0.015625)"/>
       </defs>
       <use xlink:href="#DejaVuSans-34"/>
       <use xlink:href="#DejaVuSans-30" transform="translate(63.623047 0)"/>
       <use xlink:href="#DejaVuSans-30" transform="translate(127.246094 0)"/>
       <use xlink:href="#DejaVuSans-30" transform="translate(190.869141 0)"/>
      </g>
     </g>
    </g>
    <g id="ytick_6">
     <g id="line2d_8">
      <g>
       <use xlink:href="#m74c9e37581" x="136.8" y="14.798438" style="stroke: #000000; stroke-width: 0.8"/>
      </g>
     </g>
     <g id="text_9">
      <!-- 5000 -->
      <g transform="translate(72.4 22.396875) scale(0.2 -0.2)">
       <defs>
        <path id="DejaVuSans-35" d="M 691 4666 
L 3169 4666 
L 3169 4134 
L 1269 4134 
L 1269 2991 
Q 1406 3038 1543 3061 
Q 1681 3084 1819 3084 
Q 2600 3084 3056 2656 
Q 3513 2228 3513 1497 
Q 3513 744 3044 326 
Q 2575 -91 1722 -91 
Q 1428 -91 1123 -41 
Q 819 9 494 109 
L 494 744 
Q 775 591 1075 516 
Q 1375 441 1709 441 
Q 2250 441 2565 725 
Q 2881 1009 2881 1497 
Q 2881 1984 2565 2268 
Q 2250 2553 1709 2553 
Q 1456 2553 1204 2497 
Q 953 2441 691 2322 
L 691 4666 
z
" transform="scale(0.015625)"/>
       </defs>
       <use xlink:href="#DejaVuSans-35"/>
       <use xlink:href="#DejaVuSans-30" transform="translate(63.623047 0)"/>
       <use xlink:href="#DejaVuSans-30" transform="translate(127.246094 0)"/>
       <use xlink:href="#DejaVuSans-30" transform="translate(190.869141 0)"/>
      </g>
     </g>
    </g>
    <g id="text_10">
     <!-- Count -->
     <g transform="translate(58.240625 225.277921) rotate(-90) scale(0.2 -0.2)">
      <defs>
       <path id="DejaVuSans-43" d="M 4122 4306 
L 4122 3641 
Q 3803 3938 3442 4084 
Q 3081 4231 2675 4231 
Q 1875 4231 1450 3742 
Q 1025 3253 1025 2328 
Q 1025 1406 1450 917 
Q 1875 428 2675 428 
Q 3081 428 3442 575 
Q 3803 722 4122 1019 
L 4122 359 
Q 3791 134 3420 21 
Q 3050 -91 2638 -91 
Q 1578 -91 968 557 
Q 359 1206 359 2328 
Q 359 3453 968 4101 
Q 1578 4750 2638 4750 
Q 3056 4750 3426 4639 
Q 3797 4528 4122 4306 
z
" transform="scale(0.015625)"/>
       <path id="DejaVuSans-6f" d="M 1959 3097 
Q 1497 3097 1228 2736 
Q 959 2375 959 1747 
Q 959 1119 1226 758 
Q 1494 397 1959 397 
Q 2419 397 2687 759 
Q 2956 1122 2956 1747 
Q 2956 2369 2687 2733 
Q 2419 3097 1959 3097 
z
M 1959 3584 
Q 2709 3584 3137 3096 
Q 3566 2609 3566 1747 
Q 3566 888 3137 398 
Q 2709 -91 1959 -91 
Q 1206 -91 779 398 
Q 353 888 353 1747 
Q 353 2609 779 3096 
Q 1206 3584 1959 3584 
z
" transform="scale(0.015625)"/>
       <path id="DejaVuSans-75" d="M 544 1381 
L 544 3500 
L 1119 3500 
L 1119 1403 
Q 1119 906 1312 657 
Q 1506 409 1894 409 
Q 2359 409 2629 706 
Q 2900 1003 2900 1516 
L 2900 3500 
L 3475 3500 
L 3475 0 
L 2900 0 
L 2900 538 
Q 2691 219 2414 64 
Q 2138 -91 1772 -91 
Q 1169 -91 856 284 
Q 544 659 544 1381 
z
M 1991 3584 
L 1991 3584 
z
" transform="scale(0.015625)"/>
       <path id="DejaVuSans-6e" d="M 3513 2113 
L 3513 0 
L 2938 0 
L 2938 2094 
Q 2938 2591 2744 2837 
Q 2550 3084 2163 3084 
Q 1697 3084 1428 2787 
Q 1159 2491 1159 1978 
L 1159 0 
L 581 0 
L 581 3500 
L 1159 3500 
L 1159 2956 
Q 1366 3272 1645 3428 
Q 1925 3584 2291 3584 
Q 2894 3584 3203 3211 
Q 3513 2838 3513 2113 
z
" transform="scale(0.015625)"/>
       <path id="DejaVuSans-74" d="M 1172 4494 
L 1172 3500 
L 2356 3500 
L 2356 3053 
L 1172 3053 
L 1172 1153 
Q 1172 725 1289 603 
Q 1406 481 1766 481 
L 2356 481 
L 2356 0 
L 1766 0 
Q 1100 0 847 248 
Q 594 497 594 1153 
L 594 3053 
L 172 3053 
L 172 3500 
L 594 3500 
L 594 4494 
L 1172 4494 
z
" transform="scale(0.015625)"/>
      </defs>
      <use xlink:href="#DejaVuSans-43"/>
      <use xlink:href="#DejaVuSans-6f" transform="translate(69.824219 0)"/>
      <use xlink:href="#DejaVuSans-75" transform="translate(131.005859 0)"/>
      <use xlink:href="#DejaVuSans-6e" transform="translate(194.384766 0)"/>
      <use xlink:href="#DejaVuSans-74" transform="translate(257.763672 0)"/>
     </g>
    </g>
   </g>
   <g id="line2d_9">
    <path d="M 198.438939 345.919864 
L 199.312374 345.847551 
L 199.633691 345.702924 
L 201.026405 345.702924 
L 201.170086 345.558298 
L 207.191755 345.558298 
L 207.721694 345.341359 
L 211.003245 345.269046 
L 212.124577 345.196733 
L 213.66326 345.12442 
L 214.647422 345.052107 
L 220.105138 344.979794 
L 220.212436 344.907481 
L 221.921199 344.835168 
L 222.333707 344.690542 
L 224.161984 344.618229 
L 224.424081 344.473603 
L 225.044556 344.473603 
L 225.619372 344.112037 
L 226.568722 344.039724 
L 226.722301 343.822785 
L 227.379668 343.750472 
L 230.043092 343.678159 
L 236.019717 343.244281 
L 236.574194 343.244281 
L 236.924395 343.027342 
L 237.159462 343.027342 
L 237.686141 342.665777 
L 238.056557 342.593464 
L 238.43462 232.388385 
L 238.621473 216.696455 
L 238.964676 175.044142 
L 239.281565 159.496838 
L 240.158485 139.104559 
L 240.684761 133.753394 
L 241.307344 130.426994 
L 243.678584 125.654333 
L 244.379612 123.91882 
L 246.010234 116.398264 
L 246.010234 116.398264 
" clip-path="url(#pedb8070c08)" style="fill: none; stroke: #005953; stroke-width: 2; stroke-linecap: square"/>
   </g>
   <g id="line2d_10">
    <path d="M 198.438939 375.06202 
L 198.830807 375.06202 
L 200.06732 374.772768 
L 207.191755 374.772768 
L 207.721694 372.386437 
L 211.003245 372.386437 
L 211.499452 371.01249 
L 213.111741 371.01249 
L 213.398301 370.650924 
L 225.044556 370.650924 
L 225.381837 368.770785 
L 226.568722 368.698472 
L 226.722301 368.626159 
L 234.2845 368.626159 
L 234.92466 367.758403 
L 235.759796 367.396838 
L 237.159462 367.324524 
L 237.42691 367.035272 
L 237.686141 367.035272 
L 238.324838 366.890646 
L 239.042074 366.890646 
L 239.080194 366.529081 
L 239.281565 366.529081 
L 239.569464 366.384455 
L 239.806124 366.095203 
L 240.158485 364.865881 
L 242.85132 364.865881 
L 243.678584 364.504316 
L 244.379612 364.432003 
L 244.946069 363.491933 
L 246.010234 361.177916 
L 246.010234 361.177916 
" clip-path="url(#pedb8070c08)" style="fill: none; stroke: #69a3a2; stroke-width: 2; stroke-linecap: square"/>
   </g>
   <g id="LineCollection_1">
    <path clip-path="url(#pedb8070c08)" style="fill: none; stroke: #d3d3d3; stroke-width: 0.5"/>
    <path clip-path="url(#pedb8070c08)" style="fill: none; stroke: #d3d3d3; stroke-width: 0.5"/>
    <path clip-path="url(#pedb8070c08)" style="fill: none; stroke: #d3d3d3; stroke-width: 0.5"/>
    <path clip-path="url(#pedb8070c08)" style="fill: none; stroke: #d3d3d3; stroke-width: 0.5"/>
    <path clip-path="url(#pedb8070c08)" style="fill: none; stroke: #d3d3d3; stroke-width: 0.5"/>
    <path clip-path="url(#pedb8070c08)" style="fill: none; stroke: #d3d3d3; stroke-width: 0.5"/>
    <path clip-path="url(#pedb8070c08)" style="fill: none; stroke: #d3d3d3; stroke-width: 0.5"/>
    <path clip-path="url(#pedb8070c08)" style="fill: none; stroke: #d3d3d3; stroke-width: 0.5"/>
    <path clip-path="url(#pedb8070c08)" style="fill: none; stroke: #d3d3d3; stroke-width: 0.5"/>
    <path clip-path="url(#pedb8070c08)" style="fill: none; stroke: #d3d3d3; stroke-width: 0.5"/>
    <path clip-path="url(#pedb8070c08)" style="fill: none; stroke: #d3d3d3; stroke-width: 0.5"/>
    <path clip-path="url(#pedb8070c08)" style="fill: none; stroke: #d3d3d3; stroke-width: 0.5"/>
    <path clip-path="url(#pedb8070c08)" style="fill: none; stroke: #d3d3d3; stroke-width: 0.5"/>
    <path clip-path="url(#pedb8070c08)" style="fill: none; stroke: #d3d3d3; stroke-width: 0.5"/>
    <path clip-path="url(#pedb8070c08)" style="fill: none; stroke: #d3d3d3; stroke-width: 0.5"/>
    <path clip-path="url(#pedb8070c08)" style="fill: none; stroke: #d3d3d3; stroke-width: 0.5"/>
    <path clip-path="url(#pedb8070c08)" style="fill: none; stroke: #d3d3d3; stroke-width: 0.5"/>
    <path clip-path="url(#pedb8070c08)" style="fill: none; stroke: #d3d3d3; stroke-width: 0.5"/>
    <path clip-path="url(#pedb8070c08)" style="fill: none; stroke: #d3d3d3; stroke-width: 0.5"/>
    <path clip-path="url(#pedb8070c08)" style="fill: none; stroke: #d3d3d3; stroke-width: 0.5"/>
    <path clip-path="url(#pedb8070c08)" style="fill: none; stroke: #d3d3d3; stroke-width: 0.5"/>
    <path clip-path="url(#pedb8070c08)" style="fill: none; stroke: #d3d3d3; stroke-width: 0.5"/>
    <path clip-path="url(#pedb8070c08)" style="fill: none; stroke: #d3d3d3; stroke-width: 0.5"/>
    <path clip-path="url(#pedb8070c08)" style="fill: none; stroke: #d3d3d3; stroke-width: 0.5"/>
    <path clip-path="url(#pedb8070c08)" style="fill: none; stroke: #d3d3d3; stroke-width: 0.5"/>
    <path clip-path="url(#pedb8070c08)" style="fill: none; stroke: #d3d3d3; stroke-width: 0.5"/>
    <path clip-path="url(#pedb8070c08)" style="fill: none; stroke: #d3d3d3; stroke-width: 0.5"/>
    <path clip-path="url(#pedb8070c08)" style="fill: none; stroke: #d3d3d3; stroke-width: 0.5"/>
    <path clip-path="url(#pedb8070c08)" style="fill: none; stroke: #d3d3d3; stroke-width: 0.5"/>
    <path clip-path="url(#pedb8070c08)" style="fill: none; stroke: #d3d3d3; stroke-width: 0.5"/>
    <path clip-path="url(#pedb8070c08)" style="fill: none; stroke: #d3d3d3; stroke-width: 0.5"/>
    <path clip-path="url(#pedb8070c08)" style="fill: none; stroke: #d3d3d3; stroke-width: 0.5"/>
    <path clip-path="url(#pedb8070c08)" style="fill: none; stroke: #d3d3d3; stroke-width: 0.5"/>
    <path clip-path="url(#pedb8070c08)" style="fill: none; stroke: #d3d3d3; stroke-width: 0.5"/>
    <path clip-path="url(#pedb8070c08)" style="fill: none; stroke: #d3d3d3; stroke-width: 0.5"/>
    <path clip-path="url(#pedb8070c08)" style="fill: none; stroke: #d3d3d3; stroke-width: 0.5"/>
    <path clip-path="url(#pedb8070c08)" style="fill: none; stroke: #d3d3d3; stroke-width: 0.5"/>
    <path clip-path="url(#pedb8070c08)" style="fill: none; stroke: #d3d3d3; stroke-width: 0.5"/>
    <path clip-path="url(#pedb8070c08)" style="fill: none; stroke: #d3d3d3; stroke-width: 0.5"/>
    <path clip-path="url(#pedb8070c08)" style="fill: none; stroke: #d3d3d3; stroke-width: 0.5"/>
    <path clip-path="url(#pedb8070c08)" style="fill: none; stroke: #d3d3d3; stroke-width: 0.5"/>
    <path clip-path="url(#pedb8070c08)" style="fill: none; stroke: #d3d3d3; stroke-width: 0.5"/>
    <path clip-path="url(#pedb8070c08)" style="fill: none; stroke: #d3d3d3; stroke-width: 0.5"/>
    <path clip-path="url(#pedb8070c08)" style="fill: none; stroke: #d3d3d3; stroke-width: 0.5"/>
    <path clip-path="url(#pedb8070c08)" style="fill: none; stroke: #d3d3d3; stroke-width: 0.5"/>
    <path clip-path="url(#pedb8070c08)" style="fill: none; stroke: #d3d3d3; stroke-width: 0.5"/>
    <path clip-path="url(#pedb8070c08)" style="fill: none; stroke: #d3d3d3; stroke-width: 0.5"/>
    <path clip-path="url(#pedb8070c08)" style="fill: none; stroke: #d3d3d3; stroke-width: 0.5"/>
    <path clip-path="url(#pedb8070c08)" style="fill: none; stroke: #d3d3d3; stroke-width: 0.5"/>
    <path clip-path="url(#pedb8070c08)" style="fill: none; stroke: #d3d3d3; stroke-width: 0.5"/>
   </g>
   <g id="patch_3">
    <path d="M 136.8 376.363655 
L 136.8 14.798438 
" style="fill: none; stroke: #000000; stroke-width: 0.8; stroke-linejoin: miter; stroke-linecap: square"/>
   </g>
   <g id="patch_4">
    <path d="M 500.713043 376.363655 
L 500.713043 14.798438 
" style="fill: none; stroke: #000000; stroke-width: 0.8; stroke-linejoin: miter; stroke-linecap: square"/>
   </g>
   <g id="patch_5">
    <path d="M 136.8 376.363655 
L 500.713043 376.363655 
" style="fill: none; stroke: #000000; stroke-width: 0.8; stroke-linejoin: miter; stroke-linecap: square"/>
   </g>
   <g id="patch_6">
    <path d="M 136.8 14.798438 
L 500.713043 14.798438 
" style="fill: none; stroke: #000000; stroke-width: 0.8; stroke-linejoin: miter; stroke-linecap: square"/>
   </g>
   <g id="text_11">
    <!-- 3595 total regs, out of which 210 paid at least partially. -->
    <g transform="translate(138.619565 374.555829) scale(0.066667 -0.066667)">
     <defs>
      <path id="DejaVuSans-39" d="M 703 97 
L 703 672 
Q 941 559 1184 500 
Q 1428 441 1663 441 
Q 2288 441 2617 861 
Q 2947 1281 2994 2138 
Q 2813 1869 2534 1725 
Q 2256 1581 1919 1581 
Q 1219 1581 811 2004 
Q 403 2428 403 3163 
Q 403 3881 828 4315 
Q 1253 4750 1959 4750 
Q 2769 4750 3195 4129 
Q 3622 3509 3622 2328 
Q 3622 1225 3098 567 
Q 2575 -91 1691 -91 
Q 1453 -91 1209 -44 
Q 966 3 703 97 
z
M 1959 2075 
Q 2384 2075 2632 2365 
Q 2881 2656 2881 3163 
Q 2881 3666 2632 3958 
Q 2384 4250 1959 4250 
Q 1534 4250 1286 3958 
Q 1038 3666 1038 3163 
Q 1038 2656 1286 2365 
Q 1534 2075 1959 2075 
z
" transform="scale(0.015625)"/>
      <path id="DejaVuSans-20" transform="scale(0.015625)"/>
      <path id="DejaVuSans-6c" d="M 603 4863 
L 1178 4863 
L 1178 0 
L 603 0 
L 603 4863 
z
" transform="scale(0.015625)"/>
      <path id="DejaVuSans-67" d="M 2906 1791 
Q 2906 2416 2648 2759 
Q 2391 3103 1925 3103 
Q 1463 3103 1205 2759 
Q 947 2416 947 1791 
Q 947 1169 1205 825 
Q 1463 481 1925 481 
Q 2391 481 2648 825 
Q 2906 1169 2906 1791 
z
M 3481 434 
Q 3481 -459 3084 -895 
Q 2688 -1331 1869 -1331 
Q 1566 -1331 1297 -1286 
Q 1028 -1241 775 -1147 
L 775 -588 
Q 1028 -725 1275 -790 
Q 1522 -856 1778 -856 
Q 2344 -856 2625 -561 
Q 2906 -266 2906 331 
L 2906 616 
Q 2728 306 2450 153 
Q 2172 0 1784 0 
Q 1141 0 747 490 
Q 353 981 353 1791 
Q 353 2603 747 3093 
Q 1141 3584 1784 3584 
Q 2172 3584 2450 3431 
Q 2728 3278 2906 2969 
L 2906 3500 
L 3481 3500 
L 3481 434 
z
" transform="scale(0.015625)"/>
      <path id="DejaVuSans-73" d="M 2834 3397 
L 2834 2853 
Q 2591 2978 2328 3040 
Q 2066 3103 1784 3103 
Q 1356 3103 1142 2972 
Q 928 2841 928 2578 
Q 928 2378 1081 2264 
Q 1234 2150 1697 2047 
L 1894 2003 
Q 2506 1872 2764 1633 
Q 3022 1394 3022 966 
Q 3022 478 2636 193 
Q 2250 -91 1575 -91 
Q 1294 -91 989 -36 
Q 684 19 347 128 
L 347 722 
Q 666 556 975 473 
Q 1284 391 1588 391 
Q 1994 391 2212 530 
Q 2431 669 2431 922 
Q 2431 1156 2273 1281 
Q 2116 1406 1581 1522 
L 1381 1569 
Q 847 1681 609 1914 
Q 372 2147 372 2553 
Q 372 3047 722 3315 
Q 1072 3584 1716 3584 
Q 2034 3584 2315 3537 
Q 2597 3491 2834 3397 
z
" transform="scale(0.015625)"/>
      <path id="DejaVuSans-2c" d="M 750 794 
L 1409 794 
L 1409 256 
L 897 -744 
L 494 -744 
L 750 256 
L 750 794 
z
" transform="scale(0.015625)"/>
      <path id="DejaVuSans-66" d="M 2375 4863 
L 2375 4384 
L 1825 4384 
Q 1516 4384 1395 4259 
Q 1275 4134 1275 3809 
L 1275 3500 
L 2222 3500 
L 2222 3053 
L 1275 3053 
L 1275 0 
L 697 0 
L 697 3053 
L 147 3053 
L 147 3500 
L 697 3500 
L 697 3744 
Q 697 4328 969 4595 
Q 1241 4863 1831 4863 
L 2375 4863 
z
" transform="scale(0.015625)"/>
      <path id="DejaVuSans-77" d="M 269 3500 
L 844 3500 
L 1563 769 
L 2278 3500 
L 2956 3500 
L 3675 769 
L 4391 3500 
L 4966 3500 
L 4050 0 
L 3372 0 
L 2619 2869 
L 1863 0 
L 1184 0 
L 269 3500 
z
" transform="scale(0.015625)"/>
      <path id="DejaVuSans-68" d="M 3513 2113 
L 3513 0 
L 2938 0 
L 2938 2094 
Q 2938 2591 2744 2837 
Q 2550 3084 2163 3084 
Q 1697 3084 1428 2787 
Q 1159 2491 1159 1978 
L 1159 0 
L 581 0 
L 581 4863 
L 1159 4863 
L 1159 2956 
Q 1366 3272 1645 3428 
Q 1925 3584 2291 3584 
Q 2894 3584 3203 3211 
Q 3513 2838 3513 2113 
z
" transform="scale(0.015625)"/>
      <path id="DejaVuSans-63" d="M 3122 3366 
L 3122 2828 
Q 2878 2963 2633 3030 
Q 2388 3097 2138 3097 
Q 1578 3097 1268 2742 
Q 959 2388 959 1747 
Q 959 1106 1268 751 
Q 1578 397 2138 397 
Q 2388 397 2633 464 
Q 2878 531 3122 666 
L 3122 134 
Q 2881 22 2623 -34 
Q 2366 -91 2075 -91 
Q 1284 -91 818 406 
Q 353 903 353 1747 
Q 353 2603 823 3093 
Q 1294 3584 2113 3584 
Q 2378 3584 2631 3529 
Q 2884 3475 3122 3366 
z
" transform="scale(0.015625)"/>
      <path id="DejaVuSans-70" d="M 1159 525 
L 1159 -1331 
L 581 -1331 
L 581 3500 
L 1159 3500 
L 1159 2969 
Q 1341 3281 1617 3432 
Q 1894 3584 2278 3584 
Q 2916 3584 3314 3078 
Q 3713 2572 3713 1747 
Q 3713 922 3314 415 
Q 2916 -91 2278 -91 
Q 1894 -91 1617 61 
Q 1341 213 1159 525 
z
M 3116 1747 
Q 3116 2381 2855 2742 
Q 2594 3103 2138 3103 
Q 1681 3103 1420 2742 
Q 1159 2381 1159 1747 
Q 1159 1113 1420 752 
Q 1681 391 2138 391 
Q 2594 391 2855 752 
Q 3116 1113 3116 1747 
z
" transform="scale(0.015625)"/>
      <path id="DejaVuSans-64" d="M 2906 2969 
L 2906 4863 
L 3481 4863 
L 3481 0 
L 2906 0 
L 2906 525 
Q 2725 213 2448 61 
Q 2172 -91 1784 -91 
Q 1150 -91 751 415 
Q 353 922 353 1747 
Q 353 2572 751 3078 
Q 1150 3584 1784 3584 
Q 2172 3584 2448 3432 
Q 2725 3281 2906 2969 
z
M 947 1747 
Q 947 1113 1208 752 
Q 1469 391 1925 391 
Q 2381 391 2643 752 
Q 2906 1113 2906 1747 
Q 2906 2381 2643 2742 
Q 2381 3103 1925 3103 
Q 1469 3103 1208 2742 
Q 947 2381 947 1747 
z
" transform="scale(0.015625)"/>
      <path id="DejaVuSans-79" d="M 2059 -325 
Q 1816 -950 1584 -1140 
Q 1353 -1331 966 -1331 
L 506 -1331 
L 506 -850 
L 844 -850 
Q 1081 -850 1212 -737 
Q 1344 -625 1503 -206 
L 1606 56 
L 191 3500 
L 800 3500 
L 1894 763 
L 2988 3500 
L 3597 3500 
L 2059 -325 
z
" transform="scale(0.015625)"/>
      <path id="DejaVuSans-2e" d="M 684 794 
L 1344 794 
L 1344 0 
L 684 0 
L 684 794 
z
" transform="scale(0.015625)"/>
     </defs>
     <use xlink:href="#DejaVuSans-33"/>
     <use xlink:href="#DejaVuSans-35" transform="translate(63.623047 0)"/>
     <use xlink:href="#DejaVuSans-39" transform="translate(127.246094 0)"/>
     <use xlink:href="#DejaVuSans-35" transform="translate(190.869141 0)"/>
     <use xlink:href="#DejaVuSans-20" transform="translate(254.492188 0)"/>
     <use xlink:href="#DejaVuSans-74" transform="translate(286.279297 0)"/>
     <use xlink:href="#DejaVuSans-6f" transform="translate(325.488281 0)"/>
     <use xlink:href="#DejaVuSans-74" transform="translate(386.669922 0)"/>
     <use xlink:href="#DejaVuSans-61" transform="translate(425.878906 0)"/>
     <use xlink:href="#DejaVuSans-6c" transform="translate(487.158203 0)"/>
     <use xlink:href="#DejaVuSans-20" transform="translate(514.941406 0)"/>
     <use xlink:href="#DejaVuSans-72" transform="translate(546.728516 0)"/>
     <use xlink:href="#DejaVuSans-65" transform="translate(585.591797 0)"/>
     <use xlink:href="#DejaVuSans-67" transform="translate(647.115234 0)"/>
     <use xlink:href="#DejaVuSans-73" transform="translate(710.591797 0)"/>
     <use xlink:href="#DejaVuSans-2c" transform="translate(762.691406 0)"/>
     <use xlink:href="#DejaVuSans-20" transform="translate(794.478516 0)"/>
     <use xlink:href="#DejaVuSans-6f" transform="translate(826.265625 0)"/>
     <use xlink:href="#DejaVuSans-75" transform="translate(887.447266 0)"/>
     <use xlink:href="#DejaVuSans-74" transform="translate(950.826172 0)"/>
     <use xlink:href="#DejaVuSans-20" transform="translate(990.035156 0)"/>
     <use xlink:href="#DejaVuSans-6f" transform="translate(1021.822266 0)"/>
     <use xlink:href="#DejaVuSans-66" transform="translate(1083.003906 0)"/>
     <use xlink:href="#DejaVuSans-20" transform="translate(1118.208984 0)"/>
     <use xlink:href="#DejaVuSans-77" transform="translate(1149.996094 0)"/>
     <use xlink:href="#DejaVuSans-68" transform="translate(1231.783203 0)"/>
     <use xlink:href="#DejaVuSans-69" transform="translate(1295.162109 0)"/>
     <use xlink:href="#DejaVuSans-63" transform="translate(1322.945312 0)"/>
     <use xlink:href="#DejaVuSans-68" transform="translate(1377.925781 0)"/>
     <use xlink:href="#DejaVuSans-20" transform="translate(1441.304688 0)"/>
     <use xlink:href="#DejaVuSans-32" transform="translate(1473.091797 0)"/>
     <use xlink:href="#DejaVuSans-31" transform="translate(1536.714844 0)"/>
     <use xlink:href="#DejaVuSans-30" transform="translate(1600.337891 0)"/>
     <use xlink:href="#DejaVuSans-20" transform="translate(1663.960938 0)"/>
     <use xlink:href="#DejaVuSans-70" transform="translate(1695.748047 0)"/>
     <use xlink:href="#DejaVuSans-61" transform="translate(1759.224609 0)"/>
     <use xlink:href="#DejaVuSans-69" transform="translate(1820.503906 0)"/>
     <use xlink:href="#DejaVuSans-64" transform="translate(1848.287109 0)"/>
     <use xlink:href="#DejaVuSans-20" transform="translate(1911.763672 0)"/>
     <use xlink:href="#DejaVuSans-61" transform="translate(1943.550781 0)"/>
     <use xlink:href="#DejaVuSans-74" transform="translate(2004.830078 0)"/>
     <use xlink:href="#DejaVuSans-20" transform="translate(2044.039062 0)"/>
     <use xlink:href="#DejaVuSans-6c" transform="translate(2075.826172 0)"/>
     <use xlink:href="#DejaVuSans-65" transform="translate(2103.609375 0)"/>
     <use xlink:href="#DejaVuSans-61" transform="translate(2165.132812 0)"/>
     <use xlink:href="#DejaVuSans-73" transform="translate(2226.412109 0)"/>
     <use xlink:href="#DejaVuSans-74" transform="translate(2278.511719 0)"/>
     <use xlink:href="#DejaVuSans-20" transform="translate(2317.720703 0)"/>
     <use xlink:href="#DejaVuSans-70" transform="translate(2349.507812 0)"/>
     <use xlink:href="#DejaVuSans-61" transform="translate(2412.984375 0)"/>
     <use xlink:href="#DejaVuSans-72" transform="translate(2474.263672 0)"/>
     <use xlink:href="#DejaVuSans-74" transform="translate(2515.376953 0)"/>
     <use xlink:href="#DejaVuSans-69" transform="translate(2554.585938 0)"/>
     <use xlink:href="#DejaVuSans-61" transform="translate(2582.369141 0)"/>
     <use xlink:href="#DejaVuSans-6c" transform="translate(2643.648438 0)"/>
     <use xlink:href="#DejaVuSans-6c" transform="translate(2671.431641 0)"/>
     <use xlink:href="#DejaVuSans-79" transform="translate(2699.214844 0)"/>
     <use xlink:href="#DejaVuSans-2e" transform="translate(2744.144531 0)"/>
    </g>
   </g>
   <g id="legend_1">
    <g id="line2d_11">
     <path d="M 178.42449 34.446094 
L 193.42449 34.446094 
L 208.42449 34.446094 
" style="fill: none; stroke: #005953; stroke-width: 2; stroke-linecap: square"/>
    </g>
    <g id="text_12">
     <!-- Total -->
     <g transform="translate(220.42449 39.696094) scale(0.15 -0.15)">
      <use xlink:href="#DejaVuSans-54"/>
      <use xlink:href="#DejaVuSans-6f" transform="translate(44.083984 0)"/>
      <use xlink:href="#DejaVuSans-74" transform="translate(105.265625 0)"/>
      <use xlink:href="#DejaVuSans-61" transform="translate(144.474609 0)"/>
      <use xlink:href="#DejaVuSans-6c" transform="translate(205.753906 0)"/>
     </g>
    </g>
    <g id="line2d_12">
     <path d="M 285.454178 34.446094 
L 300.454178 34.446094 
L 315.454178 34.446094 
" style="fill: none; stroke: #69a3a2; stroke-width: 2; stroke-linecap: square"/>
    </g>
    <g id="text_13">
     <!-- Paid (incl. partial) -->
     <g transform="translate(327.454178 39.696094) scale(0.15 -0.15)">
      <defs>
       <path id="DejaVuSans-50" d="M 1259 4147 
L 1259 2394 
L 2053 2394 
Q 2494 2394 2734 2622 
Q 2975 2850 2975 3272 
Q 2975 3691 2734 3919 
Q 2494 4147 2053 4147 
L 1259 4147 
z
M 628 4666 
L 2053 4666 
Q 2838 4666 3239 4311 
Q 3641 3956 3641 3272 
Q 3641 2581 3239 2228 
Q 2838 1875 2053 1875 
L 1259 1875 
L 1259 0 
L 628 0 
L 628 4666 
z
" transform="scale(0.015625)"/>
       <path id="DejaVuSans-28" d="M 1984 4856 
Q 1566 4138 1362 3434 
Q 1159 2731 1159 2009 
Q 1159 1288 1364 580 
Q 1569 -128 1984 -844 
L 1484 -844 
Q 1016 -109 783 600 
Q 550 1309 550 2009 
Q 550 2706 781 3412 
Q 1013 4119 1484 4856 
L 1984 4856 
z
" transform="scale(0.015625)"/>
       <path id="DejaVuSans-29" d="M 513 4856 
L 1013 4856 
Q 1481 4119 1714 3412 
Q 1947 2706 1947 2009 
Q 1947 1309 1714 600 
Q 1481 -109 1013 -844 
L 513 -844 
Q 928 -128 1133 580 
Q 1338 1288 1338 2009 
Q 1338 2731 1133 3434 
Q 928 4138 513 4856 
z
" transform="scale(0.015625)"/>
      </defs>
      <use xlink:href="#DejaVuSans-50"/>
      <use xlink:href="#DejaVuSans-61" transform="translate(55.802734 0)"/>
      <use xlink:href="#DejaVuSans-69" transform="translate(117.082031 0)"/>
      <use xlink:href="#DejaVuSans-64" transform="translate(144.865234 0)"/>
      <use xlink:href="#DejaVuSans-20" transform="translate(208.341797 0)"/>
      <use xlink:href="#DejaVuSans-28" transform="translate(240.128906 0)"/>
      <use xlink:href="#DejaVuSans-69" transform="translate(279.142578 0)"/>
      <use xlink:href="#DejaVuSans-6e" transform="translate(306.925781 0)"/>
      <use xlink:href="#DejaVuSans-63" transform="translate(370.304688 0)"/>
      <use xlink:href="#DejaVuSans-6c" transform="translate(425.285156 0)"/>
      <use xlink:href="#DejaVuSans-2e" transform="translate(453.068359 0)"/>
      <use xlink:href="#DejaVuSans-20" transform="translate(484.855469 0)"/>
      <use xlink:href="#DejaVuSans-70" transform="translate(516.642578 0)"/>
      <use xlink:href="#DejaVuSans-61" transform="translate(580.119141 0)"/>
      <use xlink:href="#DejaVuSans-72" transform="translate(641.398438 0)"/>
      <use xlink:href="#DejaVuSans-74" transform="translate(682.511719 0)"/>
      <use xlink:href="#DejaVuSans-69" transform="translate(721.720703 0)"/>
      <use xlink:href="#DejaVuSans-61" transform="translate(749.503906 0)"/>
      <use xlink:href="#DejaVuSans-6c" transform="translate(810.783203 0)"/>
      <use xlink:href="#DejaVuSans-29" transform="translate(838.566406 0)"/>
     </g>
    </g>
   </g>
  </g>
  <g id="axes_2">
   <g id="patch_7">
    <path d="M 609.886957 376.363655 
L 973.8 376.363655 
L 973.8 14.798438 
L 609.886957 14.798438 
z
" style="fill: #ffffff"/>
   </g>
   <g id="patch_8">
    <path d="M 609.886957 243.789742 
L 791.916261 243.789742 
L 791.916261 147.372351 
L 609.886957 147.372351 
z
" clip-path="url(#p496095c6a6)" style="fill: #e6efee"/>
   </g>
   <g id="patch_9">
    <path d="M 791.916261 243.789742 
L 802.033043 243.789742 
L 802.033043 147.372351 
L 791.916261 147.372351 
z
" clip-path="url(#p496095c6a6)" style="fill: #a2c5c4"/>
   </g>
   <g id="patch_10">
    <path d="M 802.033043 243.789742 
L 839.297739 243.789742 
L 839.297739 147.372351 
L 802.033043 147.372351 
z
" clip-path="url(#p496095c6a6)" style="fill: #69a3a2"/>
   </g>
   <g id="patch_11">
    <path d="M 839.297739 243.789742 
L 869.502522 243.789742 
L 869.502522 147.372351 
L 839.297739 147.372351 
z
" clip-path="url(#p496095c6a6)" style="fill: #005953"/>
   </g>
   <g id="matplotlib.axis_3">
    <g id="xtick_3">
     <g id="line2d_13">
      <g>
       <use xlink:href="#m09063f4682" x="609.886957" y="376.363655" style="stroke: #000000; stroke-width: 0.8"/>
      </g>
     </g>
     <g id="text_14">
      <!-- 0 -->
      <g transform="translate(603.524457 405.06053) scale(0.2 -0.2)">
       <use xlink:href="#DejaVuSans-30"/>
      </g>
     </g>
    </g>
    <g id="xtick_4">
     <g id="line2d_14">
      <g>
       <use xlink:href="#m09063f4682" x="682.669565" y="376.363655" style="stroke: #000000; stroke-width: 0.8"/>
      </g>
     </g>
     <g id="text_15">
      <!-- 1000 -->
      <g transform="translate(657.219565 405.06053) scale(0.2 -0.2)">
       <use xlink:href="#DejaVuSans-31"/>
       <use xlink:href="#DejaVuSans-30" transform="translate(63.623047 0)"/>
       <use xlink:href="#DejaVuSans-30" transform="translate(127.246094 0)"/>
       <use xlink:href="#DejaVuSans-30" transform="translate(190.869141 0)"/>
      </g>
     </g>
    </g>
    <g id="xtick_5">
     <g id="line2d_15">
      <g>
       <use xlink:href="#m09063f4682" x="755.452174" y="376.363655" style="stroke: #000000; stroke-width: 0.8"/>
      </g>
     </g>
     <g id="text_16">
      <!-- 2000 -->
      <g transform="translate(730.002174 405.06053) scale(0.2 -0.2)">
       <use xlink:href="#DejaVuSans-32"/>
       <use xlink:href="#DejaVuSans-30" transform="translate(63.623047 0)"/>
       <use xlink:href="#DejaVuSans-30" transform="translate(127.246094 0)"/>
       <use xlink:href="#DejaVuSans-30" transform="translate(190.869141 0)"/>
      </g>
     </g>
    </g>
    <g id="xtick_6">
     <g id="line2d_16">
      <g>
       <use xlink:href="#m09063f4682" x="828.234783" y="376.363655" style="stroke: #000000; stroke-width: 0.8"/>
      </g>
     </g>
     <g id="text_17">
      <!-- 3000 -->
      <g transform="translate(802.784783 405.06053) scale(0.2 -0.2)">
       <use xlink:href="#DejaVuSans-33"/>
       <use xlink:href="#DejaVuSans-30" transform="translate(63.623047 0)"/>
       <use xlink:href="#DejaVuSans-30" transform="translate(127.246094 0)"/>
       <use xlink:href="#DejaVuSans-30" transform="translate(190.869141 0)"/>
      </g>
     </g>
    </g>
    <g id="xtick_7">
     <g id="line2d_17">
      <g>
       <use xlink:href="#m09063f4682" x="901.017391" y="376.363655" style="stroke: #000000; stroke-width: 0.8"/>
      </g>
     </g>
     <g id="text_18">
      <!-- 4000 -->
      <g transform="translate(875.567391 405.06053) scale(0.2 -0.2)">
       <use xlink:href="#DejaVuSans-34"/>
       <use xlink:href="#DejaVuSans-30" transform="translate(63.623047 0)"/>
       <use xlink:href="#DejaVuSans-30" transform="translate(127.246094 0)"/>
       <use xlink:href="#DejaVuSans-30" transform="translate(190.869141 0)"/>
      </g>
     </g>
    </g>
    <g id="xtick_8">
     <g id="line2d_18">
      <g>
       <use xlink:href="#m09063f4682" x="973.8" y="376.363655" style="stroke: #000000; stroke-width: 0.8"/>
      </g>
     </g>
     <g id="text_19">
      <!-- 5000 -->
      <g transform="translate(948.35 405.06053) scale(0.2 -0.2)">
       <use xlink:href="#DejaVuSans-35"/>
       <use xlink:href="#DejaVuSans-30" transform="translate(63.623047 0)"/>
       <use xlink:href="#DejaVuSans-30" transform="translate(127.246094 0)"/>
       <use xlink:href="#DejaVuSans-30" transform="translate(190.869141 0)"/>
      </g>
     </g>
    </g>
    <g id="text_20">
     <!-- Count -->
     <g transform="translate(762.146603 434.41678) scale(0.2 -0.2)">
      <use xlink:href="#DejaVuSans-43"/>
      <use xlink:href="#DejaVuSans-6f" transform="translate(69.824219 0)"/>
      <use xlink:href="#DejaVuSans-75" transform="translate(131.005859 0)"/>
      <use xlink:href="#DejaVuSans-6e" transform="translate(194.384766 0)"/>
      <use xlink:href="#DejaVuSans-74" transform="translate(257.763672 0)"/>
     </g>
    </g>
   </g>
   <g id="matplotlib.axis_4"/>
   <g id="patch_12">
    <path d="M 609.886957 376.363655 
L 609.886957 14.798438 
" style="fill: none; stroke: #000000; stroke-width: 0.8; stroke-linejoin: miter; stroke-linecap: square"/>
   </g>
   <g id="patch_13">
    <path d="M 973.8 376.363655 
L 973.8 14.798438 
" style="fill: none; stroke: #000000; stroke-width: 0.8; stroke-linejoin: miter; stroke-linecap: square"/>
   </g>
   <g id="patch_14">
    <path d="M 609.886957 376.363655 
L 973.8 376.363655 
" style="fill: none; stroke: #000000; stroke-width: 0.8; stroke-linejoin: miter; stroke-linecap: square"/>
   </g>
   <g id="patch_15">
    <path d="M 609.886957 14.798438 
L 973.8 14.798438 
" style="fill: none; stroke: #000000; stroke-width: 0.8; stroke-linejoin: miter; stroke-linecap: square"/>
   </g>
   <g id="text_21">
    <!-- 3567 total regs (2501 normal, 139 contributors, 512 sponsors, 415 supersponsors). -->
    <g transform="translate(611.706522 374.555829) scale(0.066667 -0.066667)">
     <defs>
      <path id="DejaVuSans-36" d="M 2113 2584 
Q 1688 2584 1439 2293 
Q 1191 2003 1191 1497 
Q 1191 994 1439 701 
Q 1688 409 2113 409 
Q 2538 409 2786 701 
Q 3034 994 3034 1497 
Q 3034 2003 2786 2293 
Q 2538 2584 2113 2584 
z
M 3366 4563 
L 3366 3988 
Q 3128 4100 2886 4159 
Q 2644 4219 2406 4219 
Q 1781 4219 1451 3797 
Q 1122 3375 1075 2522 
Q 1259 2794 1537 2939 
Q 1816 3084 2150 3084 
Q 2853 3084 3261 2657 
Q 3669 2231 3669 1497 
Q 3669 778 3244 343 
Q 2819 -91 2113 -91 
Q 1303 -91 875 529 
Q 447 1150 447 2328 
Q 447 3434 972 4092 
Q 1497 4750 2381 4750 
Q 2619 4750 2861 4703 
Q 3103 4656 3366 4563 
z
" transform="scale(0.015625)"/>
      <path id="DejaVuSans-37" d="M 525 4666 
L 3525 4666 
L 3525 4397 
L 1831 0 
L 1172 0 
L 2766 4134 
L 525 4134 
L 525 4666 
z
" transform="scale(0.015625)"/>
     </defs>
     <use xlink:href="#DejaVuSans-33"/>
     <use xlink:href="#DejaVuSans-35" transform="translate(63.623047 0)"/>
     <use xlink:href="#DejaVuSans-36" transform="translate(127.246094 0)"/>
     <use xlink:href="#DejaVuSans-37" transform="translate(190.869141 0)"/>
     <use xlink:href="#DejaVuSans-20" transform="translate(254.492188 0)"/>
     <use xlink:href="#DejaVuSans-74" transform="translate(286.279297 0)"/>
     <use xlink:href="#DejaVuSans-6f" transform="translate(325.488281 0)"/>
     <use xlink:href="#DejaVuSans-74" transform="translate(386.669922 0)"/>
     <use xlink:href="#DejaVuSans-61" transform="translate(425.878906 0)"/>
     <use xlink:href="#DejaVuSans-6c" transform="translate(487.158203 0)"/>
     <use xlink:href="#DejaVuSans-20" transform="translate(514.941406 0)"/>
     <use xlink:href="#DejaVuSans-72" transform="translate(546.728516 0)"/>
     <use xlink:href="#DejaVuSans-65" transform="translate(585.591797 0)"/>
     <use xlink:href="#DejaVuSans-67" transform="translate(647.115234 0)"/>
     <use xlink:href="#DejaVuSans-73" transform="translate(710.591797 0)"/>
     <use xlink:href="#DejaVuSans-20" transform="translate(762.691406 0)"/>
     <use xlink:href="#DejaVuSans-28" transform="translate(794.478516 0)"/>
     <use xlink:href="#DejaVuSans-32" transform="translate(833.492188 0)"/>
     <use xlink:href="#DejaVuSans-35" transform="translate(897.115234 0)"/>
     <use xlink:href="#DejaVuSans-30" transform="translate(960.738281 0)"/>
     <use xlink:href="#DejaVuSans-31" transform="translate(1024.361328 0)"/>
     <use xlink:href="#DejaVuSans-20" transform="translate(1087.984375 0)"/>
     <use xlink:href="#DejaVuSans-6e" transform="translate(1119.771484 0)"/>
     <use xlink:href="#DejaVuSans-6f" transform="translate(1183.150391 0)"/>
     <use xlink:href="#DejaVuSans-72" transform="translate(1244.332031 0)"/>
     <use xlink:href="#DejaVuSans-6d" transform="translate(1283.695312 0)"/>
     <use xlink:href="#DejaVuSans-61" transform="translate(1381.107422 0)"/>
     <use xlink:href="#DejaVuSans-6c" transform="translate(1442.386719 0)"/>
     <use xlink:href="#DejaVuSans-2c" transform="translate(1470.169922 0)"/>
     <use xlink:href="#DejaVuSans-20" transform="translate(1501.957031 0)"/>
     <use xlink:href="#DejaVuSans-31" transform="translate(1533.744141 0)"/>
     <use xlink:href="#DejaVuSans-33" transform="translate(1597.367188 0)"/>
     <use xlink:href="#DejaVuSans-39" transform="translate(1660.990234 0)"/>
     <use xlink:href="#DejaVuSans-20" transform="translate(1724.613281 0)"/>
     <use xlink:href="#DejaVuSans-63" transform="translate(1756.400391 0)"/>
     <use xlink:href="#DejaVuSans-6f" transform="translate(1811.380859 0)"/>
     <use xlink:href="#DejaVuSans-6e" transform="translate(1872.5625 0)"/>
     <use xlink:href="#DejaVuSans-74" transform="translate(1935.941406 0)"/>
     <use xlink:href="#DejaVuSans-72" transform="translate(1975.150391 0)"/>
     <use xlink:href="#DejaVuSans-69" transform="translate(2016.263672 0)"/>
     <use xlink:href="#DejaVuSans-62" transform="translate(2044.046875 0)"/>
     <use xlink:href="#DejaVuSans-75" transform="translate(2107.523438 0)"/>
     <use xlink:href="#DejaVuSans-74" transform="translate(2170.902344 0)"/>
     <use xlink:href="#DejaVuSans-6f" transform="translate(2210.111328 0)"/>
     <use xlink:href="#DejaVuSans-72" transform="translate(2271.292969 0)"/>
     <use xlink:href="#DejaVuSans-73" transform="translate(2312.40625 0)"/>
     <use xlink:href="#DejaVuSans-2c" transform="translate(2364.505859 0)"/>
     <use xlink:href="#DejaVuSans-20" transform="translate(2396.292969 0)"/>
     <use xlink:href="#DejaVuSans-35" transform="translate(2428.080078 0)"/>
     <use xlink:href="#DejaVuSans-31" transform="translate(2491.703125 0)"/>
     <use xlink:href="#DejaVuSans-32" transform="translate(2555.326172 0)"/>
     <use xlink:href="#DejaVuSans-20" transform="translate(2618.949219 0)"/>
     <use xlink:href="#DejaVuSans-73" transform="translate(2650.736328 0)"/>
     <use xlink:href="#DejaVuSans-70" transform="translate(2702.835938 0)"/>
     <use xlink:href="#DejaVuSans-6f" transform="translate(2766.3125 0)"/>
     <use xlink:href="#DejaVuSans-6e" transform="translate(2827.494141 0)"/>
     <use xlink:href="#DejaVuSans-73" transform="translate(2890.873047 0)"/>
     <use xlink:href="#DejaVuSans-6f" transform="translate(2942.972656 0)"/>
     <use xlink:href="#DejaVuSans-72" transform="translate(3004.154297 0)"/>
     <use xlink:href="#DejaVuSans-73" transform="translate(3045.267578 0)"/>
     <use xlink:href="#DejaVuSans-2c" transform="translate(3097.367188 0)"/>
     <use xlink:href="#DejaVuSans-20" transform="translate(3129.154297 0)"/>
     <use xlink:href="#DejaVuSans-34" transform="translate(3160.941406 0)"/>
     <use xlink:href="#DejaVuSans-31" transform="translate(3224.564453 0)"/>
     <use xlink:href="#DejaVuSans-35" transform="translate(3288.1875 0)"/>
     <use xlink:href="#DejaVuSans-20" transform="translate(3351.810547 0)"/>
     <use xlink:href="#DejaVuSans-73" transform="translate(3383.597656 0)"/>
     <use xlink:href="#DejaVuSans-75" transform="translate(3435.697266 0)"/>
     <use xlink:href="#DejaVuSans-70" transform="translate(3499.076172 0)"/>
     <use xlink:href="#DejaVuSans-65" transform="translate(3562.552734 0)"/>
     <use xlink:href="#DejaVuSans-72" transform="translate(3624.076172 0)"/>
     <use xlink:href="#DejaVuSans-73" transform="translate(3665.189453 0)"/>
     <use xlink:href="#DejaVuSans-70" transform="translate(3717.289062 0)"/>
     <use xlink:href="#DejaVuSans-6f" transform="translate(3780.765625 0)"/>
     <use xlink:href="#DejaVuSans-6e" transform="translate(3841.947266 0)"/>
     <use xlink:href="#DejaVuSans-73" transform="translate(3905.326172 0)"/>
     <use xlink:href="#DejaVuSans-6f" transform="translate(3957.425781 0)"/>
     <use xlink:href="#DejaVuSans-72" transform="translate(4018.607422 0)"/>
     <use xlink:href="#DejaVuSans-73" transform="translate(4059.720703 0)"/>
     <use xlink:href="#DejaVuSans-29" transform="translate(4111.820312 0)"/>
     <use xlink:href="#DejaVuSans-2e" transform="translate(4150.833984 0)"/>
    </g>
   </g>
   <g id="legend_2">
    <g id="patch_16">
     <path d="M 640.466525 39.696094 
L 670.466525 39.696094 
L 670.466525 29.196094 
L 640.466525 29.196094 
z
" style="fill: #e6efee"/>
    </g>
    <g id="text_22">
     <!-- Normal -->
     <g transform="translate(682.466525 39.696094) scale(0.15 -0.15)">
      <defs>
       <path id="DejaVuSans-4e" d="M 628 4666 
L 1478 4666 
L 3547 763 
L 3547 4666 
L 4159 4666 
L 4159 0 
L 3309 0 
L 1241 3903 
L 1241 0 
L 628 0 
L 628 4666 
z
" transform="scale(0.015625)"/>
      </defs>
      <use xlink:href="#DejaVuSans-4e"/>
      <use xlink:href="#DejaVuSans-6f" transform="translate(74.804688 0)"/>
      <use xlink:href="#DejaVuSans-72" transform="translate(135.986328 0)"/>
      <use xlink:href="#DejaVuSans-6d" transform="translate(175.349609 0)"/>
      <use xlink:href="#DejaVuSans-61" transform="translate(272.761719 0)"/>
      <use xlink:href="#DejaVuSans-6c" transform="translate(334.041016 0)"/>
     </g>
    </g>
    <g id="patch_17">
     <path d="M 640.466525 61.713281 
L 670.466525 61.713281 
L 670.466525 51.213281 
L 640.466525 51.213281 
z
" style="fill: #a2c5c4"/>
    </g>
    <g id="text_23">
     <!-- Contributor -->
     <g transform="translate(682.466525 61.713281) scale(0.15 -0.15)">
      <use xlink:href="#DejaVuSans-43"/>
      <use xlink:href="#DejaVuSans-6f" transform="translate(69.824219 0)"/>
      <use xlink:href="#DejaVuSans-6e" transform="translate(131.005859 0)"/>
      <use xlink:href="#DejaVuSans-74" transform="translate(194.384766 0)"/>
      <use xlink:href="#DejaVuSans-72" transform="translate(233.59375 0)"/>
      <use xlink:href="#DejaVuSans-69" transform="translate(274.707031 0)"/>
      <use xlink:href="#DejaVuSans-62" transform="translate(302.490234 0)"/>
      <use xlink:href="#DejaVuSans-75" transform="translate(365.966797 0)"/>
      <use xlink:href="#DejaVuSans-74" transform="translate(429.345703 0)"/>
      <use xlink:href="#DejaVuSans-6f" transform="translate(468.554688 0)"/>
      <use xlink:href="#DejaVuSans-72" transform="translate(529.736328 0)"/>
     </g>
    </g>
    <g id="patch_18">
     <path d="M 798.093088 39.696094 
L 828.093088 39.696094 
L 828.093088 29.196094 
L 798.093088 29.196094 
z
" style="fill: #69a3a2"/>
    </g>
    <g id="text_24">
     <!-- Sponsor -->
     <g transform="translate(840.093088 39.696094) scale(0.15 -0.15)">
      <defs>
       <path id="DejaVuSans-53" d="M 3425 4513 
L 3425 3897 
Q 3066 4069 2747 4153 
Q 2428 4238 2131 4238 
Q 1616 4238 1336 4038 
Q 1056 3838 1056 3469 
Q 1056 3159 1242 3001 
Q 1428 2844 1947 2747 
L 2328 2669 
Q 3034 2534 3370 2195 
Q 3706 1856 3706 1288 
Q 3706 609 3251 259 
Q 2797 -91 1919 -91 
Q 1588 -91 1214 -16 
Q 841 59 441 206 
L 441 856 
Q 825 641 1194 531 
Q 1563 422 1919 422 
Q 2459 422 2753 634 
Q 3047 847 3047 1241 
Q 3047 1584 2836 1778 
Q 2625 1972 2144 2069 
L 1759 2144 
Q 1053 2284 737 2584 
Q 422 2884 422 3419 
Q 422 4038 858 4394 
Q 1294 4750 2059 4750 
Q 2388 4750 2728 4690 
Q 3069 4631 3425 4513 
z
" transform="scale(0.015625)"/>
      </defs>
      <use xlink:href="#DejaVuSans-53"/>
      <use xlink:href="#DejaVuSans-70" transform="translate(63.476562 0)"/>
      <use xlink:href="#DejaVuSans-6f" transform="translate(126.953125 0)"/>
      <use xlink:href="#DejaVuSans-6e" transform="translate(188.134766 0)"/>
      <use xlink:href="#DejaVuSans-73" transform="translate(251.513672 0)"/>
      <use xlink:href="#DejaVuSans-6f" transform="translate(303.613281 0)"/>
      <use xlink:href="#DejaVuSans-72" transform="translate(364.794922 0)"/>
     </g>
    </g>
    <g id="patch_19">
     <path d="M 798.093088 61.713281 
L 828.093088 61.713281 
L 828.093088 51.213281 
L 798.093088 51.213281 
z
" style="fill: #005953"/>
    </g>
    <g id="text_25">
     <!-- Supersponsor -->
     <g transform="translate(840.093088 61.713281) scale(0.15 -0.15)">
      <use xlink:href="#DejaVuSans-53"/>
      <use xlink:href="#DejaVuSans-75" transform="translate(63.476562 0)"/>
      <use xlink:href="#DejaVuSans-70" transform="translate(126.855469 0)"/>
      <use xlink:href="#DejaVuSans-65" transform="translate(190.332031 0)"/>
      <use xlink:href="#DejaVuSans-72" transform="translate(251.855469 0)"/>
      <use xlink:href="#DejaVuSans-73" transform="translate(292.96875 0)"/>
      <use xlink:href="#DejaVuSans-70" transform="translate(345.068359 0)"/>
      <use xlink:href="#DejaVuSans-6f" transform="translate(408.544922 0)"/>
      <use xlink:href="#DejaVuSans-6e" transform="translate(469.726562 0)"/>
      <use xlink:href="#DejaVuSans-73" transform="translate(533.105469 0)"/>
      <use xlink:href="#DejaVuSans-6f" transform="translate(585.205078 0)"/>
      <use xlink:href="#DejaVuSans-72" transform="translate(646.386719 0)"/>
     </g>
    </g>
   </g>
  </g>
  <g id="axes_3">
   <g id="patch_20">
    <path d="M 136.8 846.398438 
L 500.713043 846.398438 
L 500.713043 484.83322 
L 136.8 484.83322 
z
" style="fill: #ffffff"/>
   </g>
   <g id="matplotlib.axis_5">
    <g id="xtick_9">
     <g id="line2d_19">
      <g>
       <use xlink:href="#m09063f4682" x="143.93555" y="846.398438" style="stroke: #000000; stroke-width: 0.8"/>
      </g>
     </g>
     <g id="text_26">
      <!-- 0 -->
      <g transform="translate(137.57305 875.095313) scale(0.2 -0.2)">
       <use xlink:href="#DejaVuSans-30"/>
      </g>
     </g>
    </g>
    <g id="xtick_10">
     <g id="line2d_20">
      <g>
       <use xlink:href="#m09063f4682" x="215.291049" y="846.398438" style="stroke: #000000; stroke-width: 0.8"/>
      </g>
     </g>
     <g id="text_27">
      <!-- 50 -->
      <g transform="translate(202.566049 875.095313) scale(0.2 -0.2)">
       <use xlink:href="#DejaVuSans-35"/>
       <use xlink:href="#DejaVuSans-30" transform="translate(63.623047 0)"/>
      </g>
     </g>
    </g>
    <g id="xtick_11">
     <g id="line2d_21">
      <g>
       <use xlink:href="#m09063f4682" x="286.646547" y="846.398438" style="stroke: #000000; stroke-width: 0.8"/>
      </g>
     </g>
     <g id="text_28">
      <!-- 100 -->
      <g transform="translate(267.559047 875.095313) scale(0.2 -0.2)">
       <use xlink:href="#DejaVuSans-31"/>
       <use xlink:href="#DejaVuSans-30" transform="translate(63.623047 0)"/>
       <use xlink:href="#DejaVuSans-30" transform="translate(127.246094 0)"/>
      </g>
     </g>
    </g>
    <g id="xtick_12">
     <g id="line2d_22">
      <g>
       <use xlink:href="#m09063f4682" x="358.002046" y="846.398438" style="stroke: #000000; stroke-width: 0.8"/>
      </g>
     </g>
     <g id="text_29">
      <!-- 150 -->
      <g transform="translate(338.914546 875.095313) scale(0.2 -0.2)">
       <use xlink:href="#DejaVuSans-31"/>
       <use xlink:href="#DejaVuSans-35" transform="translate(63.623047 0)"/>
       <use xlink:href="#DejaVuSans-30" transform="translate(127.246094 0)"/>
      </g>
     </g>
    </g>
    <g id="xtick_13">
     <g id="line2d_23">
      <g>
       <use xlink:href="#m09063f4682" x="429.357545" y="846.398438" style="stroke: #000000; stroke-width: 0.8"/>
      </g>
     </g>
     <g id="text_30">
      <!-- 200 -->
      <g transform="translate(410.270045 875.095313) scale(0.2 -0.2)">
       <use xlink:href="#DejaVuSans-32"/>
       <use xlink:href="#DejaVuSans-30" transform="translate(63.623047 0)"/>
       <use xlink:href="#DejaVuSans-30" transform="translate(127.246094 0)"/>
      </g>
     </g>
    </g>
    <g id="xtick_14">
     <g id="line2d_24">
      <g>
       <use xlink:href="#m09063f4682" x="500.713043" y="846.398438" style="stroke: #000000; stroke-width: 0.8"/>
      </g>
     </g>
     <g id="text_31">
      <!-- 250 -->
      <g transform="translate(481.625543 875.095313) scale(0.2 -0.2)">
       <use xlink:href="#DejaVuSans-32"/>
       <use xlink:href="#DejaVuSans-35" transform="translate(63.623047 0)"/>
       <use xlink:href="#DejaVuSans-30" transform="translate(127.246094 0)"/>
      </g>
     </g>
    </g>
    <g id="text_32">
     <!-- Day After Reg Opening -->
     <g transform="translate(204.292459 904.451563) scale(0.2 -0.2)">
      <defs>
       <path id="DejaVuSans-44" d="M 1259 4147 
L 1259 519 
L 2022 519 
Q 2988 519 3436 956 
Q 3884 1394 3884 2338 
Q 3884 3275 3436 3711 
Q 2988 4147 2022 4147 
L 1259 4147 
z
M 628 4666 
L 1925 4666 
Q 3281 4666 3915 4102 
Q 4550 3538 4550 2338 
Q 4550 1131 3912 565 
Q 3275 0 1925 0 
L 628 0 
L 628 4666 
z
" transform="scale(0.015625)"/>
       <path id="DejaVuSans-41" d="M 2188 4044 
L 1331 1722 
L 3047 1722 
L 2188 4044 
z
M 1831 4666 
L 2547 4666 
L 4325 0 
L 3669 0 
L 3244 1197 
L 1141 1197 
L 716 0 
L 50 0 
L 1831 4666 
z
" transform="scale(0.015625)"/>
       <path id="DejaVuSans-52" d="M 2841 2188 
Q 3044 2119 3236 1894 
Q 3428 1669 3622 1275 
L 4263 0 
L 3584 0 
L 2988 1197 
Q 2756 1666 2539 1819 
Q 2322 1972 1947 1972 
L 1259 1972 
L 1259 0 
L 628 0 
L 628 4666 
L 2053 4666 
Q 2853 4666 3247 4331 
Q 3641 3997 3641 3322 
Q 3641 2881 3436 2590 
Q 3231 2300 2841 2188 
z
M 1259 4147 
L 1259 2491 
L 2053 2491 
Q 2509 2491 2742 2702 
Q 2975 2913 2975 3322 
Q 2975 3731 2742 3939 
Q 2509 4147 2053 4147 
L 1259 4147 
z
" transform="scale(0.015625)"/>
       <path id="DejaVuSans-4f" d="M 2522 4238 
Q 1834 4238 1429 3725 
Q 1025 3213 1025 2328 
Q 1025 1447 1429 934 
Q 1834 422 2522 422 
Q 3209 422 3611 934 
Q 4013 1447 4013 2328 
Q 4013 3213 3611 3725 
Q 3209 4238 2522 4238 
z
M 2522 4750 
Q 3503 4750 4090 4092 
Q 4678 3434 4678 2328 
Q 4678 1225 4090 567 
Q 3503 -91 2522 -91 
Q 1538 -91 948 565 
Q 359 1222 359 2328 
Q 359 3434 948 4092 
Q 1538 4750 2522 4750 
z
" transform="scale(0.015625)"/>
      </defs>
      <use xlink:href="#DejaVuSans-44"/>
      <use xlink:href="#DejaVuSans-61" transform="translate(77.001953 0)"/>
      <use xlink:href="#DejaVuSans-79" transform="translate(138.28125 0)"/>
      <use xlink:href="#DejaVuSans-20" transform="translate(197.460938 0)"/>
      <use xlink:href="#DejaVuSans-41" transform="translate(229.248047 0)"/>
      <use xlink:href="#DejaVuSans-66" transform="translate(294.03125 0)"/>
      <use xlink:href="#DejaVuSans-74" transform="translate(327.486328 0)"/>
      <use xlink:href="#DejaVuSans-65" transform="translate(366.695312 0)"/>
      <use xlink:href="#DejaVuSans-72" transform="translate(428.21875 0)"/>
      <use xlink:href="#DejaVuSans-20" transform="translate(469.332031 0)"/>
      <use xlink:href="#DejaVuSans-52" transform="translate(501.119141 0)"/>
      <use xlink:href="#DejaVuSans-65" transform="translate(566.101562 0)"/>
      <use xlink:href="#DejaVuSans-67" transform="translate(627.625 0)"/>
      <use xlink:href="#DejaVuSans-20" transform="translate(691.101562 0)"/>
      <use xlink:href="#DejaVuSans-4f" transform="translate(722.888672 0)"/>
      <use xlink:href="#DejaVuSans-70" transform="translate(801.599609 0)"/>
      <use xlink:href="#DejaVuSans-65" transform="translate(865.076172 0)"/>
      <use xlink:href="#DejaVuSans-6e" transform="translate(926.599609 0)"/>
      <use xlink:href="#DejaVuSans-69" transform="translate(989.978516 0)"/>
      <use xlink:href="#DejaVuSans-6e" transform="translate(1017.761719 0)"/>
      <use xlink:href="#DejaVuSans-67" transform="translate(1081.140625 0)"/>
     </g>
    </g>
   </g>
   <g id="matplotlib.axis_6">
    <g id="ytick_7">
     <g id="line2d_25">
      <g>
       <use xlink:href="#m74c9e37581" x="136.8" y="846.398438" style="stroke: #000000; stroke-width: 0.8"/>
      </g>
     </g>
     <g id="text_33">
      <!-- 0 -->
      <g transform="translate(110.575 853.996875) scale(0.2 -0.2)">
       <use xlink:href="#DejaVuSans-30"/>
      </g>
     </g>
    </g>
    <g id="ytick_8">
     <g id="line2d_26">
      <g>
       <use xlink:href="#m74c9e37581" x="136.8" y="794.746264" style="stroke: #000000; stroke-width: 0.8"/>
      </g>
     </g>
     <g id="text_34">
      <!-- 1000 -->
      <g transform="translate(72.4 802.344701) scale(0.2 -0.2)">
       <use xlink:href="#DejaVuSans-31"/>
       <use xlink:href="#DejaVuSans-30" transform="translate(63.623047 0)"/>
       <use xlink:href="#DejaVuSans-30" transform="translate(127.246094 0)"/>
       <use xlink:href="#DejaVuSans-30" transform="translate(190.869141 0)"/>
      </g>
     </g>
    </g>
    <g id="ytick_9">
     <g id="line2d_27">
      <g>
       <use xlink:href="#m74c9e37581" x="136.8" y="743.09409" style="stroke: #000000; stroke-width: 0.8"/>
      </g>
     </g>
     <g id="text_35">
      <!-- 2000 -->
      <g transform="translate(72.4 750.692527) scale(0.2 -0.2)">
       <use xlink:href="#DejaVuSans-32"/>
       <use xlink:href="#DejaVuSans-30" transform="translate(63.623047 0)"/>
       <use xlink:href="#DejaVuSans-30" transform="translate(127.246094 0)"/>
       <use xlink:href="#DejaVuSans-30" transform="translate(190.869141 0)"/>
      </g>
     </g>
    </g>
    <g id="ytick_10">
     <g id="line2d_28">
      <g>
       <use xlink:href="#m74c9e37581" x="136.8" y="691.441916" style="stroke: #000000; stroke-width: 0.8"/>
      </g>
     </g>
     <g id="text_36">
      <!-- 3000 -->
      <g transform="translate(72.4 699.040353) scale(0.2 -0.2)">
       <use xlink:href="#DejaVuSans-33"/>
       <use xlink:href="#DejaVuSans-30" transform="translate(63.623047 0)"/>
       <use xlink:href="#DejaVuSans-30" transform="translate(127.246094 0)"/>
       <use xlink:href="#DejaVuSans-30" transform="translate(190.869141 0)"/>
      </g>
     </g>
    </g>
    <g id="ytick_11">
     <g id="line2d_29">
      <g>
       <use xlink:href="#m74c9e37581" x="136.8" y="639.789742" style="stroke: #000000; stroke-width: 0.8"/>
      </g>
     </g>
     <g id="text_37">
      <!-- 4000 -->
      <g transform="translate(72.4 647.388179) scale(0.2 -0.2)">
       <use xlink:href="#DejaVuSans-34"/>
       <use xlink:href="#DejaVuSans-30" transform="translate(63.623047 0)"/>
       <use xlink:href="#DejaVuSans-30" transform="translate(127.246094 0)"/>
       <use xlink:href="#DejaVuSans-30" transform="translate(190.869141 0)"/>
      </g>
     </g>
    </g>
    <g id="ytick_12">
     <g id="line2d_30">
      <g>
       <use xlink:href="#m74c9e37581" x="136.8" y="588.137568" style="stroke: #000000; stroke-width: 0.8"/>
      </g>
     </g>
     <g id="text_38">
      <!-- 5000 -->
      <g transform="translate(72.4 595.736005) scale(0.2 -0.2)">
       <use xlink:href="#DejaVuSans-35"/>
       <use xlink:href="#DejaVuSans-30" transform="translate(63.623047 0)"/>
       <use xlink:href="#DejaVuSans-30" transform="translate(127.246094 0)"/>
       <use xlink:href="#DejaVuSans-30" transform="translate(190.869141 0)"/>
      </g>
     </g>
    </g>
    <g id="ytick_13">
     <g id="line2d_31">
      <g>
       <use xlink:href="#m74c9e37581" x="136.8" y="536.485394" style="stroke: #000000; stroke-width: 0.8"/>
      </g>
     </g>
     <g id="text_39">
      <!-- 6000 -->
      <g transform="translate(72.4 544.083832) scale(0.2 -0.2)">
       <use xlink:href="#DejaVuSans-36"/>
       <use xlink:href="#DejaVuSans-30" transform="translate(63.623047 0)"/>
       <use xlink:href="#DejaVuSans-30" transform="translate(127.246094 0)"/>
       <use xlink:href="#DejaVuSans-30" transform="translate(190.869141 0)"/>
      </g>
     </g>
    </g>
    <g id="ytick_14">
     <g id="line2d_32">
      <g>
       <use xlink:href="#m74c9e37581" x="136.8" y="484.83322" style="stroke: #000000; stroke-width: 0.8"/>
      </g>
     </g>
     <g id="text_40">
      <!-- 7000 -->
      <g transform="translate(72.4 492.431658) scale(0.2 -0.2)">
       <use xlink:href="#DejaVuSans-37"/>
       <use xlink:href="#DejaVuSans-30" transform="translate(63.623047 0)"/>
       <use xlink:href="#DejaVuSans-30" transform="translate(127.246094 0)"/>
       <use xlink:href="#DejaVuSans-30" transform="translate(190.869141 0)"/>
      </g>
     </g>
    </g>
    <g id="text_41">
     <!-- Total Regs -->
     <g transform="translate(58.240625 716.356454) rotate(-90) scale(0.2 -0.2)">
      <use xlink:href="#DejaVuSans-54"/>
      <use xlink:href="#DejaVuSans-6f" transform="translate(44.083984 0)"/>
      <use xlink:href="#DejaVuSans-74" transform="translate(105.265625 0)"/>
      <use xlink:href="#DejaVuSans-61" transform="translate(144.474609 0)"/>
      <use xlink:href="#DejaVuSans-6c" transform="translate(205.753906 0)"/>
      <use xlink:href="#DejaVuSans-20" transform="translate(233.537109 0)"/>
      <use xlink:href="#DejaVuSans-52" transform="translate(265.324219 0)"/>
      <use xlink:href="#DejaVuSans-65" transform="translate(330.306641 0)"/>
      <use xlink:href="#DejaVuSans-67" transform="translate(391.830078 0)"/>
      <use xlink:href="#DejaVuSans-73" transform="translate(455.306641 0)"/>
     </g>
    </g>
   </g>
   <g id="line2d_33">
    <path d="M 96.840921 846.191829 
L 98.268031 846.191829 
L 99.695141 830.644524 
L 101.122251 828.785046 
L 105.403581 827.648698 
L 119.67468 827.132177 
L 121.10179 826.925568 
L 122.5289 826.925568 
L 123.95601 826.667307 
L 128.23734 826.460698 
L 132.51867 826.460698 
L 133.94578 826.25409 
L 135.37289 825.737568 
L 136.8 825.530959 
L 142.50844 825.221046 
L 143.93555 739.478438 
L 145.36266 717.164698 
L 146.78977 711.328003 
L 148.21688 707.557394 
L 149.64399 705.388003 
L 151.0711 703.012003 
L 152.49821 700.119481 
L 153.92532 697.898438 
L 156.77954 692.01009 
L 159.63376 683.125916 
L 161.06087 679.355307 
L 163.91509 673.00209 
L 166.769309 667.630264 
L 168.196419 665.202611 
L 169.623529 663.653046 
L 171.050639 661.793568 
L 173.904859 657.09322 
L 176.759079 651.566438 
L 178.186189 650.068524 
L 179.613299 647.537568 
L 181.040409 641.442611 
L 182.467519 634.727829 
L 183.894629 631.628698 
L 185.321739 630.027481 
L 186.748849 639.014959 
L 188.175959 637.413742 
L 189.603069 636.484003 
L 192.457289 635.399307 
L 193.884399 634.314611 
L 198.165729 631.938611 
L 203.874169 628.994438 
L 205.301279 627.548177 
L 206.728389 629.665916 
L 208.155499 629.149394 
L 209.582609 628.426264 
L 212.436829 627.496524 
L 213.863939 626.256872 
L 215.291049 625.740351 
L 216.718159 627.754785 
L 218.145269 627.341568 
L 219.572379 626.721742 
L 222.426598 625.998611 
L 223.853708 625.430438 
L 225.280818 624.655655 
L 226.707928 624.862264 
L 228.135038 624.345742 
L 229.562148 623.519307 
L 230.989258 623.10609 
L 232.416368 622.382959 
L 235.270588 621.349916 
L 236.697698 621.711481 
L 239.551918 620.678438 
L 240.979028 619.852003 
L 243.833248 618.509046 
L 245.260358 617.734264 
L 246.687468 618.095829 
L 249.541688 616.649568 
L 250.968798 615.719829 
L 253.823018 614.428524 
L 255.250128 613.498785 
L 256.677238 613.240524 
L 259.531458 611.845916 
L 260.958568 611.329394 
L 262.385678 610.451307 
L 263.812788 609.986438 
L 265.239898 609.366611 
L 266.667008 611.432698 
L 268.094118 610.554611 
L 269.521228 609.418264 
L 270.948338 608.85009 
L 272.375448 608.075307 
L 273.802558 607.093916 
L 276.656777 605.750959 
L 278.083887 605.234438 
L 279.510997 604.408003 
L 280.938107 603.839829 
L 282.365217 602.961742 
L 283.792327 602.341916 
L 285.219437 601.515481 
L 286.646547 601.825394 
L 292.354987 598.829568 
L 293.782097 597.69322 
L 295.209207 596.815133 
L 296.636317 595.78209 
L 298.063427 594.180872 
L 299.490537 593.302785 
L 300.917647 592.94122 
L 302.344757 592.269742 
L 303.771867 590.926785 
L 306.626087 589.118959 
L 308.053197 588.447481 
L 309.480307 586.897916 
L 310.907417 585.658264 
L 313.761637 580.699655 
L 315.188747 578.943481 
L 316.615857 578.995133 
L 328.032737 576.050959 
L 332.314066 574.39809 
L 336.595396 572.900177 
L 338.022506 571.918785 
L 345.158056 568.199829 
L 346.585166 567.889916 
L 348.012276 566.753568 
L 349.439386 565.823829 
L 350.866496 564.739133 
L 353.720716 563.964351 
L 355.147826 564.274264 
L 356.574936 563.499481 
L 358.002046 563.189568 
L 359.429156 562.259829 
L 360.856266 561.794959 
L 362.283376 561.123481 
L 363.710486 560.658611 
L 365.137596 559.67722 
L 366.564706 559.573916 
L 367.991816 558.95409 
L 370.846036 557.197916 
L 372.273146 556.474785 
L 375.127366 555.39009 
L 377.981586 553.272351 
L 379.408696 552.497568 
L 380.835806 551.102959 
L 382.262916 550.224872 
L 383.690026 549.760003 
L 385.117136 548.158785 
L 387.971355 545.369568 
L 389.398465 544.439829 
L 392.252685 542.941916 
L 393.679795 541.702264 
L 396.534015 539.584524 
L 397.961125 538.034959 
L 399.388235 536.846959 
L 402.242455 534.884177 
L 405.096675 532.301568 
L 406.523785 531.526785 
L 407.950895 530.132177 
L 409.378005 528.479307 
L 412.232225 526.206611 
L 413.659335 525.896698 
L 415.086445 525.328524 
L 416.513555 524.088872 
L 417.940665 521.712872 
L 419.367775 520.679829 
L 422.221995 517.219133 
L 423.649105 516.031133 
L 427.930435 510.452698 
L 429.357545 506.837046 
L 430.784655 503.892872 
L 432.211765 501.413568 
L 433.638875 499.709046 
L 435.065985 499.709046 
L 435.065985 499.709046 
" clip-path="url(#p7c02466e72)" style="fill: none; stroke: #69a3a2; stroke-width: 2; stroke-linecap: square"/>
   </g>
   <g id="LineCollection_2">
    <path d="M 417.940665 846.398438 
L 417.940665 329.876698 
" clip-path="url(#p7c02466e72)" style="fill: none; stroke-dasharray: 1.5,2.475; stroke-dashoffset: 0; stroke: #808080; stroke-width: 1.5"/>
   </g>
   <g id="patch_21">
    <path d="M 136.8 846.398438 
L 136.8 484.83322 
" style="fill: none; stroke: #000000; stroke-width: 0.8; stroke-linejoin: miter; stroke-linecap: square"/>
   </g>
   <g id="patch_22">
    <path d="M 500.713043 846.398438 
L 500.713043 484.83322 
" style="fill: none; stroke: #000000; stroke-width: 0.8; stroke-linejoin: miter; stroke-linecap: square"/>
   </g>
   <g id="patch_23">
    <path d="M 136.8 846.398438 
L 500.713043 846.398438 
" style="fill: none; stroke: #000000; stroke-width: 0.8; stroke-linejoin: miter; stroke-linecap: square"/>
   </g>
   <g id="patch_24">
    <path d="M 136.8 484.83322 
L 500.713043 484.83322 
" style="fill: none; stroke: #000000; stroke-width: 0.8; stroke-linejoin: miter; stroke-linecap: square"/>
   </g>
   <g id="text_42">
    <!-- Last update 2026-02-09 09:40:01 (UTC). -->
    <g transform="translate(5.4 955.519688) scale(0.066667 -0.066667)">
     <defs>
      <path id="DejaVuSans-4c" d="M 628 4666 
L 1259 4666 
L 1259 531 
L 3531 531 
L 3531 0 
L 628 0 
L 628 4666 
z
" transform="scale(0.015625)"/>
      <path id="DejaVuSans-2d" d="M 313 2009 
L 1997 2009 
L 1997 1497 
L 313 1497 
L 313 2009 
z
" transform="scale(0.015625)"/>
      <path id="DejaVuSans-3a" d="M 750 794 
L 1409 794 
L 1409 0 
L 750 0 
L 750 794 
z
M 750 3309 
L 1409 3309 
L 1409 2516 
L 750 2516 
L 750 3309 
z
" transform="scale(0.015625)"/>
      <path id="DejaVuSans-55" d="M 556 4666 
L 1191 4666 
L 1191 1831 
Q 1191 1081 1462 751 
Q 1734 422 2344 422 
Q 2950 422 3222 751 
Q 3494 1081 3494 1831 
L 3494 4666 
L 4128 4666 
L 4128 1753 
Q 4128 841 3676 375 
Q 3225 -91 2344 -91 
Q 1459 -91 1007 375 
Q 556 841 556 1753 
L 556 4666 
z
" transform="scale(0.015625)"/>
     </defs>
     <use xlink:href="#DejaVuSans-4c"/>
     <use xlink:href="#DejaVuSans-61" transform="translate(55.712891 0)"/>
     <use xlink:href="#DejaVuSans-73" transform="translate(116.992188 0)"/>
     <use xlink:href="#DejaVuSans-74" transform="translate(169.091797 0)"/>
     <use xlink:href="#DejaVuSans-20" transform="translate(208.300781 0)"/>
     <use xlink:href="#DejaVuSans-75" transform="translate(240.087891 0)"/>
     <use xlink:href="#DejaVuSans-70" transform="translate(303.466797 0)"/>
     <use xlink:href="#DejaVuSans-64" transform="translate(366.943359 0)"/>
     <use xlink:href="#DejaVuSans-61" transform="translate(430.419922 0)"/>
     <use xlink:href="#DejaVuSans-74" transform="translate(491.699219 0)"/>
     <use xlink:href="#DejaVuSans-65" transform="translate(530.908203 0)"/>
     <use xlink:href="#DejaVuSans-20" transform="translate(592.431641 0)"/>
     <use xlink:href="#DejaVuSans-32" transform="translate(624.21875 0)"/>
     <use xlink:href="#DejaVuSans-30" transform="translate(687.841797 0)"/>
     <use xlink:href="#DejaVuSans-32" transform="translate(751.464844 0)"/>
     <use xlink:href="#DejaVuSans-36" transform="translate(815.087891 0)"/>
     <use xlink:href="#DejaVuSans-2d" transform="translate(878.710938 0)"/>
     <use xlink:href="#DejaVuSans-30" transform="translate(914.794922 0)"/>
     <use xlink:href="#DejaVuSans-32" transform="translate(978.417969 0)"/>
     <use xlink:href="#DejaVuSans-2d" transform="translate(1042.041016 0)"/>
     <use xlink:href="#DejaVuSans-30" transform="translate(1078.125 0)"/>
     <use xlink:href="#DejaVuSans-39" transform="translate(1141.748047 0)"/>
     <use xlink:href="#DejaVuSans-20" transform="translate(1205.371094 0)"/>
     <use xlink:href="#DejaVuSans-30" transform="translate(1237.158203 0)"/>
     <use xlink:href="#DejaVuSans-39" transform="translate(1300.78125 0)"/>
     <use xlink:href="#DejaVuSans-3a" transform="translate(1364.404297 0)"/>
     <use xlink:href="#DejaVuSans-34" transform="translate(1398.095703 0)"/>
     <use xlink:href="#DejaVuSans-30" transform="translate(1461.71875 0)"/>
     <use xlink:href="#DejaVuSans-3a" transform="translate(1525.341797 0)"/>
     <use xlink:href="#DejaVuSans-30" transform="translate(1559.033203 0)"/>
     <use xlink:href="#DejaVuSans-31" transform="translate(1622.65625 0)"/>
     <use xlink:href="#DejaVuSans-20" transform="translate(1686.279297 0)"/>
     <use xlink:href="#DejaVuSans-28" transform="translate(1718.066406 0)"/>
     <use xlink:href="#DejaVuSans-55" transform="translate(1757.080078 0)"/>
     <use xlink:href="#DejaVuSans-54" transform="translate(1830.273438 0)"/>
     <use xlink:href="#DejaVuSans-43" transform="translate(1885.482422 0)"/>
     <use xlink:href="#DejaVuSans-29" transform="translate(1955.306641 0)"/>
     <use xlink:href="#DejaVuSans-2e" transform="translate(1994.320312 0)"/>
    </g>
    <!-- For questions, contact @GermanCoyote. -->
    <g transform="translate(5.4 962.984896) scale(0.066667 -0.066667)">
     <defs>
      <path id="DejaVuSans-71" d="M 947 1747 
Q 947 1113 1208 752 
Q 1469 391 1925 391 
Q 2381 391 2643 752 
Q 2906 1113 2906 1747 
Q 2906 2381 2643 2742 
Q 2381 3103 1925 3103 
Q 1469 3103 1208 2742 
Q 947 2381 947 1747 
z
M 2906 525 
Q 2725 213 2448 61 
Q 2172 -91 1784 -91 
Q 1150 -91 751 415 
Q 353 922 353 1747 
Q 353 2572 751 3078 
Q 1150 3584 1784 3584 
Q 2172 3584 2448 3432 
Q 2725 3281 2906 2969 
L 2906 3500 
L 3481 3500 
L 3481 -1331 
L 2906 -1331 
L 2906 525 
z
" transform="scale(0.015625)"/>
      <path id="DejaVuSans-40" d="M 2381 1678 
Q 2381 1231 2603 976 
Q 2825 722 3213 722 
Q 3597 722 3817 978 
Q 4038 1234 4038 1678 
Q 4038 2116 3813 2373 
Q 3588 2631 3206 2631 
Q 2828 2631 2604 2375 
Q 2381 2119 2381 1678 
z
M 4084 744 
Q 3897 503 3655 389 
Q 3413 275 3091 275 
Q 2553 275 2217 664 
Q 1881 1053 1881 1678 
Q 1881 2303 2218 2693 
Q 2556 3084 3091 3084 
Q 3413 3084 3656 2967 
Q 3900 2850 4084 2613 
L 4084 3022 
L 4531 3022 
L 4531 722 
Q 4988 791 5245 1139 
Q 5503 1488 5503 2041 
Q 5503 2375 5404 2669 
Q 5306 2963 5106 3213 
Q 4781 3622 4314 3839 
Q 3847 4056 3297 4056 
Q 2913 4056 2559 3954 
Q 2206 3853 1906 3653 
Q 1416 3334 1139 2817 
Q 863 2300 863 1697 
Q 863 1200 1042 765 
Q 1222 331 1563 0 
Q 1891 -325 2322 -495 
Q 2753 -666 3244 -666 
Q 3647 -666 4036 -530 
Q 4425 -394 4750 -141 
L 5031 -488 
Q 4641 -791 4180 -952 
Q 3719 -1113 3244 -1113 
Q 2666 -1113 2153 -908 
Q 1641 -703 1241 -313 
Q 841 78 631 592 
Q 422 1106 422 1697 
Q 422 2266 634 2781 
Q 847 3297 1241 3688 
Q 1644 4084 2172 4295 
Q 2700 4506 3291 4506 
Q 3953 4506 4520 4234 
Q 5088 3963 5472 3463 
Q 5706 3156 5829 2797 
Q 5953 2438 5953 2053 
Q 5953 1231 5456 756 
Q 4959 281 4084 263 
L 4084 744 
z
" transform="scale(0.015625)"/>
      <path id="DejaVuSans-47" d="M 3809 666 
L 3809 1919 
L 2778 1919 
L 2778 2438 
L 4434 2438 
L 4434 434 
Q 4069 175 3628 42 
Q 3188 -91 2688 -91 
Q 1594 -91 976 548 
Q 359 1188 359 2328 
Q 359 3472 976 4111 
Q 1594 4750 2688 4750 
Q 3144 4750 3555 4637 
Q 3966 4525 4313 4306 
L 4313 3634 
Q 3963 3931 3569 4081 
Q 3175 4231 2741 4231 
Q 1884 4231 1454 3753 
Q 1025 3275 1025 2328 
Q 1025 1384 1454 906 
Q 1884 428 2741 428 
Q 3075 428 3337 486 
Q 3600 544 3809 666 
z
" transform="scale(0.015625)"/>
     </defs>
     <use xlink:href="#DejaVuSans-46"/>
     <use xlink:href="#DejaVuSans-6f" transform="translate(53.894531 0)"/>
     <use xlink:href="#DejaVuSans-72" transform="translate(115.076172 0)"/>
     <use xlink:href="#DejaVuSans-20" transform="translate(156.189453 0)"/>
     <use xlink:href="#DejaVuSans-71" transform="translate(187.976562 0)"/>
     <use xlink:href="#DejaVuSans-75" transform="translate(251.453125 0)"/>
     <use xlink:href="#DejaVuSans-65" transform="translate(314.832031 0)"/>
     <use xlink:href="#DejaVuSans-73" transform="translate(376.355469 0)"/>
     <use xlink:href="#DejaVuSans-74" transform="translate(428.455078 0)"/>
     <use xlink:href="#DejaVuSans-69" transform="translate(467.664062 0)"/>
     <use xlink:href="#DejaVuSans-6f" transform="translate(495.447266 0)"/>
     <use xlink:href="#DejaVuSans-6e" transform="translate(556.628906 0)"/>
     <use xlink:href="#DejaVuSans-73" transform="translate(620.007812 0)"/>
     <use xlink:href="#DejaVuSans-2c" transform="translate(672.107422 0)"/>
     <use xlink:href="#DejaVuSans-20" transform="translate(703.894531 0)"/>
     <use xlink:href="#DejaVuSans-63" transform="translate(735.681641 0)"/>
     <use xlink:href="#DejaVuSans-6f" transform="translate(790.662109 0)"/>
     <use xlink:href="#DejaVuSans-6e" transform="translate(851.84375 0)"/>
     <use xlink:href="#DejaVuSans-74" transform="translate(915.222656 0)"/>
     <use xlink:href="#DejaVuSans-61" transform="translate(954.431641 0)"/>
     <use xlink:href="#DejaVuSans-63" transform="translate(1015.710938 0)"/>
     <use xlink:href="#DejaVuSans-74" transform="translate(1070.691406 0)"/>
     <use xlink:href="#DejaVuSans-20" transform="translate(1109.900391 0)"/>
     <use xlink:href="#DejaVuSans-40" transform="translate(1141.6875 0)"/>
     <use xlink:href="#DejaVuSans-47" transform="translate(1241.6875 0)"/>
     <use xlink:href="#DejaVuSans-65" transform="translate(1319.177734 0)"/>
     <use xlink:href="#DejaVuSans-72" transform="translate(1380.701172 0)"/>
     <use xlink:href="#DejaVuSans-6d" transform="translate(1420.064453 0)"/>
     <use xlink:href="#DejaVuSans-61" transform="translate(1517.476562 0)"/>
     <use xlink:href="#DejaVuSans-6e" transform="translate(1578.755859 0)"/>
     <use xlink:href="#DejaVuSans-43" transform="translate(1642.134766 0)"/>
     <use xlink:href="#DejaVuSans-6f" transform="translate(1711.958984 0)"/>
     <use xlink:href="#DejaVuSans-79" transform="translate(1773.140625 0)"/>
     <use xlink:href="#DejaVuSans-6f" transform="translate(1832.320312 0)"/>
     <use xlink:href="#DejaVuSans-74" transform="translate(1893.501953 0)"/>
     <use xlink:href="#DejaVuSans-65" transform="translate(1932.710938 0)"/>
     <use xlink:href="#DejaVuSans-2e" transform="translate(1994.234375 0)"/>
    </g>
   </g>
   <g id="legend_3">
    <g id="line2d_34">
     <path d="M 150.3 504.480876 
L 165.3 504.480876 
L 180.3 504.480876 
" style="fill: none; stroke: #005953; stroke-width: 2; stroke-linecap: square"/>
    </g>
    <g id="text_43">
     <!-- 2026 -->
     <g transform="translate(192.3 509.730876) scale(0.15 -0.15)">
      <use xlink:href="#DejaVuSans-32"/>
      <use xlink:href="#DejaVuSans-30" transform="translate(63.623047 0)"/>
      <use xlink:href="#DejaVuSans-32" transform="translate(127.246094 0)"/>
      <use xlink:href="#DejaVuSans-36" transform="translate(190.869141 0)"/>
     </g>
    </g>
    <g id="line2d_35">
     <path d="M 150.3 526.498064 
L 165.3 526.498064 
L 180.3 526.498064 
" style="fill: none; stroke: #69a3a2; stroke-width: 2; stroke-linecap: square"/>
    </g>
    <g id="text_44">
     <!-- 2025 -->
     <g transform="translate(192.3 531.748064) scale(0.15 -0.15)">
      <use xlink:href="#DejaVuSans-32"/>
      <use xlink:href="#DejaVuSans-30" transform="translate(63.623047 0)"/>
      <use xlink:href="#DejaVuSans-32" transform="translate(127.246094 0)"/>
      <use xlink:href="#DejaVuSans-35" transform="translate(190.869141 0)"/>
     </g>
    </g>
    <g id="line2d_36">
     <path d="M 150.3 548.515251 
L 180.3 548.515251 
" style="fill: none; stroke-dasharray: 1.5,2.475; stroke-dashoffset: 0; stroke: #808080; stroke-width: 1.5"/>
    </g>
    <g id="text_45">
     <!-- EF 2026 Begins -->
     <g transform="translate(192.3 553.765251) scale(0.15 -0.15)">
      <defs>
       <path id="DejaVuSans-45" d="M 628 4666 
L 3578 4666 
L 3578 4134 
L 1259 4134 
L 1259 2753 
L 3481 2753 
L 3481 2222 
L 1259 2222 
L 1259 531 
L 3634 531 
L 3634 0 
L 628 0 
L 628 4666 
z
" transform="scale(0.015625)"/>
       <path id="DejaVuSans-42" d="M 1259 2228 
L 1259 519 
L 2272 519 
Q 2781 519 3026 730 
Q 3272 941 3272 1375 
Q 3272 1813 3026 2020 
Q 2781 2228 2272 2228 
L 1259 2228 
z
M 1259 4147 
L 1259 2741 
L 2194 2741 
Q 2656 2741 2882 2914 
Q 3109 3088 3109 3444 
Q 3109 3797 2882 3972 
Q 2656 4147 2194 4147 
L 1259 4147 
z
M 628 4666 
L 2241 4666 
Q 2963 4666 3353 4366 
Q 3744 4066 3744 3513 
Q 3744 3084 3544 2831 
Q 3344 2578 2956 2516 
Q 3422 2416 3680 2098 
Q 3938 1781 3938 1306 
Q 3938 681 3513 340 
Q 3088 0 2303 0 
L 628 0 
L 628 4666 
z
" transform="scale(0.015625)"/>
      </defs>
      <use xlink:href="#DejaVuSans-45"/>
      <use xlink:href="#DejaVuSans-46" transform="translate(63.183594 0)"/>
      <use xlink:href="#DejaVuSans-20" transform="translate(120.703125 0)"/>
      <use xlink:href="#DejaVuSans-32" transform="translate(152.490234 0)"/>
      <use xlink:href="#DejaVuSans-30" transform="translate(216.113281 0)"/>
      <use xlink:href="#DejaVuSans-32" transform="translate(279.736328 0)"/>
      <use xlink:href="#DejaVuSans-36" transform="translate(343.359375 0)"/>
      <use xlink:href="#DejaVuSans-20" transform="translate(406.982422 0)"/>
      <use xlink:href="#DejaVuSans-42" transform="translate(438.769531 0)"/>
      <use xlink:href="#DejaVuSans-65" transform="translate(507.373047 0)"/>
      <use xlink:href="#DejaVuSans-67" transform="translate(568.896484 0)"/>
      <use xlink:href="#DejaVuSans-69" transform="translate(632.373047 0)"/>
      <use xlink:href="#DejaVuSans-6e" transform="translate(660.15625 0)"/>
      <use xlink:href="#DejaVuSans-73" transform="translate(723.535156 0)"/>
     </g>
    </g>
   </g>
   <g id="line2d_37">
    <path d="M 138.22711 824.394611 
L 139.65422 824.033046 
L 141.08133 823.103307 
L 142.50844 673.105394 
L 143.93555 660.708872 
" clip-path="url(#p7c02466e72)" style="fill: none; stroke: #005953; stroke-width: 2; stroke-linecap: square"/>
   </g>
  </g>
 </g>
 <defs>
  <clipPath id="pedb8070c08">
   <rect x="136.8" y="14.798438" width="363.913043" height="361.565217"/>
  </clipPath>
  <clipPath id="p496095c6a6">
   <rect x="609.886957" y="14.798438" width="363.913043" height="361.565217"/>
  </clipPath>
  <clipPath id="p7c02466e72">
   <rect x="136.8" y="484.83322" width="363.913043" height="361.565217"/>
  </clipPath>
 </defs>
</svg>
